<svg width="105" height="104" viewBox="0 0 105 104" fill="none" xmlns="http://www.w3.org/2000/svg">
<g clip-path="url(#clip0_43_45)">
<g opacity="0.2">
<path d="M25.7279 104C37.8349 104 47.6496 101.852 47.6496 99.2017C47.6496 96.5516 37.8349 94.4033 25.7279 94.4033C13.6208 94.4033 3.80615 96.5516 3.80615 99.2017C3.80615 101.852 13.6208 104 25.7279 104Z" fill="#371A45"/>
</g>
<path d="M56.7026 53.9448C56.7026 53.9448 45.584 55.624 37.4873 60.5792C36.3643 61.2641 35.2995 62.0143 34.3307 62.8316L34.0625 60.7997L33.636 57.557L32.4609 48.6411C32.4609 48.6411 49.5106 43.4558 57.7394 46.0081C59.5105 46.5576 60.7104 47.379 61.3971 48.2881C63.292 50.7902 61.3159 53.9573 56.7033 53.9448H56.7026Z" fill="white"/>
<g opacity="0.2">
<path d="M39.1459 46.9449C37.9654 49.0878 35.7673 50.9175 32.9281 52.1856L32.4604 48.6404C32.4604 48.6404 35.2644 47.7881 39.1459 46.9446V46.9449Z" fill="#371A45"/>
</g>
<path d="M58.8345 47.6468C58.8142 47.5484 58.8057 47.4919 58.8057 47.4919C58.8057 47.4919 58.8199 47.5469 58.8345 47.6468Z" fill="#D8D8D8"/>
<g opacity="0.2">
<path d="M56.7027 53.9448C56.7027 53.9448 45.5841 55.6241 37.4874 60.5792L34.0622 60.7994L31.5854 60.9584L33.6357 57.5567L36.7526 52.3869C36.7526 52.3869 40.863 55.225 51.1104 53.7483C57.3923 52.8432 57.2231 49.3537 57.1088 48.5951C57.2245 49.1656 57.7377 51.213 59.2046 51.5084C61.7876 52.0299 62.097 50.281 61.3968 48.2882C63.2917 50.7903 61.3156 53.9574 56.7031 53.9448H56.7027Z" fill="#371A45"/>
</g>
<path d="M34.3308 63.4266C34.1623 63.4266 33.9953 63.3536 33.8788 63.2119C33.6714 62.9589 33.7052 62.5838 33.9545 62.3736C41.9439 55.6352 56.0207 53.4455 56.6161 53.3555C56.6455 53.3511 56.6783 53.3437 56.7041 53.3489H56.7318C59.7424 53.3489 61.2956 51.9676 61.5005 50.5949C61.7425 48.9702 60.1988 47.3931 57.5673 46.5769C49.6024 44.1073 32.7973 49.159 32.6284 49.2107C32.318 49.3055 31.9905 49.1266 31.897 48.8116C31.8038 48.4966 31.9803 48.1647 32.2907 48.0703C32.9938 47.8564 49.606 42.8625 57.9109 45.4384C61.8233 46.6518 62.9154 49.0702 62.6617 50.7723C62.3826 52.647 60.4452 54.5339 56.7471 54.5394C55.8861 54.6766 42.2313 56.9412 34.7053 63.2887C34.5954 63.3812 34.4622 63.4266 34.3301 63.4266H34.3308Z" fill="#371A45"/>
<path d="M20.2468 47.1593L20.4815 50.4643L20.602 52.1476L22.6694 81.1788C22.6694 81.1788 20.7082 81.2094 18.0753 81.0361C17.5604 81.0021 17.0193 80.9608 16.4628 80.9096C12.3135 80.5312 7.27624 79.6224 5.36352 77.4607C2.50426 74.2283 2.02753 58.4453 4.58038 52.1875C5.74963 49.3184 11.6927 48.0692 15.913 47.537C16.3846 47.4765 16.8351 47.426 17.2547 47.3839C19.0233 47.2028 20.2472 47.1593 20.2472 47.1593H20.2468Z" fill="white"/>
<g opacity="0.2">
<path d="M20.4817 50.4642L20.6021 52.1475L22.2437 75.1986L22.6695 81.1787C22.6695 81.1787 22.6284 81.1791 22.5509 81.1798C22.5287 81.1798 22.5025 81.1798 22.4745 81.1798C22.4523 81.1798 22.4275 81.1798 22.4024 81.1798C22.3835 81.1806 22.3642 81.1798 22.3453 81.1809C22.338 81.1802 22.3293 81.1813 22.3216 81.1809C22.2863 81.1809 22.2467 81.1809 22.2055 81.1802C22.1968 81.1813 22.1881 81.1809 22.1775 81.1806C22.1437 81.1806 22.1084 81.1802 22.0702 81.1806C22.0188 81.1806 21.9657 81.1798 21.91 81.1791C21.8704 81.178 21.8278 81.1787 21.7852 81.178C21.7412 81.1772 21.6971 81.1769 21.6513 81.1765C21.5938 81.1761 21.5337 81.1747 21.4719 81.1747C21.3467 81.1721 21.2142 81.1702 21.0745 81.1665C20.9511 81.1651 20.8212 81.1617 20.6858 81.1573C20.5297 81.1525 20.3663 81.1485 20.1967 81.1426C19.5701 81.1208 18.8524 81.0876 18.0755 81.0363C17.9245 81.0264 17.7705 81.0153 17.6151 81.0046C17.5071 80.9969 17.3957 80.988 17.2847 80.9796C17.0165 80.9585 16.7407 80.9357 16.463 80.9098C12.3122 80.5314 7.27638 79.6227 5.36512 77.4606C3.00987 74.7992 2.26931 63.6279 3.50843 56.271C3.29518 62.6682 4.15147 69.5051 5.927 71.5108C6.80475 72.5025 10.1797 68.87 10.0771 66.8226C9.81213 61.5426 10.5003 54.7245 15.2166 50.5741C15.3392 50.4664 18.1541 50.7663 20.4824 50.4646L20.4817 50.4642Z" fill="#371A45"/>
</g>
<path d="M22.2077 81.7777C19.6912 81.7777 8.20976 81.5704 4.92618 77.859C1.92208 74.4629 1.37366 58.488 4.03678 51.9599C4.88578 49.8782 7.90225 48.3391 13.0014 47.3857C16.6867 46.6964 20.1916 46.5666 20.2265 46.5655L20.792 46.5455L23.3008 81.7656L22.6793 81.7751C22.6262 81.7759 22.4631 81.7781 22.2077 81.7781V81.7777ZM19.7021 47.78C15.6106 47.995 6.45716 49.1428 5.12269 52.4142C3.97054 55.2391 3.3599 60.4218 3.52948 65.9401C3.69506 71.3242 4.58665 75.6907 5.80139 77.0638C8.65737 80.2921 19.3378 80.5676 22.0392 80.5846L19.7025 47.78H19.7021Z" fill="#371A45"/>
<path d="M4.05722 65.5524L9.6975 65.8316C10.2012 65.8567 10.6248 66.2218 10.7277 66.7219C11.1037 68.5539 11.7554 72.8304 10.0257 74.2939C8.58975 75.5088 6.20576 75.4339 4.77995 74.2743C3.18492 72.9772 2.924 68.773 2.89561 66.6887C2.88688 66.0407 3.41892 65.5207 4.05722 65.5524Z" fill="white"/>
<g opacity="0.2">
<path d="M10.7274 66.7227C11.1044 68.5539 11.7555 72.8308 10.0251 74.2939C8.58908 75.5095 6.20545 75.4343 4.77891 74.2744C3.7989 73.4758 3.32254 71.5783 3.09473 69.7515C3.37203 70.6599 3.78907 71.3927 4.29709 71.867C7.20657 74.5856 9.23939 71.2356 9.23939 71.2356C9.23939 71.2356 9.62768 72.0256 9.92172 72.0633C11.1514 72.2204 10.798 68.3404 10.5691 66.3373C10.6437 66.4512 10.6987 66.5807 10.7274 66.7231V66.7227Z" fill="#371A45"/>
</g>
<path d="M7.44526 75.7722C6.35716 75.7722 5.25887 75.4277 4.41241 74.7388C2.74569 73.3833 2.3483 69.6177 2.30827 66.6973C2.30172 66.2249 2.49023 65.766 2.82539 65.4378C3.16055 65.1095 3.61945 64.9366 4.08598 64.9579L9.72626 65.2372C10.4978 65.2755 11.1459 65.8365 11.3027 66.6011C11.7853 68.9519 12.31 73.137 10.402 74.7513C9.59744 75.4322 8.52608 75.7722 7.44526 75.7722ZM4.00228 66.1467C3.86691 66.1467 3.73954 66.1987 3.64165 66.2946C3.53757 66.3967 3.48116 66.5336 3.48298 66.6807C3.53284 70.338 4.15513 73.0031 5.14752 73.8104C6.40047 74.8295 8.46203 74.842 9.64911 73.8374C10.6837 72.9621 10.8719 70.3476 10.1528 66.8437C10.1047 66.6099 9.90603 66.4384 9.66913 66.427L4.02885 66.1478C4.02011 66.1474 4.01102 66.147 4.00228 66.147V66.1467Z" fill="#371A45"/>
<path d="M7.01061 74.7063C7.03172 74.6978 7.10305 74.6557 7.15254 74.6222C7.20749 74.5849 7.26244 74.5458 7.3163 74.5016C7.42475 74.4164 7.52992 74.3201 7.6289 74.2165C7.82541 74.0084 8.01174 73.7798 8.16203 73.5234C8.47536 73.0185 8.69516 72.4395 8.82581 71.832C8.8844 71.5266 8.94081 71.2183 8.96373 70.903C9.00158 70.5917 9.00704 70.2634 9.01759 69.9444C9.02487 69.6231 9.0205 69.3023 9.00049 68.9836C8.98921 68.8246 8.97647 68.6657 8.95536 68.5089C8.93535 68.3559 8.9066 68.1895 8.86984 68.0601L8.86475 68.0424C8.84109 67.959 8.8884 67.8723 8.97065 67.8484C9.04816 67.8255 9.12931 67.8679 9.15806 67.9428C9.28798 68.2869 9.3422 68.6037 9.39933 68.9375C9.45101 69.2676 9.48595 69.5988 9.5096 69.9304C9.52925 70.2638 9.55473 70.5891 9.54599 70.9291C9.55218 71.2674 9.52379 71.6067 9.48995 71.9471C9.40843 72.6268 9.22538 73.308 8.91024 73.9439C8.75921 74.2648 8.56161 74.5665 8.33817 74.8516C8.22572 74.9939 8.10308 75.13 7.96843 75.2588C7.90293 75.324 7.8316 75.386 7.75773 75.4472C7.67803 75.5107 7.61653 75.5616 7.49789 75.6342L7.47278 75.6497C7.22641 75.8009 6.90581 75.7209 6.7566 75.4712C6.6074 75.2215 6.68637 74.8966 6.93274 74.7454C6.95748 74.7302 6.9855 74.7166 7.01098 74.7059L7.01061 74.7063Z" fill="#371A45"/>
<path d="M13.0544 51.8278C12.3714 51.7994 11.6796 51.7887 10.9929 51.788C10.3051 51.788 9.61764 51.7994 8.93349 51.8308C8.24969 51.8621 7.56663 51.9045 6.89485 51.9838C6.22452 52.0624 5.55601 52.1631 4.93518 52.3316L4.93081 52.3328C4.61712 52.418 4.29469 52.2295 4.21063 51.9116C4.12657 51.5936 4.31253 51.2669 4.62622 51.1817C4.63896 51.1783 4.65315 51.175 4.66589 51.1724C5.39589 51.0282 6.10698 50.9744 6.81552 50.9401C7.52369 50.9065 8.22568 50.9117 8.92548 50.9283C9.62565 50.9449 10.3225 50.9818 11.0183 51.0301C11.7149 51.0795 12.4059 51.1378 13.1032 51.2156C13.2695 51.2344 13.3892 51.386 13.371 51.5545C13.3536 51.7157 13.216 51.8337 13.0584 51.8275H13.0541L13.0544 51.8278Z" fill="#371A45"/>
<path d="M25.4782 71.3179C25.364 73.0598 25.1314 78.372 24.877 83.7664C24.5703 90.285 24.2318 96.9234 24.0266 97.5202C23.4116 99.3108 21.814 99.4672 21.814 99.4672H15.5514C15.5514 99.4672 13.6372 99.4642 12.7952 98.4323C11.4123 96.7364 12.8184 94.8912 12.8184 94.8912C12.8184 94.8912 12.7125 87.2012 12.6438 80.1622C12.615 77.1372 12.5928 74.2308 12.5888 72.1083L25.4786 71.3175L25.4782 71.3179Z" fill="white"/>
<g opacity="0.2">
<path d="M25.4778 71.3179C25.3635 73.0598 25.131 78.372 24.8766 83.7664C20.0755 84.0773 16.1798 81.5601 12.6433 80.1626C12.6146 77.1375 12.5924 74.2312 12.5884 72.1086L25.4782 71.3179H25.4778Z" fill="#371A45"/>
</g>
<g opacity="0.2">
<path d="M24.2394 95.558C24.1597 96.6361 24.0866 97.3431 24.0261 97.5201C23.4111 99.3108 21.8136 99.4671 21.8136 99.4671H15.551C15.551 99.4671 13.6368 99.4642 12.7947 98.4322C12.104 97.5858 12.1095 96.7013 12.2882 96.0293C12.2882 96.0308 12.2896 96.0323 12.2911 96.0334C13.2034 97.1506 15.2773 97.1531 15.2773 97.1531H22.0628C22.0628 97.1531 23.4759 97.0152 24.2398 95.5576L24.2394 95.558Z" fill="#371A45"/>
</g>
<path d="M21.8134 100.062H15.5508C15.326 100.062 13.3313 100.024 12.3426 98.8114C11.1053 97.2944 11.6719 95.5595 12.2283 94.706C12.2036 92.8759 12.0129 78.6685 12.0012 72.1101C12.0009 71.7811 12.2633 71.5141 12.5875 71.5137H12.5886C12.9125 71.5137 13.1756 71.7796 13.176 72.1079C13.188 79.0827 13.4034 94.7263 13.4056 94.8834C13.4074 95.018 13.3641 95.1493 13.2829 95.2556C13.2393 95.3138 12.1876 96.7526 13.248 98.0523C13.7899 98.717 15.0952 98.8686 15.5527 98.8708H21.777C21.9408 98.8457 23.0231 98.6314 23.4718 97.3239C23.7039 96.4941 24.1807 86.1585 24.4958 79.3198C24.6636 75.6818 24.8084 72.5398 24.8918 71.2773C24.9136 70.949 25.1942 70.7008 25.517 70.7229C25.8405 70.7447 26.0854 71.0287 26.0639 71.3566C25.9813 72.6072 25.8368 75.7437 25.6694 79.3752C25.1221 91.2483 24.8197 97.0211 24.5813 97.7152C23.8513 99.8422 21.9506 100.051 21.8698 100.059C21.8513 100.061 21.8323 100.062 21.8134 100.062V100.062Z" fill="#371A45"/>
<path d="M39.8017 95.5244C40.5339 96.4435 40.6314 97.7724 39.6296 98.707C38.6263 99.6412 34.8518 99.4502 34.8518 99.4502H29.3902C29.3902 99.4502 27.7926 99.2942 27.1776 97.5032C26.7016 96.1142 26.9836 90.3794 26.8129 83.8316C26.7773 82.4412 26.7209 81.0146 26.6328 79.585L40.3661 72.8042C40.1529 75.3579 39.9189 77.8571 39.6823 80.1987C38.8734 88.2376 38.0517 94.4032 38.0517 94.4032C38.0517 94.4032 39.1747 94.7352 39.8021 95.5244H39.8017Z" fill="white"/>
<g opacity="0.2">
<path d="M39.6298 98.7075C38.6272 99.641 34.8528 99.4503 34.8528 99.4503H29.3912C29.3912 99.4503 27.7932 99.2935 27.1782 97.504C27.1011 97.2798 27.0436 96.9423 27.001 96.5049C27.7008 97.0544 28.4097 97.1234 28.4097 97.1234H34.5849C34.5849 97.1234 38.8514 97.3384 39.9861 96.2821C40.0465 96.2253 40.1044 96.1685 40.1557 96.1088C40.5298 96.9515 40.4344 97.9569 39.6302 98.7075H39.6298Z" fill="#371A45"/>
</g>
<g opacity="0.2">
<path d="M40.3658 72.8046C40.1525 75.3583 39.9185 77.8574 39.682 80.1991C38.7602 80.5226 37.7183 80.9648 36.5789 81.573C32.5868 83.7055 28.3457 83.8575 26.8129 83.8324C26.7773 82.4419 26.7209 81.0153 26.6328 79.5858L40.3661 72.8049L40.3658 72.8046Z" fill="#371A45"/>
</g>
<path d="M35.7263 100.067C35.3238 100.067 35.0058 100.055 34.838 100.046H29.3909C29.372 100.046 29.3535 100.046 29.3345 100.044C29.2541 100.036 27.353 99.8268 26.623 97.6998C26.2915 96.7335 26.2911 94.3081 26.2904 90.6372C26.29 87.4783 26.2893 83.5462 26.0466 79.6234C26.0262 79.2952 26.2722 79.0127 26.5961 78.992C26.9196 78.9684 27.1987 79.2207 27.2191 79.5489C27.464 83.5094 27.4648 87.4617 27.4651 90.6372C27.4655 93.8006 27.4662 96.5321 27.7326 97.3089C28.1788 98.609 29.2508 98.8281 29.4288 98.8557H34.8525C34.8624 98.8557 34.8718 98.8557 34.8817 98.8565C36.3482 98.931 38.6663 98.7963 39.2319 98.2693C40.0248 97.5305 39.86 96.5461 39.345 95.8985C38.8468 95.2719 37.897 94.9779 37.8876 94.9753C37.6085 94.8927 37.4309 94.6161 37.4698 94.324C37.4836 94.2214 38.8476 83.9283 39.7814 72.7552C39.8087 72.4277 40.0911 72.185 40.4164 72.2123C40.7396 72.24 40.9794 72.528 40.9521 72.8559C40.1289 82.7046 38.9728 91.8706 38.6955 94.0142C39.1409 94.2108 39.8014 94.5752 40.2599 95.1516C41.2596 96.4086 41.1621 98.0886 40.0274 99.146C39.1747 99.9404 37.0171 100.067 35.727 100.067L35.7263 100.067Z" fill="#371A45"/>
<path d="M41.0379 70.2741C40.8396 73.1218 40.0397 75.6951 38.3694 77.5743C32.3339 84.3706 16.1685 83.0413 12.9264 74.4688C12.5043 73.3498 12.2943 71.9043 12.2441 70.2741C12.0811 64.8086 13.7307 57.2639 15.2595 52.9874C15.2595 52.9874 15.2609 52.8757 15.2697 52.6732C15.3654 50.7464 16.277 40.5496 25.0131 38.6483C32.7451 36.9631 35.4253 46.4342 36.1855 50.2725C36.3737 51.2263 36.4443 51.8326 36.4443 51.8326C38.9629 56.2596 41.483 63.944 41.0372 70.2741H41.0379Z" fill="white"/>
<g opacity="0.2">
<path d="M36.1864 50.2725C33.1415 52.606 28.5897 54.0872 23.5055 54.0872C20.509 54.0872 17.6978 53.5731 15.2705 52.6732C15.3662 50.7464 16.2778 40.5496 25.0139 38.6483C32.7459 36.9631 35.4262 46.4342 36.1864 50.2725Z" fill="#371A45"/>
</g>
<path d="M17.9958 47.2772L16.074 52.9501C13.9877 52.2737 12.1528 51.3199 10.6826 50.1622C12.929 48.8466 15.4331 47.8375 17.9958 47.2772Z" fill="#D8D8D8"/>
<g opacity="0.2">
<path d="M41.0373 70.2734C40.8393 73.1211 40.0398 75.6959 38.369 77.5743C32.3336 84.3702 16.1689 83.0414 12.9268 74.4684C12.5043 73.3498 12.294 71.9036 12.2441 70.2734H41.0369H41.0373Z" fill="#371A45"/>
</g>
<path d="M13.0586 75.4911C12.7748 75.0839 12.5495 74.6388 12.3614 74.1681C12.1838 73.699 12.0404 73.217 11.9414 72.7316C11.7391 71.7594 11.6557 70.7768 11.639 69.8024C11.6015 67.8517 11.7518 65.9187 12.0055 64.0063C12.1296 63.0496 12.2846 62.0984 12.4607 61.1516C12.635 60.2045 12.8337 59.2625 13.0564 58.3265C13.2755 57.3893 13.5244 56.4591 13.7966 55.5348C14.0685 54.6102 14.3636 53.6911 14.7064 52.7842C14.8225 52.4769 15.1624 52.3235 15.4652 52.4415C15.7599 52.5559 15.911 52.8848 15.8123 53.1851L15.8109 53.1895C15.5176 54.0769 15.2472 54.9772 14.9994 55.8849C14.7526 56.7929 14.5296 57.7091 14.3174 58.6278C14.1089 59.5473 13.9171 60.4708 13.742 61.3973C13.5692 62.3241 13.416 63.2543 13.281 64.186C13.1467 65.118 13.0408 66.0526 12.9604 66.9875C12.8799 67.9221 12.8312 68.8578 12.8304 69.7891C12.8323 70.7204 12.8745 71.6461 12.9804 72.5553C13.024 73.0126 13.107 73.4582 13.1969 73.9022C13.2959 74.3393 13.4262 74.78 13.5801 75.2171C13.6351 75.3735 13.555 75.5453 13.4007 75.601C13.2726 75.6475 13.1336 75.5988 13.059 75.4915L13.0586 75.4911Z" fill="#371A45"/>
<path d="M31.6035 81.6545C30.9063 81.9496 30.1741 82.1458 29.4324 82.2797C28.6904 82.4132 27.9378 82.4877 27.1842 82.4969C26.4309 82.5087 25.6769 82.4582 24.9319 82.3483C24.1877 82.2388 23.4508 82.0695 22.743 81.8046H22.7419C22.588 81.7467 22.509 81.5734 22.5658 81.417C22.6113 81.292 22.7303 81.216 22.8547 81.2201L25.0222 81.2942C25.7387 81.3137 26.4527 81.3167 27.166 81.306C27.8793 81.2931 28.5922 81.2695 29.3069 81.226L31.4671 81.0744C31.6312 81.0626 31.7735 81.188 31.7848 81.3539C31.7939 81.4864 31.7167 81.6047 31.6024 81.6534L31.6035 81.6545Z" fill="#371A45"/>
<path d="M36.7 51.6829C38.0163 53.5664 38.9628 55.6802 39.7194 57.8433C40.476 60.0094 41.0633 62.2434 41.3963 64.5301C41.7253 66.8131 41.8268 69.1562 41.4895 71.4769C41.317 72.6339 41.0197 73.7838 40.5462 74.8652C40.0757 75.9444 39.4257 76.9576 38.588 77.7738C38.4708 77.8881 38.2845 77.8844 38.1717 77.7653C38.0698 77.6576 38.0629 77.4927 38.1495 77.3777L38.1513 77.3754C39.4676 75.6235 40.1077 73.491 40.3515 71.3223C40.5997 69.1452 40.4549 66.9175 40.1252 64.7256C39.7915 62.5307 39.2605 60.3587 38.5844 58.2346C37.8962 56.1124 37.088 54.036 36.1913 51.9805L36.1898 51.9768C36.124 51.826 36.1913 51.6493 36.3401 51.5825C36.4708 51.5239 36.6207 51.5693 36.7 51.6832V51.6829Z" fill="#371A45"/>
<path d="M52.9771 45.567C52.9771 45.567 55.4939 42.4906 56.9193 43.5429C57.9244 44.285 56.7115 46.0059 56.5554 46.5857C56.5379 46.7878 57.3484 47.5605 57.0882 50.7479" fill="white"/>
<path d="M52.5248 45.1872C52.7555 44.8888 52.9826 44.6336 53.2348 44.3765C53.4837 44.1217 53.7454 43.8756 54.0281 43.6437C54.3145 43.4161 54.6195 43.1996 54.9692 43.0163C55.3193 42.8393 55.7192 42.6799 56.2123 42.6696C56.4558 42.6652 56.7244 42.712 56.9682 42.8227C57.2094 42.9359 57.4216 43.0882 57.6043 43.3191C57.7848 43.5459 57.8947 43.8347 57.926 44.0936C57.9609 44.3547 57.9413 44.5926 57.902 44.8043C57.819 45.2289 57.6687 45.5796 57.518 45.9086C57.442 46.0724 57.363 46.2287 57.2895 46.3774L57.1865 46.5898C57.156 46.654 57.1287 46.7219 57.1217 46.7421L57.1403 46.637C57.1436 46.6072 57.1432 46.5765 57.1403 46.5467L57.1363 46.5149L57.1327 46.4958C57.1247 46.4629 57.1232 46.4618 57.1207 46.4545C57.1166 46.4452 57.1192 46.4545 57.125 46.4685L57.1727 46.5795C57.2105 46.6662 57.2498 46.761 57.2851 46.8554C57.355 47.0461 57.4154 47.2389 57.4573 47.4318C57.5402 47.8184 57.5872 48.1997 57.5963 48.5767C57.6094 48.9529 57.5923 49.3246 57.5566 49.6901C57.517 50.056 57.4635 50.4167 57.3809 50.7715C57.3434 50.9334 57.1832 51.0338 57.0239 50.9954C56.8947 50.9644 56.8051 50.8527 56.7957 50.7251V50.7225C56.7698 50.371 56.7531 50.0239 56.7211 49.6813C56.6941 49.3387 56.6523 49.0008 56.6013 48.6715C56.5442 48.3432 56.4827 48.022 56.3845 47.7236C56.3368 47.5742 56.2862 47.4304 56.2251 47.2924C56.1941 47.2231 56.1621 47.156 56.1246 47.0826L56.0606 46.9535C56.0482 46.9269 56.0333 46.8956 56.0151 46.8447C56.0056 46.8166 55.9965 46.7945 55.9849 46.7399L55.978 46.7045L55.9751 46.6868L55.9718 46.6566C55.9681 46.6156 55.9678 46.574 55.9703 46.533C55.9725 46.5013 55.9776 46.4703 55.9852 46.4404L55.9889 46.4275C56.0275 46.2844 56.0657 46.1955 56.1024 46.1044L56.2109 45.8551C56.2811 45.6976 56.3488 45.5486 56.4096 45.4026C56.5311 45.1127 56.629 44.8265 56.6665 44.5816C56.6872 44.4599 56.6865 44.3544 56.6741 44.2791C56.6618 44.2013 56.6392 44.1652 56.609 44.1279C56.5828 44.0929 56.514 44.0431 56.4511 44.0169C56.3874 43.9929 56.3193 43.9752 56.228 43.9778C56.0478 43.9778 55.8007 44.0586 55.5555 44.1851C55.3073 44.309 55.0565 44.4779 54.8134 44.6653C54.5678 44.8504 54.3276 45.0559 54.0958 45.2735C53.9801 45.3823 53.8658 45.4944 53.7545 45.6087C53.6431 45.719 53.5259 45.8407 53.4299 45.9459L53.4193 45.9577C53.1991 46.1992 52.8272 46.214 52.5892 45.9908C52.3632 45.7791 52.3399 45.4277 52.5259 45.1861L52.5248 45.1872Z" fill="#371A45"/>
<path d="M41.5007 70.2538C41.766 69.1126 41.0685 67.9687 39.9427 67.699C38.8168 67.4292 37.6891 68.1357 37.4238 69.2769C37.1584 70.4181 37.856 71.5619 38.9818 71.8317C40.1077 72.1015 41.2354 71.395 41.5007 70.2538Z" fill="white"/>
<path d="M39.4646 72.4864C37.9857 72.4864 36.7822 71.2667 36.7822 69.7678C36.7822 68.2689 37.9857 67.0492 39.4646 67.0492C40.9436 67.0492 42.147 68.2689 42.147 69.7678C42.147 71.2667 40.9439 72.4864 39.4646 72.4864ZM39.4646 68.2401C38.6334 68.2401 37.9573 68.9254 37.9573 69.7678C37.9573 70.6102 38.6334 71.2955 39.4646 71.2955C40.2958 71.2955 40.972 70.6102 40.972 69.7678C40.972 68.9254 40.2958 68.2401 39.4646 68.2401Z" fill="#371A45"/>
<path d="M37.3497 76.0085L25.5262 76.2546C24.1269 76.2841 22.9573 75.1473 22.9282 73.727L22.7994 67.3501C22.7743 66.1068 23.6316 65.0445 24.7856 64.7797C24.949 64.741 25.1186 64.7207 25.2933 64.7167L37.115 64.4707C38.516 64.4411 39.6856 65.5782 39.7129 66.9982L39.8163 72.0489L39.8436 73.3751C39.8727 74.7951 38.7493 75.9787 37.3497 76.0082V76.0085Z" fill="white"/>
<path d="M37.3497 76.0085L25.5262 76.2546C24.1269 76.2841 22.9573 75.1473 22.9282 73.727L22.7994 67.3501C22.7743 66.1068 23.6316 65.0445 24.7856 64.7797C24.949 64.741 25.1186 64.7207 25.2933 64.7167L37.115 64.4707C38.516 64.4411 39.6856 65.5782 39.7129 66.9982L39.8163 72.0489L39.8436 73.3751C39.8727 74.7951 38.7493 75.9787 37.3497 76.0082V76.0085Z" fill="white"/>
<path d="M37.3497 76.0085L25.5262 76.2546C24.1269 76.2841 22.9573 75.1473 22.9282 73.727L22.7994 67.3501C22.7743 66.1068 23.6316 65.0445 24.7856 64.7797C24.949 64.741 25.1186 64.7207 25.2933 64.7167L37.115 64.4707C38.516 64.4411 39.6856 65.5782 39.7129 66.9982L39.8163 72.0489L39.8436 73.3751C39.8727 74.7951 38.7493 75.9787 37.3497 76.0082V76.0085Z" fill="white"/>
<g opacity="0.2">
<path d="M37.3668 76.009L25.5433 76.255C24.144 76.2845 22.9744 75.1478 22.9453 73.7274L22.8165 67.3508C22.7913 66.1075 23.6487 65.0453 24.8027 64.7805C25.4832 65.2183 25.9155 65.4986 25.9155 65.4986C26.595 70.6053 28.0848 73.1277 34.3583 73.1012C37.0662 73.089 38.7667 72.635 39.8334 72.0497L39.8607 73.3759C39.8898 74.7959 38.7664 75.9795 37.3668 76.009Z" fill="#371A45"/>
</g>
<path d="M25.7914 76.8443C23.9169 76.8443 22.3732 75.3193 22.3346 73.4113L22.2185 67.6913C22.1792 65.759 23.6986 64.155 25.6051 64.1152L36.779 63.8824C38.6885 63.8345 40.2686 65.3824 40.3079 67.3147L40.424 73.0348C40.4633 74.967 38.9439 76.571 37.0374 76.6109L25.8635 76.8436C25.8394 76.844 25.8154 76.8443 25.7918 76.8443H25.7914ZM36.8503 65.0719C36.8343 65.0719 36.8187 65.0719 36.8027 65.0723L25.6287 65.305C24.37 65.3312 23.3667 66.3904 23.3925 67.6662L23.5086 73.3863C23.5344 74.662 24.5821 75.6814 25.8384 75.6527L37.0123 75.42C38.2711 75.3938 39.2744 74.3345 39.2485 73.0587L39.1324 67.3387C39.107 66.0788 38.0873 65.0719 36.85 65.0719H36.8503Z" fill="#371A45"/>
<path d="M33.1669 76.0513L33.1443 76.0971L25.5258 76.2553C24.4999 76.2756 23.5989 75.6718 23.1793 74.7863C23.0257 74.4654 22.9366 74.1076 22.9296 73.7278L22.871 70.8948L22.8518 69.9599L22.8194 68.3186L22.7994 67.3512C22.771 65.9308 23.8925 64.7473 25.2925 64.7178L27.8472 64.6658C26.6743 64.9151 25.7995 65.9862 25.8238 67.2409L25.8613 69.1337L25.8937 70.6857L25.9519 73.6208C25.9821 75.0378 27.1514 76.1756 28.5503 76.1476L33.1665 76.0517L33.1669 76.0513Z" fill="white"/>
<g opacity="0.2">
<path d="M34.3736 76.0256L34.351 76.0714L25.5258 76.2554C24.4999 76.2757 23.5988 75.6719 23.1792 74.7864C23.0257 74.4655 22.9365 74.1077 22.9296 73.7278L22.871 70.8949L22.8517 69.9599L22.8193 68.3187C23.3303 68.2364 24.0111 68.2936 24.3962 69.0534C24.93 70.1056 25.4657 69.7405 25.8613 69.1334L25.8937 70.6854L25.9519 73.6205C25.9821 75.0375 27.1513 76.1754 28.5502 76.1473L34.3732 76.0256H34.3736Z" fill="#371A45"/>
</g>
<path d="M25.4706 76.851C24.662 76.851 23.8956 76.5375 23.3064 75.9644C22.7009 75.3754 22.3581 74.5853 22.3413 73.74L22.2121 67.3623C22.1757 65.6123 23.5521 64.158 25.2806 64.1211L27.8349 64.0684L27.9678 65.246C27.0467 65.4426 26.392 66.2761 26.4113 67.2284L26.5405 73.6058C26.5511 74.1335 26.7654 74.627 27.1446 74.9959C27.5234 75.3647 28.0173 75.5605 28.538 75.5502L35.8938 75.441C35.9389 75.4403 35.9873 75.4392 36.0361 75.4403L36.2177 75.4366V75.4484C36.5186 75.4761 36.813 75.5893 36.8196 76.0227L36.8283 76.6179L36.2388 76.6268L25.5379 76.8496C25.5154 76.8499 25.4932 76.8503 25.471 76.8503L25.4706 76.851ZM25.8513 65.3006L25.3047 65.3117C24.2242 65.3349 23.3636 66.2437 23.3865 67.3376L23.5157 73.7157C23.5262 74.2431 23.7406 74.7362 24.1198 75.105C24.4986 75.4738 24.9935 75.6745 25.5132 75.6594L26.1344 75.6465C25.6515 75.0855 25.3804 74.3795 25.3658 73.6305L25.2366 67.2531C25.2217 66.5299 25.4502 65.849 25.8516 65.3002L25.8513 65.3006Z" fill="#371A45"/>
<path d="M30.5512 70.3847C30.5545 70.6204 30.2553 72.5295 30.2553 72.5295C30.2553 72.5295 29.6603 72.5383 28.9296 72.5494C28.0165 72.563 27.2625 71.6162 27.2454 70.4345C27.2283 69.2528 27.9543 68.2836 28.867 68.2699C29.4831 68.2607 30.1927 68.25 30.1927 68.25C30.1927 68.25 30.5454 70.0004 30.5512 70.3847Z" fill="#22A7F0"/>
<path d="M30.5512 70.3847C30.5545 70.6204 30.2553 72.5295 30.2553 72.5295C30.2553 72.5295 29.6603 72.5383 28.9296 72.5494C28.0165 72.563 27.2625 71.6162 27.2454 70.4345C27.2283 69.2528 27.9543 68.2836 28.867 68.2699C29.4831 68.2607 30.1927 68.25 30.1927 68.25C30.1927 68.25 30.5454 70.0004 30.5512 70.3847Z" fill="#1C7AEA"/>
<path d="M28.9095 72.9961C28.3396 72.9961 27.8076 72.7213 27.4088 72.2204C27.0292 71.7439 26.8145 71.1118 26.805 70.4409C26.7843 69.0146 27.7064 67.8407 28.8608 67.8233L29.7866 67.8093C29.7913 67.8093 29.796 67.8093 29.8008 67.8093C30.2407 67.8093 30.6192 68.1243 30.704 68.5636C30.8918 69.5369 30.9886 70.1473 30.9922 70.3778C30.9929 70.4405 30.9955 70.6068 30.7535 72.1917C30.6851 72.6424 30.3081 72.9747 29.8572 72.9817L28.9361 72.9957C28.9274 72.9957 28.9183 72.9957 28.9095 72.9957V72.9961ZM29.8 68.7026H29.7993L28.8735 68.7166C28.2163 68.7266 27.6722 69.5103 27.6857 70.428C27.6926 70.9004 27.8378 71.3379 28.0944 71.6598C28.3255 71.9501 28.625 72.1002 28.923 72.1032L29.8437 72.0891C29.863 72.0891 29.8794 72.0748 29.8823 72.056C30.0475 70.9742 30.1083 70.4829 30.1104 70.3892C30.1079 70.2561 30.0351 69.753 29.8386 68.7351C29.835 68.7159 29.8186 68.7026 29.7997 68.7026H29.8Z" fill="#371A45"/>
<path d="M30.2572 72.5285C31.1702 72.5148 31.8963 71.5457 31.879 70.364C31.8617 69.1823 31.1075 68.2355 30.1946 68.2492C29.2816 68.2629 28.5555 69.232 28.5728 70.4137C28.5901 71.5954 29.3443 72.5423 30.2572 72.5285Z" fill="#22A7F0"/>
<g opacity="0.7">
<path d="M28.5716 70.415C28.5731 70.5039 28.5781 70.5906 28.5876 70.6758C28.7492 69.7353 29.3908 69.0286 30.1695 69.0164C31.0149 69.0039 31.722 69.8135 31.8377 70.8701C31.8665 70.7079 31.8796 70.5382 31.877 70.3641C31.8599 69.182 31.1063 68.2364 30.1928 68.2496C29.2798 68.2629 28.5541 69.2329 28.5716 70.4146V70.415Z" fill="white"/>
</g>
<path d="M28.5715 70.4151C28.589 71.5957 29.3423 72.5428 30.2557 72.5295C31.1691 72.5148 31.8944 71.5463 31.877 70.3645C31.8748 70.1783 31.8537 69.9968 31.8162 69.8261C31.5869 70.6268 30.9959 71.1988 30.2958 71.2095C29.5275 71.2221 28.8707 70.5526 28.6723 69.635C28.6039 69.877 28.5679 70.1403 28.5715 70.4154V70.4151Z" fill="#1C7AEA"/>
<path d="M30.2358 72.9758C29.0931 72.9758 28.151 71.8365 28.1302 70.4209C28.1095 68.9947 29.0316 67.8207 30.186 67.8034C30.7671 67.7887 31.3083 68.0697 31.7133 68.5787C32.0929 69.0552 32.3076 69.6874 32.317 70.3582C32.3378 71.7845 31.4156 72.9584 30.2613 72.9758C30.2529 72.9758 30.2442 72.9758 30.2355 72.9758H30.2358ZM30.2122 68.6963H30.1991C29.5418 68.7063 28.9978 69.49 29.0113 70.4077C29.0247 71.3198 29.5841 72.0825 30.2358 72.0825H30.2482C30.9054 72.0725 31.4495 71.2888 31.436 70.3712C31.4291 69.8987 31.2839 69.4613 31.0273 69.1393C30.7995 68.8531 30.5102 68.6963 30.2118 68.6963H30.2122Z" fill="#371A45"/>
<path d="M33.6726 76.4854H33.6712C33.4277 76.4847 33.2312 76.2844 33.2319 76.0377L33.2418 72.8105C33.2447 71.9106 33.689 71.0778 34.431 70.5828C34.9376 70.245 35.2338 69.6766 35.2233 69.0625L35.1465 64.5142C35.1425 64.2678 35.3361 64.0642 35.5795 64.0602C35.8212 64.055 36.0235 64.2523 36.0275 64.4991L36.1043 69.0474C36.1199 69.9694 35.6752 70.8222 34.9154 71.3289C34.4212 71.6586 34.1246 72.2137 34.1228 72.8134L34.113 76.0406C34.1122 76.2866 33.915 76.4858 33.6723 76.4858L33.6726 76.4854Z" fill="#371A45"/>
<path d="M13.6403 67.3884C13.6403 67.3884 12.28 67.8937 12.0278 69.2786C11.7352 70.8856 12.9099 72.0588 12.9099 72.0588C12.9099 72.0588 19.5007 73.72 22.8189 72.137C22.8189 72.137 25.1024 70.0296 22.7985 67.8034C22.7985 67.8034 16.3052 68.6605 13.6403 67.3884Z" fill="white"/>
<g opacity="0.2">
<path d="M22.8199 72.1367C19.5007 73.7197 12.911 72.0585 12.911 72.0585C12.911 72.0585 11.7359 70.8856 12.0288 69.279C12.1457 68.6377 12.4979 68.1855 12.8447 67.8845C13.0402 68.9194 13.7214 69.5999 13.7214 69.5999C13.7214 69.5999 20.3129 71.2611 23.6304 69.6781C23.6304 69.6781 23.6951 69.6195 23.7912 69.5092C24.054 70.9974 22.8196 72.1367 22.8196 72.1367H22.8199Z" fill="#371A45"/>
</g>
<path d="M18.8953 73.4162C15.9127 73.4162 12.9526 72.6829 12.7685 72.6365L12.6124 72.5974L12.4978 72.4827C12.4406 72.4259 11.1054 71.066 11.4504 69.1706C11.7597 67.4711 13.3701 66.8548 13.4385 66.8293L13.6688 66.7438L13.8908 66.8496C16.3691 68.0328 22.6596 67.221 22.723 67.2129L23.001 67.176L23.2041 67.3723C24.0181 68.159 24.4257 69.0301 24.4152 69.9618C24.3981 71.4677 23.263 72.5325 23.2146 72.5771L23.1491 72.6376L23.069 72.6759C21.9071 73.2303 20.3979 73.4165 18.895 73.4165L18.8953 73.4162ZM13.223 71.5219C14.2518 71.7594 19.6497 72.9116 22.4795 71.6399C22.6629 71.4448 23.235 70.7695 23.2405 69.9404C23.2441 69.4248 23.0228 68.9176 22.5825 68.4297C21.299 68.5787 16.2322 69.0792 13.6492 68.0406C13.3348 68.2121 12.7438 68.6288 12.6058 69.3868C12.4192 70.4136 12.9854 71.232 13.223 71.5219Z" fill="#371A45"/>
<path d="M21.4407 69.8521C21.4363 69.8761 21.4305 69.9012 21.4247 69.9266C20.5924 73.5953 15.9009 74.6889 13.9558 73.5699C12.5427 72.7563 12.7279 70.9874 12.7279 70.9874C12.7279 70.9874 2.9081 71.5133 1.73485 63.7098C1.50995 62.2197 1.71738 60.7013 2.27016 59.2171C2.27162 59.2112 2.27307 59.2083 2.27307 59.2083C4.29169 53.7917 10.9153 48.8252 17.9959 47.2769L14.7494 56.8567C14.1701 57.7252 13.6159 58.9398 13.229 59.5568C13.8408 59.7519 14.5653 60.0009 14.5653 60.0009C18.5542 61.4983 22.706 64.1018 21.4403 69.8518L21.4407 69.8521Z" fill="white"/>
<g opacity="0.2">
<path d="M17.9958 47.2772L16.074 52.9501C13.9877 52.2737 12.1528 51.3199 10.6826 50.1622C12.929 48.8466 15.4331 47.8375 17.9958 47.2772Z" fill="#371A45"/>
</g>
<g opacity="0.2">
<path d="M21.4407 69.8522C21.4363 69.8762 21.4305 69.9012 21.4247 69.9267C20.5924 73.5954 15.9009 74.6889 13.9558 73.5699C12.5427 72.7563 12.7279 70.9874 12.7279 70.9874C12.7279 70.9874 2.9081 71.5134 1.73485 63.7098C1.50995 62.2198 1.71738 60.7013 2.27016 59.2172C2.19811 59.4617 0.676225 64.8871 6.63966 67.6603C11.0503 69.7106 13.6497 68.839 13.6497 68.839C13.6497 68.839 14.038 72.4823 17.3343 72.2739C19.2147 72.1547 20.5837 71.0715 21.4407 69.8526V69.8522Z" fill="#371A45"/>
</g>
<path d="M18.1193 47.8592C14.9981 48.5497 12.0027 49.8782 9.36216 51.7083C8.0437 52.6255 6.81259 53.6726 5.73141 54.8528C4.65277 56.032 3.72224 57.3516 3.07885 58.7919C2.43763 60.2273 2.10793 61.7989 2.27751 63.3288C2.36594 64.0944 2.557 64.8557 2.85941 65.5539C3.16182 66.2539 3.58177 66.8953 4.09999 67.4504C5.13604 68.5675 6.54875 69.3122 8.04298 69.7692C8.79264 69.9986 9.56741 70.1597 10.3513 70.2634C10.7432 70.3154 11.1373 70.3526 11.5318 70.3755C11.9212 70.3976 12.332 70.4072 12.696 70.3932C13.0242 70.3807 13.3008 70.6403 13.3132 70.973C13.3142 70.997 13.3135 71.0209 13.3117 71.0442V71.0501C13.3092 71.0741 13.3059 71.1471 13.3066 71.1998C13.3066 71.2574 13.3092 71.3164 13.3132 71.375C13.3215 71.4927 13.3368 71.6103 13.359 71.7247C13.4038 71.9541 13.478 72.1706 13.5803 72.3624C13.7844 72.747 14.1068 73.0259 14.5279 73.1837C14.9548 73.3434 15.4599 73.4083 15.9654 73.3888C16.4716 73.3729 16.9854 73.2844 17.4774 73.1313C18.4625 72.8311 19.3756 72.2746 20.011 71.5012C20.1747 71.3116 20.3065 71.0995 20.4342 70.8867C20.5481 70.6665 20.6595 70.4434 20.7333 70.2047C20.7781 70.0886 20.8047 69.9657 20.8381 69.8455C20.8698 69.7234 20.8924 69.5836 20.9204 69.4538C20.9499 69.3218 20.9691 69.189 20.9881 69.0562C21.0074 68.9234 21.0303 68.7907 21.039 68.6579C21.1562 67.5961 21.0521 66.5298 20.6744 65.5664C20.2985 64.6019 19.6518 63.7548 18.8552 63.0547C18.0582 62.3518 17.1226 61.7867 16.1378 61.312C15.6458 61.0749 15.136 60.858 14.6254 60.66C14.1225 60.4623 13.5701 60.3184 13.0464 60.1414C12.7254 60.033 12.5519 59.6815 12.6588 59.3562C12.6727 59.3138 12.6909 59.2739 12.7123 59.237L12.7178 59.2278C12.8328 59.0327 12.9674 58.8192 13.1068 58.6064C13.2436 58.391 13.3841 58.1723 13.53 57.955C13.6756 57.737 13.8314 57.5228 13.9886 57.3085C14.1487 57.0957 14.3183 56.8869 14.505 56.69C14.6189 56.5697 14.8077 56.5657 14.9264 56.6815C15.0184 56.7711 15.0414 56.9065 14.9937 57.0186L14.9915 57.0234C14.8922 57.2561 14.7965 57.4907 14.7 57.7263L14.4133 58.4385C14.3161 58.6768 14.2175 58.9165 14.1112 59.157C14.0068 59.3997 13.8958 59.6413 13.7393 59.8854L13.4107 58.9719C13.6829 59.0611 13.9522 59.16 14.2229 59.254C14.4944 59.3484 14.763 59.4347 15.0403 59.5458C15.5836 59.7563 16.1149 59.9824 16.6422 60.2366C17.6928 60.7437 18.7176 61.3563 19.6256 62.1559C20.531 62.9504 21.3112 63.9583 21.7657 65.1279C22.2243 66.2952 22.34 67.5743 22.2064 68.7815C22.1955 68.9341 22.1708 69.0835 22.1486 69.2336C22.1271 69.3837 22.1049 69.5338 22.0725 69.681C22.0409 69.8304 22.0176 69.9735 21.9783 70.1277C21.9364 70.2829 21.9004 70.4393 21.8436 70.5905C21.7468 70.8981 21.6053 71.1891 21.4553 71.4735C21.2923 71.7497 21.1194 72.0219 20.912 72.2642C20.0965 73.252 18.9866 73.9129 17.8173 74.271C17.524 74.3621 17.2252 74.434 16.9217 74.4849C16.6189 74.5388 16.3114 74.5694 16.0007 74.579C15.3809 74.5993 14.7422 74.5325 14.1094 74.2965C13.7928 74.1773 13.4787 73.9966 13.2091 73.7639C12.9394 73.5289 12.7112 73.242 12.5471 72.9303C12.3808 72.6191 12.2709 72.2886 12.2061 71.957C12.1737 71.791 12.1519 71.6247 12.1403 71.4573C12.1348 71.3735 12.1315 71.2894 12.1312 71.2042C12.1312 71.1139 12.1319 71.0438 12.1421 70.9254L12.7571 71.5823C12.3022 71.5996 11.8928 71.5875 11.4645 71.5642C11.0409 71.5399 10.6187 71.4997 10.1984 71.444C9.35743 71.3326 8.52189 71.1593 7.70235 70.9088C6.88355 70.6573 6.07967 70.3287 5.322 69.8942C4.56434 69.4619 3.85289 68.922 3.24552 68.2684C2.63706 67.6174 2.13741 66.8547 1.78332 66.0333C1.42741 65.2098 1.21125 64.3434 1.10899 63.4604C0.911386 61.6764 1.29932 59.8847 2.00676 58.3032C2.71748 56.7136 3.72224 55.298 4.86893 54.0437C6.01853 52.7889 7.31406 51.6883 8.69693 50.7265C11.4663 48.8086 14.5876 47.4229 17.8708 46.6956C18.1878 46.6255 18.5007 46.8287 18.5702 47.15C18.6394 47.4712 18.4389 47.7884 18.1219 47.8589L18.119 47.8596L18.1193 47.8592Z" fill="#371A45"/>
<path d="M50.7361 23.099C50.7478 23.2204 50.7594 23.3421 50.7682 23.4646C51.1099 27.5389 50.4618 31.7288 48.7525 35.6575C48.3933 36.4825 47.9901 37.2947 47.5373 38.091C47.3186 38.4797 47.0846 38.8651 46.8426 39.2494C46.1061 40.4024 45.2931 41.4757 44.4128 42.4685C43.6555 43.3257 42.8472 44.1212 41.9997 44.8537C40.9778 45.7396 39.8926 46.533 38.7609 47.2352C38.3456 47.4882 37.9279 47.7313 37.5032 47.9618C29.7282 52.1734 20.0212 52.1848 12.1057 47.1434C8.0503 44.5623 4.99926 40.9962 3.06179 36.9465C-0.575512 29.3513 -0.297483 20.0559 4.60806 12.3722C6.05716 10.1032 7.80466 8.137 9.76579 6.50053C9.99323 6.3069 10.2272 6.12064 10.4638 5.93845C11.0966 5.44533 11.7466 4.98651 12.4151 4.56052C13.9621 3.57687 15.6029 2.77026 17.301 2.14805C18.9986 1.52474 20.7574 1.08437 22.5409 0.836147C23.1083 0.756481 23.6778 0.696363 24.2499 0.65653C25.1094 0.596781 25.9701 0.579446 26.8355 0.610059C31.1416 0.748736 35.4591 2.00421 39.3442 4.4768C46.0526 8.74556 50.0109 15.7097 50.7358 23.0994L50.7361 23.099Z" fill="white"/>
<path d="M50.7366 23.099C51.1464 27.2889 50.5139 31.6107 48.7533 35.6571C48.393 36.4822 47.9906 37.2947 47.5375 38.0921C47.3177 38.4804 47.084 38.8651 46.8428 39.2491C46.6601 39.536 46.4719 39.8174 46.2791 40.0929C46.0294 40.2644 45.7725 40.4297 45.5068 40.5919C27.5066 51.5681 12.671 35.9835 12.671 35.9835C12.671 35.9835 6.03581 15.4002 24.036 4.42442C24.3759 4.21714 24.7158 4.02462 25.0561 3.84611C29.5628 1.48269 34.9949 1.7191 39.2967 4.44655C39.3123 4.45651 39.328 4.46647 39.3436 4.47643C46.0527 8.74555 50.0125 15.7104 50.7366 23.099Z" fill="#371A45"/>
<g opacity="0.2">
<path d="M50.7679 23.4646C51.1096 27.539 50.4615 31.7288 48.7522 35.6575C48.393 36.4826 47.9898 37.2947 47.5371 38.091C47.3184 38.4798 47.0844 38.8652 46.8424 39.2495C46.1058 40.4024 45.2928 41.4757 44.4125 42.4686C43.6552 43.3257 42.847 44.1213 41.9994 44.8538C40.9776 45.7397 39.8924 46.533 38.7606 47.2352C38.3454 47.4883 37.9276 47.7313 37.5029 47.9618C29.7279 52.1734 20.0209 52.1849 12.1055 47.1434C8.05003 44.5624 4.99899 40.9962 3.06152 36.9466L50.7679 23.4646Z" fill="#371A45"/>
</g>
<path d="M25.4611 51.0801C20.7841 51.0801 16.1329 49.7793 12.0742 47.1953C6.44269 43.6115 2.55246 38.029 1.12047 31.4757C-0.323172 24.8701 0.897754 18.0742 4.55799 12.339C5.98743 10.1032 7.72693 8.12331 9.72809 6.45402C9.94462 6.26998 10.1804 6.08003 10.4286 5.88935C11.0582 5.39882 11.7165 4.93447 12.3846 4.50921C13.92 3.53257 15.5674 2.71895 17.2815 2.09121C18.978 1.46753 20.7452 1.02531 22.5334 0.776725C23.1081 0.696321 23.6845 0.635834 24.2467 0.596739C25.1245 0.535883 25.9961 0.520393 26.8374 0.549898C31.2812 0.692633 35.6172 2.03294 39.376 4.42623C45.8759 8.56221 50.0379 15.3659 50.7949 23.0931C51.2145 27.3766 50.5274 31.7298 48.8076 35.6818C48.4433 36.5179 48.0331 37.3385 47.5888 38.1215C47.3865 38.4808 47.1587 38.8599 46.8926 39.2819C46.1648 40.4219 45.3453 41.5073 44.4573 42.5083C43.715 43.3492 42.9013 44.1536 42.0395 44.8994C41.0315 45.7728 39.9386 46.5753 38.792 47.286C38.3789 47.5398 37.9553 47.7851 37.5321 48.0156C33.7521 50.0625 29.597 51.0805 25.4618 51.0805L25.4611 51.0801ZM26.0059 0.655013C25.4298 0.655013 24.8436 0.675298 24.2547 0.716238C23.695 0.755333 23.1215 0.81582 22.5494 0.895486C20.7692 1.14297 19.0104 1.58334 17.3218 2.20407C15.6158 2.82886 13.9757 3.63879 12.4476 4.61101C11.7827 5.03405 11.1277 5.49655 10.5007 5.98488C10.2539 6.17445 10.0192 6.36329 9.80378 6.54622C7.81136 8.20777 6.07987 10.1784 4.65733 12.4039C1.01421 18.1118 -0.200898 24.8756 1.23583 31.4499C2.66091 37.9714 6.53257 43.5274 12.1372 47.0939C19.7484 51.9395 29.4576 52.2523 37.4757 47.9101C37.8971 47.6807 38.3189 47.4365 38.7301 47.1839C39.8713 46.4769 40.9591 45.6776 41.9624 44.8087C42.8201 44.0666 43.6302 43.2655 44.3689 42.4286C45.2532 41.4321 46.0687 40.3518 46.7929 39.2173C47.0579 38.7976 47.2846 38.4195 47.4862 38.0622C47.9287 37.2828 48.3366 36.4655 48.6995 35.6338C50.4109 31.7007 51.0951 27.3685 50.6773 23.1053C49.924 15.4149 45.782 8.64409 39.3131 4.52802C35.5721 2.14616 31.2568 0.812132 26.8338 0.670135C26.5609 0.660545 26.2846 0.655751 26.0063 0.655751L26.0059 0.655013Z" fill="#371A45"/>
<path d="M25.4609 51.4815C20.7108 51.4815 15.9858 50.16 11.8634 47.5355C6.14156 43.8941 2.18874 38.2216 0.733456 31.5628C-0.733111 24.8517 0.506739 17.947 4.2252 12.1214C5.67684 9.8506 7.44364 7.83978 9.47645 6.14467C9.69516 5.95878 9.93607 5.76441 10.1894 5.57004C10.8266 5.07361 11.4951 4.60188 12.1738 4.16999C13.7331 3.17822 15.406 2.35169 17.1466 1.71436C18.869 1.08109 20.6635 0.631868 22.4794 0.379593C23.0628 0.298083 23.6483 0.23649 24.2193 0.196657C25.1109 0.135432 25.9959 0.119204 26.8511 0.149078C31.364 0.294026 35.7684 1.65535 39.5866 4.08663C46.1908 8.289 50.4199 15.2022 51.1892 23.0541C51.6157 27.4066 50.9173 31.8291 49.1698 35.8445C48.7997 36.6935 48.3834 37.5271 47.9318 38.3226C47.7266 38.6863 47.4955 39.0717 47.2258 39.4988C46.4856 40.6584 45.6533 41.7608 44.7512 42.7777C43.9975 43.6311 43.1711 44.4484 42.2959 45.2056C41.2722 46.0923 40.1623 46.9081 38.9977 47.6295C38.5778 47.8877 38.148 48.1367 37.719 48.3701C33.8801 50.4492 29.6609 51.4823 25.4613 51.4823L25.4609 51.4815ZM26.0054 1.05675C25.438 1.05675 24.8612 1.07667 24.2811 1.11687C23.7309 1.15523 23.1661 1.21461 22.6031 1.29354C20.8505 1.53733 19.119 1.97033 17.4563 2.58184C15.7765 3.19703 14.1622 3.99443 12.6578 4.95116C12.0035 5.36756 11.3586 5.82268 10.7414 6.30326C10.4976 6.49062 10.2683 6.6754 10.0576 6.85428C8.09395 8.49186 6.38975 10.4319 4.98905 12.6227C1.40451 18.2391 0.208694 24.8949 1.62249 31.3629C3.02465 37.779 6.83372 43.2446 12.3477 46.7536C19.8392 51.5228 29.3959 51.8304 37.2888 47.5554C37.7033 47.3297 38.1193 47.0888 38.5243 46.8402C39.6466 46.145 40.7172 45.3583 41.7045 44.503C42.5492 43.7724 43.3461 42.9842 44.0736 42.1602C44.9444 41.1788 45.7472 40.1155 46.4601 38.9987C46.7203 38.5863 46.9438 38.2142 47.1421 37.8623C47.5781 37.0941 47.9798 36.2901 48.3368 35.4709C50.0207 31.6012 50.6939 27.3387 50.283 23.1445C49.5417 15.5788 45.4667 8.91711 39.1026 4.86743C35.4209 2.52356 31.174 1.21055 26.8212 1.07077C26.5523 1.06155 26.2801 1.05675 26.0061 1.05675H26.0054Z" fill="#371A45"/>
<path d="M25.4607 51.615C20.6862 51.615 15.9368 50.2865 11.7929 47.6483C6.0409 43.9881 2.06734 38.2854 0.604412 31.5912C-0.870161 24.8447 0.376603 17.9042 4.11398 12.048C5.57291 9.76574 7.3488 7.74459 9.39217 6.04062C9.61161 5.85437 9.85434 5.65852 10.1094 5.46268C10.7496 4.96403 11.4213 4.49009 12.1033 4.05599C13.6707 3.05869 15.3523 2.22847 17.1017 1.58782C18.8328 0.951602 20.636 0.500162 22.4614 0.246412C23.0476 0.164533 23.6361 0.102571 24.2103 0.0623692C25.1063 0.000775756 25.996 -0.0154525 26.8556 0.0144222C31.3918 0.160107 35.8188 1.52881 39.6569 3.97226C46.2962 8.19676 50.5474 15.1465 51.3207 23.0397C51.7494 27.415 51.0474 31.8612 49.2908 35.8972C48.9189 36.7507 48.5004 37.5886 48.0466 38.3879C47.8406 38.7534 47.6081 39.1407 47.3377 39.5696C46.5931 40.7358 45.7569 41.8438 44.85 42.8658C44.0927 43.7237 43.2622 44.545 42.3823 45.3063C41.3531 46.1977 40.2378 47.0176 39.067 47.7423C38.6449 48.002 38.2129 48.2517 37.7817 48.4866C33.9231 50.5764 29.6825 51.6146 25.4615 51.6146L25.4607 51.615ZM26.0048 1.1906C25.4403 1.1906 24.8668 1.21052 24.29 1.25035C23.7427 1.28871 23.1812 1.34772 22.6211 1.42591C20.8776 1.66822 19.1552 2.09938 17.5012 2.70757C15.8298 3.31981 14.2242 4.11279 12.7278 5.06472C12.0771 5.47891 11.4359 5.93145 10.8216 6.40945C10.5789 6.59607 10.3511 6.77938 10.1422 6.95678C8.18798 8.58661 6.49288 10.5159 5.09982 12.6953C1.53457 18.2815 0.345307 24.9008 1.7511 31.3341C3.14561 37.7148 6.93358 43.1509 12.4177 46.6403C19.8688 51.3841 29.375 51.6899 37.2264 47.4377C37.6387 47.2135 38.0525 46.9737 38.4557 46.7259C39.5718 46.0347 40.6366 45.2521 41.6188 44.4015C42.4591 43.6746 43.2517 42.8908 43.9751 42.0717C44.8416 41.095 45.64 40.0373 46.3493 38.9264C46.6077 38.5166 46.83 38.1459 47.0273 37.7963C47.4611 37.0321 47.8606 36.2321 48.2158 35.417C49.8905 31.5687 50.5598 27.3295 50.1515 23.1581C49.4142 15.6337 45.3613 9.00854 39.0321 4.98136C35.3704 2.65003 31.1465 1.34403 26.817 1.20498C26.5492 1.19576 26.2788 1.19097 26.0059 1.19097L26.0048 1.1906Z" fill="#371A45"/>
<path d="M25.4607 51.615C20.6862 51.615 15.9368 50.2865 11.7929 47.6483C6.0409 43.9881 2.06734 38.2854 0.604412 31.5912C-0.870161 24.8447 0.376603 17.9042 4.11398 12.048C5.57291 9.76574 7.3488 7.74459 9.39217 6.04062C9.61161 5.85437 9.85434 5.65852 10.1094 5.46268C10.7496 4.96403 11.4213 4.49009 12.1033 4.05599C13.6707 3.05869 15.3523 2.22847 17.1017 1.58782C18.8328 0.951602 20.636 0.500162 22.4614 0.246412C23.0476 0.164533 23.6361 0.102571 24.2103 0.0623692C25.1063 0.000775756 25.996 -0.0154525 26.8556 0.0144222C31.3918 0.160107 35.8188 1.52881 39.6569 3.97226C46.2962 8.19676 50.5474 15.1465 51.3207 23.0397C51.7494 27.415 51.0474 31.8612 49.2908 35.8972C48.9189 36.7507 48.5004 37.5886 48.0466 38.3879C47.8406 38.7534 47.6081 39.1407 47.3377 39.5696C46.5931 40.7358 45.7569 41.8438 44.85 42.8658C44.0927 43.7237 43.2622 44.545 42.3823 45.3063C41.3531 46.1977 40.2378 47.0176 39.067 47.7423C38.6449 48.002 38.2129 48.2517 37.7817 48.4866C33.9231 50.5764 29.6825 51.6146 25.4615 51.6146L25.4607 51.615ZM26.0048 1.1906C25.4403 1.1906 24.8668 1.21052 24.29 1.25035C23.7427 1.28871 23.1812 1.34772 22.6211 1.42591C20.8776 1.66822 19.1552 2.09938 17.5012 2.70757C15.8298 3.31981 14.2242 4.11279 12.7278 5.06472C12.0771 5.47891 11.4359 5.93145 10.8216 6.40945C10.5789 6.59607 10.3511 6.77938 10.1422 6.95678C8.18798 8.58661 6.49288 10.5159 5.09982 12.6953C1.53457 18.2815 0.345307 24.9008 1.7511 31.3341C3.14561 37.7148 6.93358 43.1509 12.4177 46.6403C19.8688 51.3841 29.375 51.6899 37.2264 47.4377C37.6387 47.2135 38.0525 46.9737 38.4557 46.7259C39.5718 46.0347 40.6366 45.2521 41.6188 44.4015C42.4591 43.6746 43.2517 42.8908 43.9751 42.0717C44.8416 41.095 45.64 40.0373 46.3493 38.9264C46.6077 38.5166 46.83 38.1459 47.0273 37.7963C47.4611 37.0321 47.8606 36.2321 48.2158 35.417C49.8905 31.5687 50.5598 27.3295 50.1515 23.1581C49.4142 15.6337 45.3613 9.00854 39.0321 4.98136C35.3704 2.65003 31.1465 1.34403 26.817 1.20498C26.5492 1.19576 26.2788 1.19097 26.0059 1.19097L26.0048 1.1906Z" fill="#371A45"/>
<path d="M25.4609 51.615C20.6864 51.615 15.9377 50.2869 11.7935 47.6491C6.04146 43.9885 2.0679 38.2858 0.604975 31.5916C-0.869598 24.8451 0.376802 17.905 4.11382 12.0492C5.57238 9.76653 7.34827 7.74575 9.39237 6.04179C9.59725 5.86586 9.82688 5.68071 10.1078 5.46347C10.76 4.95745 11.4317 4.48388 12.1035 4.05678C13.6745 3.05764 15.3562 2.22742 17.1022 1.58862C18.8374 0.950553 20.6409 0.498744 22.4619 0.246838C23.0595 0.163853 23.6479 0.101891 24.2116 0.0631641C25.1017 0.00120182 25.9915 -0.0146576 26.8558 0.0144794C27.5654 0.0373465 28.2761 0.0900882 28.9669 0.170123C30.9094 0.395474 32.8229 0.845807 34.6541 1.50858C36.3983 2.14001 38.0814 2.96912 39.6561 3.97269C46.2956 8.19756 50.5472 15.1477 51.3209 23.0405C51.7485 27.4158 51.0465 31.8616 49.2906 35.8973C48.9136 36.7611 48.4951 37.599 48.0464 38.3887C47.8444 38.7457 47.6192 39.1208 47.3379 39.5685C47.149 39.8651 46.9543 40.1564 46.7578 40.4371C46.177 41.2755 45.5343 42.0935 44.8498 42.8655C44.4695 43.2959 44.0689 43.72 43.6595 44.1246C43.2431 44.5355 42.8134 44.9327 42.3821 45.306C41.3552 46.1963 40.2398 47.0162 39.0665 47.7424C38.6382 48.0054 38.2066 48.2554 37.7815 48.4867C33.923 50.5764 29.6819 51.6147 25.4609 51.6147V51.615ZM26.0097 1.19066C25.4424 1.19066 24.8674 1.21094 24.2917 1.25114C23.7542 1.28803 23.1923 1.34704 22.6213 1.42633C20.8822 1.66718 19.1601 2.09833 17.5022 2.70836C15.834 3.31877 14.228 4.11174 12.728 5.06551C12.0871 5.47306 11.4456 5.92561 10.8211 6.41024C10.5551 6.61568 10.3404 6.78902 10.1446 6.95684C8.18782 8.58777 6.49271 10.5171 5.10002 12.6965C1.53514 18.2815 0.345869 24.9012 1.75166 31.3338C3.14618 37.7148 6.93414 43.1509 12.4183 46.6404C19.8698 51.3834 29.3755 51.6888 37.2269 47.437C37.6331 47.2161 38.0468 46.9767 38.4559 46.7256C39.5738 46.0333 40.6386 45.2506 41.619 44.4009C42.0317 44.0442 42.4422 43.6643 42.8399 43.2719C43.23 42.8865 43.6125 42.4823 43.9757 42.071C44.63 41.3334 45.2428 40.5529 45.7989 39.7507C45.9874 39.4815 46.1723 39.2049 46.3499 38.9261C46.6192 38.4975 46.8353 38.1375 47.0286 37.796C47.4572 37.0414 47.8568 36.241 48.2171 35.4163C49.8911 31.5688 50.5607 27.3295 50.1531 23.1581C49.4158 15.6341 45.3622 9.00897 39.0323 4.98105C37.5294 4.02359 35.9241 3.23246 34.26 2.6298C32.5132 1.99764 30.6878 1.56833 28.834 1.35294C28.175 1.27622 27.4966 1.22643 26.818 1.2043C26.5512 1.19508 26.2815 1.19029 26.0104 1.19029L26.0097 1.19066Z" fill="#371A45"/>
<path d="M30.5329 47.6888C26.7246 47.6888 23.477 46.7904 20.9671 45.7271C14.4225 42.9543 10.2863 38.6663 10.1134 38.4852L9.54572 37.8889L9.29208 37.1018C9.21493 36.8613 7.41502 31.1453 8.06351 23.9905C8.49766 19.2035 10.7794 7.46168 22.5614 1.82422C22.7918 1.71394 23.032 1.60735 23.2761 1.50703C26.4313 0.209881 30.0391 0.0656714 33.4351 1.10206C33.8442 1.22673 34.2543 1.36356 34.6542 1.50851C36.3985 2.13993 38.0812 2.96905 39.6562 3.97261C46.2958 8.19748 50.5474 15.1476 51.3211 23.0404C51.7486 27.4158 51.0467 31.8615 49.2908 35.8972C48.9138 36.761 48.4953 37.599 48.0466 38.3886C47.8446 38.7456 47.6193 39.1207 47.338 39.5685C47.1492 39.865 46.9545 40.1564 46.758 40.437C46.1772 41.2754 45.5345 42.0934 44.8496 42.8654C44.4697 43.2958 44.0686 43.7199 43.6592 44.1245L43.5985 44.1847L43.5235 44.2249C38.749 46.7819 34.358 47.6885 30.5329 47.6885V47.6888ZM10.5785 37.2593L10.9584 37.6583C11.124 37.8321 15.0965 41.9496 21.4206 44.6287C26.2049 46.6554 33.8099 48.0503 42.8998 43.2128C43.2691 42.8451 43.6309 42.4615 43.9751 42.0713C44.6294 41.3337 45.2423 40.5532 45.7983 39.751C45.9868 39.4818 46.1717 39.2052 46.3493 38.9263C46.6186 38.4978 46.8347 38.1378 47.028 37.7963C47.4567 37.0417 47.8562 36.2413 48.2165 35.4166C49.8905 31.5691 50.5601 27.3298 50.1525 23.1588C49.4152 15.6348 45.3616 9.00926 39.0317 4.98135C37.5288 4.02388 35.9236 3.23276 34.2594 2.6301C33.878 2.49179 33.4872 2.3616 33.097 2.24247C29.9565 1.28426 26.626 1.4152 23.7179 2.61092C23.4938 2.70313 23.2736 2.80086 23.0629 2.90155C11.8285 8.27641 9.64871 19.5163 9.23312 24.0993C8.60647 31.0129 10.335 36.5024 10.4089 36.733L10.5785 37.2589V37.2593Z" fill="#371A45"/>
<path d="M49.7919 32.8172C49.5051 33.775 49.1598 34.724 48.754 35.6572C48.3934 36.4826 47.9902 37.2947 47.5378 38.0925C47.3173 38.4801 47.0833 38.8655 46.8428 39.2495C46.6597 39.5364 46.4719 39.8171 46.2783 40.093C46.0294 40.2645 45.7725 40.4301 45.5068 40.5924C27.507 51.5674 12.6703 35.9832 12.6703 35.9832C12.6703 35.9832 10.0694 27.9181 12.5411 19.1907C12.5418 19.243 12.5429 19.2951 12.544 19.3467C12.663 25.218 15.8625 30.5796 20.9275 33.432C27.4259 37.0915 37.7646 40.1616 49.3083 33.1226C49.4724 33.0226 49.6329 32.9201 49.7915 32.8168L49.7919 32.8172Z" fill="#220F2D"/>
<path d="M14.7479 44.5483C13.9819 45.016 9.82671 45.9879 9.82671 45.9879C9.82671 45.9879 6.10316 43.661 4.12966 40.3353C3.86364 39.889 3.56123 39.0392 3.26537 38.0611C2.547 35.6999 1.87158 32.5874 1.87158 32.5874C1.87158 32.5874 3.29921 30.1554 5.43065 28.8546C8.72223 26.8467 13.4771 28.734 16.0489 33.0676C16.3218 33.5275 16.5584 33.9963 16.7614 34.468C18.4678 38.4554 17.6894 42.7529 14.7475 44.548L14.7479 44.5483Z" fill="white"/>
<g opacity="0.2">
<path d="M14.7482 44.5483C13.9821 45.016 9.82697 45.9878 9.82697 45.9878C9.82697 45.9878 6.10341 43.6609 4.12992 40.3353C3.8639 39.889 3.56149 39.0392 3.26562 38.0611L13.2863 35.2293C13.2863 35.2293 15.3559 36.643 16.762 34.4684C18.4684 38.4557 17.69 42.7533 14.7482 44.5483Z" fill="#371A45"/>
</g>
<path d="M9.72344 46.6234L9.5182 46.495C9.36135 46.3969 5.65017 44.053 3.62609 40.6429C2.69702 39.078 1.43788 33.362 1.29741 32.715L1.24756 32.4849L1.36656 32.2824C1.42806 32.1777 2.89572 29.7062 5.12868 28.3445C8.69248 26.1717 13.8175 28.1523 16.553 32.7604C17.8638 34.9682 18.4421 37.45 18.1815 39.7481C17.9144 42.1045 16.8026 43.99 15.0508 45.0584C14.2458 45.5493 10.6682 46.4021 9.95926 46.568L9.72417 46.623L9.72344 46.6234ZM2.49723 32.6981C2.91137 34.5647 3.96089 38.8976 4.63267 40.0292C6.25208 42.7573 9.15392 44.8246 9.93633 45.3513C11.5266 44.9721 13.9699 44.3282 14.4448 44.0386C15.8768 43.1653 16.7895 41.5937 17.0141 39.6128C17.2451 37.5743 16.724 35.3588 15.546 33.3745C13.1442 29.3292 8.7427 27.5301 5.73387 29.365C4.09554 30.3638 2.87425 32.1161 2.49723 32.6981Z" fill="#371A45"/>
<path d="M12.0634 45.2736C15.074 43.438 15.6073 38.7366 13.2544 34.7727C10.9016 30.8087 6.55361 29.0833 3.543 30.9189C0.532382 32.7544 -0.000840068 37.4558 2.35201 41.4198C4.70486 45.3837 9.05281 47.1091 12.0634 45.2736Z" fill="white"/>
<g opacity="0.2">
<path d="M12.0648 45.2719C9.17863 47.0308 5.06351 45.519 2.65332 41.8979C5.16504 43.1235 7.87838 43.2176 10.0571 41.8894C12.2359 40.5613 13.4244 38.0876 13.5332 35.2654C15.5602 39.1196 14.9525 43.5126 12.0648 45.2719Z" fill="#371A45"/>
</g>
<path d="M9.39916 46.5956C6.64871 46.5956 3.67227 44.7951 1.85016 41.7257C-0.665932 37.4872 -0.0418219 32.41 3.24103 30.4076C4.8568 29.4225 6.8525 29.3185 8.86057 30.1152C10.8148 30.8904 12.5546 32.4351 13.7588 34.464C14.9634 36.4928 15.4947 38.774 15.2552 40.8874C15.0089 43.0586 13.9837 44.7969 12.3676 45.782C11.4618 46.3345 10.4465 46.596 9.39879 46.596L9.39916 46.5956ZM6.22657 30.7776C5.36628 30.7776 4.55694 30.9948 3.84695 31.4282C1.11869 33.0919 0.674357 37.4359 2.85674 41.112C5.03912 44.7881 9.03452 46.4256 11.7624 44.7615C13.0587 43.9711 13.8847 42.5471 14.0885 40.7513C14.2985 38.8976 13.8243 36.8827 12.7526 35.0777C11.6809 33.2727 10.147 31.904 8.43261 31.2238C7.68149 30.9258 6.93693 30.7776 6.22657 30.7776Z" fill="#371A45"/>
<path d="M9.39916 46.5956C6.64871 46.5956 3.67227 44.7951 1.85016 41.7257C-0.665932 37.4872 -0.0418219 32.41 3.24103 30.4076C4.8568 29.4225 6.8525 29.3185 8.86057 30.1152C10.8148 30.8904 12.5546 32.4351 13.7588 34.464C14.9634 36.4928 15.4947 38.774 15.2552 40.8874C15.0089 43.0586 13.9837 44.7969 12.3676 45.782C11.4618 46.3345 10.4465 46.596 9.39879 46.596L9.39916 46.5956ZM6.22657 30.7776C5.36628 30.7776 4.55694 30.9948 3.84695 31.4282C1.11869 33.0919 0.674357 37.4359 2.85674 41.112C5.03912 44.7881 9.03452 46.4256 11.7624 44.7615C13.0587 43.9711 13.8847 42.5471 14.0885 40.7513C14.2985 38.8976 13.8243 36.8827 12.7526 35.0777C11.6809 33.2727 10.147 31.904 8.43261 31.2238C7.68149 30.9258 6.93693 30.7776 6.22657 30.7776Z" fill="#371A45"/>
<g opacity="0.5">
<path d="M19.8946 12.8439C19.8946 12.8439 29.175 8.82008 36.7233 11.4538C36.7313 11.4568 36.7393 11.4594 36.747 11.4623C38.3351 12.0181 39.7409 12.9955 40.8243 14.2809C42.257 15.9808 42.9939 17.3642 43.5954 18.6075C45.4234 22.3898 45.5704 24.5102 45.5704 24.5102C46.7618 21.4537 46.8808 18.5891 45.3895 15.4231C45.2418 15.1115 45.0777 14.7958 44.899 14.4767C44.8582 14.403 44.816 14.331 44.7723 14.2591C44.7738 14.2576 44.7723 14.2562 44.7691 14.2551C44.3618 13.6351 43.7956 12.841 43.082 11.9993C40.9309 9.45925 37.4446 6.48026 32.9394 6.51346C24.5155 6.57579 19.3905 12.602 19.8938 12.8439H19.8946Z" fill="white"/>
</g>
<g opacity="0.5">
<path d="M20.2293 29.4339C21.836 29.1345 22.8637 27.3753 22.5249 25.5047C22.1861 23.634 20.609 22.3603 19.0024 22.6597C17.3957 22.9591 16.3679 24.7182 16.7067 26.5889C17.0455 28.4595 18.6226 29.7333 20.2293 29.4339Z" fill="white"/>
</g>
<g opacity="0.5">
<path d="M20.9083 33.6066C21.58 33.546 22.0689 32.8626 22.0003 32.08C21.9317 31.2974 21.3316 30.7121 20.66 30.7727C19.9883 30.8332 19.4994 31.5167 19.568 32.2993C19.6366 33.0819 20.2367 33.6672 20.9083 33.6066Z" fill="white"/>
</g>
<path d="M8.95508 57.5024C10.2535 58.6679 13.0811 59.4992 14.5652 60.0008L8.95508 57.5024Z" fill="white"/>
<path d="M9.15049 57.2797C9.52423 57.5759 9.96165 57.8123 10.4125 58.0203C10.8649 58.2276 11.3351 58.4068 11.8129 58.5691C12.7707 58.8963 13.7489 59.1544 14.7515 59.4358C15.0644 59.5236 15.2478 59.8522 15.1612 60.1694C15.0746 60.4866 14.7504 60.6725 14.4374 60.5847C14.4196 60.5799 14.4021 60.574 14.385 60.5674L14.3803 60.5655C13.4316 60.1971 12.4475 59.8334 11.4915 59.4008C11.0126 59.1847 10.5385 58.9501 10.077 58.6823C9.61666 58.4127 9.16432 58.1129 8.7611 57.7256C8.6432 57.6124 8.63846 57.4239 8.75019 57.3044C8.85499 57.1923 9.0253 57.1812 9.14321 57.2738L9.15085 57.2797H9.15049Z" fill="#371A45"/>
<path d="M3.26941 67.9841C3.03651 67.9841 2.81634 67.8428 2.7239 67.6104C2.05794 65.929 2.34689 63.1447 4.18756 61.076C5.43687 59.6719 8.38638 57.5644 14.1053 59.2227C14.4171 59.313 14.5976 59.6428 14.5085 59.9588C14.4193 60.2749 14.0943 60.4582 13.7821 60.3675C9.99851 59.2702 6.90053 59.8054 5.05986 61.8734C3.55763 63.5619 3.2967 65.8611 3.81382 67.1671C3.93464 67.4725 3.78871 67.8192 3.48739 67.9416C3.4157 67.9708 3.34146 67.9848 3.26868 67.9848L3.26941 67.9841Z" fill="#371A45"/>
<path d="M48.6448 56.424C48.4385 56.424 48.2383 56.3138 48.131 56.1183C45.3652 51.0831 45.4926 45.9225 45.4992 45.7057C45.5093 45.377 45.7834 45.1218 46.1047 45.1296C46.4286 45.1399 46.6833 45.4143 46.6731 45.7429C46.6717 45.7931 46.5552 50.8021 49.1572 55.5396C49.3151 55.8269 49.2132 56.1895 48.9298 56.3492C48.8391 56.4004 48.7413 56.4244 48.6445 56.4244L48.6448 56.424Z" fill="#371A45"/>
<path d="M32.1503 89.1018C29.2427 89.1018 26.9202 88.6231 26.7521 88.5873C26.4344 88.5202 26.2309 88.2048 26.2972 87.8832C26.3634 87.5612 26.6746 87.3536 26.9919 87.4218C27.0614 87.4362 33.9812 88.8588 38.7248 86.7354C39.0214 86.6027 39.3682 86.7388 39.4996 87.0394C39.6306 87.3399 39.4963 87.6918 39.1997 87.8246C36.9827 88.8171 34.3928 89.1018 32.1507 89.1018H32.1503Z" fill="#371A45"/>
<path d="M19.2782 88.1395C15.234 88.1395 12.6543 87.1987 12.5047 87.1426C12.2005 87.0286 12.0447 86.6864 12.1572 86.378C12.2692 86.0701 12.607 85.9122 12.9108 86.0254C12.9596 86.0435 17.8407 87.8105 24.6266 86.3858C24.9439 86.3194 25.2551 86.5259 25.321 86.8479C25.3868 87.1699 25.1827 87.4852 24.865 87.5516C22.8041 87.9843 20.9202 88.1395 19.2778 88.1395H19.2782Z" fill="#371A45"/>
<path d="M12.4416 94.4354C12.8216 94.1481 13.2193 93.9888 13.6043 93.8755C13.7968 93.8232 13.9883 93.783 14.1789 93.7453C14.3678 93.7199 14.5581 93.6834 14.7448 93.6683C15.4945 93.5923 16.2278 93.5963 16.9545 93.6273C17.6809 93.6594 18.3996 93.7269 19.1147 93.8062C19.8294 93.8862 20.5405 93.9821 21.249 94.085C21.4099 94.1083 21.5212 94.2591 21.4983 94.4221C21.4761 94.5778 21.3378 94.688 21.1854 94.677C20.4757 94.6239 19.7665 94.5781 19.059 94.5486C18.3516 94.5199 17.6452 94.5029 16.945 94.521C16.246 94.5394 15.5494 94.5863 14.8842 94.7013C14.7164 94.726 14.5581 94.7703 14.3951 94.8028C14.2383 94.8455 14.0821 94.8902 13.9337 94.9414C13.64 95.0484 13.3802 95.1904 13.1957 95.3493L13.1742 95.3678C12.9264 95.5806 12.5555 95.5496 12.3456 95.2988C12.1356 95.0477 12.1661 94.6718 12.4136 94.459C12.4227 94.4513 12.4329 94.4431 12.4424 94.4361L12.4416 94.4354Z" fill="#371A45"/>
<path d="M37.9139 94.9824C37.2938 94.781 36.6173 94.6655 35.9331 94.5999C35.2475 94.535 34.5492 94.5199 33.8515 94.5457H33.8501C33.6878 94.5516 33.5509 94.4232 33.5451 94.2584C33.5397 94.1075 33.6456 93.9788 33.7882 93.9537C34.5 93.8268 35.2209 93.7405 35.9531 93.707C36.6853 93.6753 37.4288 93.6922 38.1894 93.8246L38.1934 93.8254C38.514 93.8811 38.7294 94.1898 38.6741 94.5147C38.6192 94.8396 38.3146 95.058 37.994 95.0019C37.9674 94.9975 37.9386 94.9901 37.9139 94.982V94.9824Z" fill="#371A45"/>
<path d="M101.76 45.2981C101.723 43.2382 101.654 41.1865 101.484 39.1336C101.326 37.2338 101.12 35.3347 100.868 33.4386L100.821 33.0783C100.429 30.2018 99.9316 27.3364 99.3326 24.4932L99.2605 24.1505C98.6393 21.2335 97.9115 18.3419 97.0869 15.4939C96.4868 13.4218 95.9121 11.1569 94.835 9.27148C94.0395 7.87807 92.5019 8.07871 91.2348 8.66292C91.1256 8.71308 91.0182 8.76619 90.9116 8.82115L91.0576 9.1199C91.995 11.0437 92.5125 13.2245 93.0704 15.2826C93.8277 18.0686 94.5067 20.878 95.1498 23.6939C95.5763 25.565 96.0202 27.443 96.3434 29.3358C96.862 32.3823 97.2233 35.4642 97.5548 38.5372C97.9289 42.0093 98.318 45.5349 98.2681 49.035L98.2616 49.4208C98.5709 49.5241 98.8831 49.6074 99.1972 49.6517C99.7183 49.7266 100.261 49.6524 100.69 49.3268C101.845 48.4527 101.782 46.5872 101.76 45.2989L101.76 45.2981Z" fill="#9B8CA2"/>
<path d="M98.2687 49.0347C98.3182 45.5346 97.9296 42.009 97.5555 38.5369C97.2239 35.4638 96.8626 32.382 96.344 29.3355C96.0209 27.4427 95.5772 25.5646 95.1504 23.6936C94.5077 20.878 93.8283 18.0683 93.071 15.2822C92.5131 13.2238 91.9953 11.0433 91.0582 9.11955L90.9123 8.8208C89.5272 9.53005 88.3394 10.5856 87.1527 11.5851C81.2551 16.548 75.1403 21.5238 68.0018 24.533C67.1051 24.91 66.1939 25.2489 65.2695 25.548L65.3205 25.8903C65.9755 30.9587 66.8187 35.9979 67.7067 41.0294L67.77 41.3672C71.928 41.2835 76.0948 41.5609 80.1477 42.5511C83.7333 43.4264 87.1519 44.8415 90.5498 46.2681C92.5022 47.0884 94.4549 47.9083 96.4252 48.6814C97.0191 48.9156 97.6344 49.2102 98.2618 49.4197L98.2684 49.0339L98.2687 49.0347Z" fill="#F2F2F2"/>
<path d="M52.7144 47.808C54.9608 45.4187 56.5875 42.3394 58.0046 39.2623L58.2815 39.3756C60.3737 40.2323 62.4913 41.0091 64.6314 41.7014L64.9164 41.7936C64.0514 44.0356 63.1187 46.2154 61.9669 48.2889C60.8737 50.2599 59.8482 52.2571 58.4886 54.0071C57.9445 54.7086 57.4216 55.3681 56.5406 55.1059C55.4314 54.7732 54.57 53.6291 53.6722 52.8737C52.9699 52.2803 51.9487 51.5873 51.5863 50.6217C51.1354 49.4168 52.0139 48.5526 52.7137 47.8083L52.7144 47.808Z" fill="#F2F2F2"/>
<g style="mix-blend-mode:multiply">
<path d="M61.75 44.4406C62.0189 42.6485 59.4828 41.2134 57.772 40.4592L57.5013 40.3334C57.6723 39.9771 57.8401 39.6197 58.0046 39.2623L58.2815 39.3756C60.3736 40.2323 62.4912 41.0091 64.6314 41.7014L64.9164 41.7936C64.0513 44.0356 63.1186 46.2154 61.9668 48.2889C60.8737 50.2599 59.8481 52.2571 58.4886 54.0071C57.9445 54.7086 57.4216 55.3681 56.5405 55.1059C56.2418 55.0162 55.9619 54.8669 55.6934 54.6832L55.9012 54.3918C57.7647 51.7876 61.4497 46.437 61.7492 44.441L61.75 44.4406Z" fill="#E6E6E6"/>
</g>
<path d="M67.7069 41.0298C66.8189 35.9983 65.9754 30.9591 65.3207 25.8907L65.2698 25.5485C65.2137 25.5665 65.158 25.5861 65.102 25.6038C62.0328 25.9863 58.9697 26.4145 55.9136 26.8958C54.7982 27.0706 53.4149 27.1034 52.4458 27.768C51.4742 28.4338 51.3956 29.6726 51.3366 30.7573C51.2009 33.2484 51.6074 35.7601 52.4968 38.084C52.9517 39.2749 53.5387 40.415 54.2417 41.475C54.4936 41.8549 54.7512 42.2886 55.2054 42.4376C55.7607 42.6202 56.4835 42.4667 57.0497 42.4339C57.0624 42.4339 57.0741 42.4328 57.0872 42.4317L57.4271 42.4107C59.9803 42.2532 62.528 42.0087 65.066 41.6797L65.4019 41.6362C66.0147 41.5543 66.6261 41.4698 67.2385 41.3791C67.4157 41.3743 67.5933 41.371 67.7706 41.3673L67.7072 41.0294L67.7069 41.0298Z" fill="#9B8CA2"/>
<path d="M104.646 27.2232C104.942 28.4053 105.317 29.8828 104.535 30.9549C103.724 32.0717 102.059 32.4247 100.9 33.0392C100.884 33.0476 100.84 33.0661 100.821 33.0783C100.43 30.2018 99.932 27.3364 99.333 24.4932C100.36 24.5142 101.391 24.4895 102.414 24.5916C102.914 24.6407 103.363 24.6702 103.705 25.0733C104.221 25.683 104.455 26.459 104.646 27.2232Z" fill="#F2F2F2"/>
<g style="mix-blend-mode:multiply">
<path d="M100.654 31.8973C100.711 32.2908 100.767 32.6844 100.821 33.0779C100.839 33.0657 100.883 33.0473 100.9 33.0388C102.059 32.4243 103.723 32.071 104.535 30.9546C105.197 30.0465 105.029 28.8482 104.783 27.7845C104.239 30.1148 102.238 31.3075 100.654 31.8973H100.654Z" fill="#E6E6E6"/>
</g>
<path d="M60.3441 29.9397C59.8365 29.1338 58.0224 29.7748 57.3608 29.9157C56.7327 30.0216 55.7978 30.1042 55.3003 30.5752C54.9604 30.8953 54.9964 31.4685 55.4997 31.5998C55.7719 31.6709 56.1231 31.5828 56.3939 31.5525C56.9918 31.4873 57.5897 31.4024 58.181 31.2936C58.6079 31.2154 60.9213 30.8569 60.3441 29.9397Z" fill="#75667B"/>
<path d="M58.1614 32.4621C57.5104 32.6004 56.8415 32.6834 56.2006 32.8697C55.8451 32.9744 55.5631 33.0939 55.4855 33.4933C55.2563 34.6828 57.2512 34.117 57.7906 34.0167C58.4591 33.8931 59.1447 33.7629 59.8005 33.5837C60.1673 33.483 60.6142 33.3277 60.7437 32.9202C61.1357 31.6817 58.5759 32.3684 58.1614 32.4625V32.4621Z" fill="#75667B"/>
<g style="mix-blend-mode:multiply">
<path d="M52.7827 38.7837C53.1888 39.7219 53.6768 40.6244 54.2413 41.475C54.4931 41.8548 54.7508 42.2886 55.2049 42.4376C55.7602 42.6201 56.483 42.4667 57.0492 42.4339C57.062 42.4339 57.0736 42.4328 57.0867 42.4317L57.4266 42.4107C59.9798 42.2532 62.5276 42.0086 65.0655 41.6796L65.4014 41.6361C66.0142 41.5542 66.6256 41.4698 67.238 41.3791C67.4153 41.3743 67.5929 41.3709 67.7701 41.3673C71.9281 41.2835 76.0949 41.5609 80.1478 42.5512C83.7335 43.4264 87.1521 44.8416 90.5499 46.2682C92.5023 47.0884 94.455 47.9083 96.4253 48.6814C97.0192 48.9156 97.6345 49.2103 98.2619 49.4198C98.5713 49.523 98.8835 49.6064 99.1976 49.6507C99.7187 49.7255 100.261 49.6514 100.69 49.3257C101.845 48.4516 101.782 46.5861 101.76 45.2978C101.743 44.3455 101.718 43.3947 101.681 42.445C87.4978 34.2792 61.5927 37.4046 52.7827 38.7833V38.7837Z" fill="#E6E6E6"/>
</g>
</g>
<defs>
<clipPath id="clip0_43_45">
<rect width="105" height="104" fill="white" transform="translate(0.000488281)"/>
</clipPath>
</defs>
</svg>
