<svg width="82" height="103" viewBox="0 0 82 103" fill="none" xmlns="http://www.w3.org/2000/svg">
<path d="M63.6921 79.5987C63.3343 83.6655 59.9144 86.9133 55.686 86.9133H26.1C22.0127 86.9133 18.6831 83.8802 18.1418 80.0073C18.0606 79.441 18.041 78.8565 18.0875 78.2615L18.9433 67.2783L20.2112 50.9978C20.229 50.7648 20.2577 50.5336 20.2952 50.3066C20.5914 48.5038 21.4847 46.9129 22.7585 45.7338C24.1976 44.4014 26.1224 43.593 28.2232 43.593H53.5624C55.6377 43.593 57.5401 44.3818 58.9715 45.6841C60.2239 46.8213 61.1175 48.3537 61.4526 50.0946C61.5097 50.3906 61.5503 50.691 61.5745 50.9975L62.8301 67.1247L63.6978 78.2611C63.7338 78.7148 63.7307 79.1612 63.6918 79.598L63.6921 79.5987Z" fill="white"/>
<path d="M55.6859 87.5544H26.0994C23.6887 87.5544 21.3668 86.5403 19.7295 84.7725C18.0923 83.0046 17.2603 80.6134 17.4473 78.2124L19.5702 50.9491C19.9197 46.4648 23.7202 42.9518 28.2224 42.9518H53.5622C58.0648 42.9518 61.8653 46.4644 62.2144 50.9491L64.3373 78.2124C64.5243 80.6138 63.6923 83.0046 62.055 84.7725C60.4178 86.5403 58.0959 87.5544 55.6848 87.5544H55.6859ZM28.2227 44.2341C24.3862 44.2341 21.1476 47.2273 20.8504 51.0485L18.7274 78.3118C18.5657 80.3882 19.2562 82.3733 20.6718 83.9019C22.0874 85.4305 24.015 86.2721 26.0994 86.2721H55.6859C57.7706 86.2721 59.6982 85.4305 61.1138 83.9019C62.5295 82.3733 63.22 80.3882 63.0582 78.3121L60.9353 51.0488C60.6376 47.2277 57.3995 44.2345 53.5629 44.2345H28.2231L28.2227 44.2341Z" fill="#371A45"/>
<path d="M81.3106 63.4132C81.1632 65.3181 80.4818 67.1675 78.8337 68.5614C72.2169 74.1606 61.4061 67.6313 57.2527 61.8072C57.1158 61.6166 55.6798 58.9708 54.2344 55.7831C51.914 50.6586 49.5725 44.1283 52.5849 44.1283C57.4708 44.1283 66.9297 58.8431 75.4999 55.7275C79.028 54.4462 79.1376 54.314 79.1376 54.3031C79.1737 54.3706 81.652 59.0355 81.3106 63.4132Z" fill="white"/>
<g opacity="0.35">
<path d="M81.3108 63.4131C81.1634 65.318 80.482 67.1674 78.8339 68.5613C72.2172 74.1605 61.4063 67.6312 57.2529 61.8072C57.116 61.6165 55.68 58.9707 54.2346 55.783C54.5294 55.7501 54.8316 55.7319 55.1383 55.7319C60.8738 55.7319 63.2936 68.243 73.9479 67.5326C77.6998 67.2818 79.9586 65.5482 81.3105 63.4134L81.3108 63.4131Z" fill="#371A45"/>
</g>
<path d="M72.814 71.3398C72.288 71.3398 71.7481 71.3052 71.1942 71.2359C65.4234 70.5143 59.5493 66.1334 56.7296 62.1787C56.642 62.0562 48.937 48.1736 50.8299 44.506C51.0698 44.0411 51.5688 43.4871 52.5842 43.4871C54.7148 43.4871 57.3609 45.7527 60.4243 48.3761C64.8614 52.176 70.3839 56.9048 75.2807 55.1254C76.9068 54.5343 77.7826 54.1967 78.2521 54.0061L77.6551 52.8881L79.7987 53.9057L79.7868 54.16C80.4762 55.5151 84.7074 64.431 79.2483 69.05C77.4489 70.5727 75.2899 71.3394 72.814 71.3394V71.3398ZM52.5842 44.7694C52.199 44.7694 52.0656 44.9181 51.9788 45.0786C51.7039 45.5862 51.3643 47.4674 54.1332 53.9592C55.7562 57.7643 57.6232 61.2027 57.7807 61.4431C60.3673 65.0704 66.0074 69.2952 71.3535 69.9637C74.1466 70.3131 76.5227 69.6762 78.4188 68.072C82.7091 64.4418 79.7868 57.1962 78.8383 55.1516C78.2185 55.407 77.1698 55.8037 75.7195 56.3308C70.1175 58.3673 64.2802 53.3673 59.5889 49.3503C56.8385 46.9948 54.24 44.7698 52.5842 44.7698V44.7694Z" fill="#371A45"/>
<path d="M69.4066 70.8783C69.3282 70.8783 69.2487 70.864 69.1713 70.8335C66.0742 69.6135 65.126 65.5719 64.8368 63.2713C64.3851 59.6846 64.8872 55.0991 66.4853 53.9455C66.7728 53.738 67.174 53.8028 67.3817 54.0896C67.5893 54.3764 67.5245 54.7773 67.2374 54.9847C66.4531 55.551 65.6036 59.0808 66.1106 63.1111C66.5427 66.5465 67.8302 68.9265 69.6426 69.6404C69.9724 69.7702 70.1342 70.1427 70.0043 70.4719C69.9048 70.7241 69.6629 70.878 69.4069 70.878L69.4066 70.8783Z" fill="#371A45"/>
<path d="M76.6549 60.3107C72.7045 62.2247 71.1719 60.1274 67.1691 59.4995C64.7705 59.1238 60.859 59.3281 61.4711 56.4664C61.6063 55.8294 62.0622 55.4838 62.6651 55.281C64.1553 54.7776 66.5419 55.1459 67.2083 54.1319C68.1316 52.7799 66.5602 50.5804 64.9061 49.1459C63.1753 47.6436 61.6984 46.3308 62.5254 44.9456C62.7947 44.4951 63.1238 44.2366 63.488 44.1194H63.4894C63.6263 44.0743 63.7691 44.0501 63.9148 44.0442C64.3192 44.0232 64.7478 44.1372 65.169 44.3265H65.1704C66.3599 44.8553 67.4954 45.9715 67.8652 46.3577C67.8652 46.3577 67.8665 46.3591 67.8683 46.3609C67.8834 46.3759 67.897 46.3895 67.9089 46.4028C67.9632 46.4599 67.9915 46.4913 67.9915 46.4913C67.9915 46.4913 67.8862 46.0495 67.8774 45.5165C67.8655 44.9141 67.9765 44.1928 68.5031 43.8654C70.3106 42.7387 71.8943 44.8931 72.7903 46.5907C72.909 46.8159 73.0113 47.0307 73.1002 47.235C73.61 48.4009 73.673 49.2001 73.673 49.2001C73.673 49.2001 73.7784 49.2288 73.9574 49.2872C74.8341 49.5727 77.4988 50.5794 78.5741 52.5578C78.6795 52.7516 78.768 52.9527 78.8402 53.1647C79.7968 55.9935 79.2131 59.0717 76.6553 60.311L76.6549 60.3107Z" fill="white"/>
<g opacity="0.35">
<path d="M69.8727 51.943C69.8727 51.943 67.2546 45.9909 63.7836 44.2815C63.6481 44.2153 63.5521 44.1611 63.4888 44.1192C63.6257 44.074 63.7685 44.0499 63.9142 44.0439C64.2524 44.1041 64.7129 44.2122 65.1684 44.3262H65.1698C66.3593 44.8551 67.4948 45.9713 67.8646 46.3575C67.8646 46.3575 67.866 46.3589 67.8677 46.3606C68.7819 47.8959 69.964 50.2322 69.8723 51.943H69.8727Z" fill="#371A45"/>
</g>
<g opacity="0.35">
<path d="M73.9568 49.287L72.6816 50.851L70.8244 52.0724C70.8244 52.0724 69.8786 52.4632 69.8786 51.7391C69.8786 49.5158 68.7221 47.5839 67.9087 46.403C67.963 46.46 67.9913 46.4915 67.9913 46.4915C67.9913 46.4915 67.886 46.0497 67.8772 45.5166C69.7764 46.7979 69.7554 49.6973 70.9224 48.9299C72.1028 48.1547 72.1826 47.3121 73.1 47.2351C73.6098 48.401 73.6728 49.2003 73.6728 49.2003C73.6728 49.2003 73.7782 49.229 73.9572 49.2874L73.9568 49.287Z" fill="#371A45"/>
</g>
<g opacity="0.35">
<path d="M76.6549 60.3108C72.7045 62.2248 71.1719 60.1275 67.1691 59.4996C64.7705 59.1239 60.859 59.3282 61.4711 56.4665C61.6063 55.8295 62.0622 55.4839 62.6651 55.2811C62.656 56.1342 61.8937 57.1108 64.2443 57.7086C68.0987 58.6898 70.1618 58.6853 71.4114 58.1294C73.5876 57.1605 70.4083 54.6605 70.5721 52.5275C70.7224 50.5473 76.8475 52.9182 76.8475 52.9182L78.5737 52.5576C78.6791 52.7513 78.7677 52.9525 78.8398 53.1645C79.7964 55.9932 79.2127 59.0714 76.6549 60.3108Z" fill="#371A45"/>
</g>
<path d="M73.092 61.7145C73.0717 61.7145 73.0514 61.7134 73.0311 61.7117C72.0594 61.6201 71.1742 61.315 70.2376 60.9925C69.2897 60.6658 68.3097 60.3283 67.0691 60.1334C66.6713 60.0712 66.2263 60.025 65.7553 59.976C64.0225 59.7962 62.0585 59.5926 61.1912 58.4002C60.7857 57.8433 60.6688 57.1472 60.8428 56.3319C61.2062 54.6312 63.0666 54.4591 64.5617 54.3205C65.4371 54.2394 66.4297 54.1477 66.672 53.7794C67.3009 52.857 66.0131 50.9555 64.4854 49.6302C62.7024 48.0837 60.8589 46.4845 61.9734 44.6166C62.5133 43.7116 63.2444 43.4612 63.7623 43.4101C64.992 43.2898 66.3261 44.1447 67.2645 44.9202C67.3426 44.308 67.5807 43.6833 68.1623 43.3209C68.8027 42.9221 69.4725 42.813 70.1539 42.997C71.288 43.3031 72.3661 44.4116 73.3584 46.2917C73.9089 47.3348 74.1452 48.2082 74.2443 48.706C75.3851 49.0866 78.5686 50.3609 79.4475 52.9598C79.9727 54.5129 80.0568 56.1255 79.6846 57.5009C79.2658 59.0473 78.3151 60.2184 76.9356 60.8872C76.6159 61.0418 76.2325 60.9086 76.078 60.5903C75.9233 60.2716 76.0563 59.8882 76.3753 59.7336C77.4111 59.2317 78.1268 58.3439 78.4457 57.1661C78.7525 56.0331 78.6765 54.685 78.2322 53.3702C77.3984 50.9045 73.5444 49.8299 73.5055 49.8194C73.2443 49.7484 73.0552 49.521 73.0339 49.2513C73.0332 49.2443 72.9376 48.2425 72.2236 46.8902C71.4277 45.3819 70.5737 44.4389 69.8199 44.2353C69.4879 44.1457 69.1773 44.201 68.8426 44.4095C68.4392 44.661 68.4697 45.7128 68.6175 46.3442C68.684 46.6289 68.5495 46.9234 68.2897 47.0588C68.0303 47.1942 67.7123 47.1379 67.5159 46.9203C66.6836 46.0007 64.9686 44.5802 63.888 44.6865C63.6776 44.7071 63.3645 44.7908 63.0767 45.2731C62.5501 46.156 63.5757 47.1424 65.3275 48.6619C67.179 50.2682 68.9217 52.7591 67.7393 54.4926C67.164 55.3678 65.9014 55.4847 64.6807 55.5976C63.2217 55.7327 62.2535 55.8754 62.0987 56.5995C62.0025 57.0503 62.0455 57.3928 62.2301 57.6464C62.7612 58.3761 64.4955 58.5562 65.8887 58.7007C66.3769 58.7514 66.838 58.7993 67.2687 58.8668C68.6217 59.0791 69.7029 59.4517 70.6567 59.7805C71.5562 60.0904 72.3332 60.3583 73.1519 60.4353C73.5048 60.4685 73.7639 60.7812 73.7307 61.1338C73.6995 61.4658 73.4197 61.7148 73.0923 61.7148L73.092 61.7145Z" fill="#371A45"/>
<path d="M69.5528 51.9126C69.5524 51.8242 69.5447 51.6996 69.5342 51.5901C69.5216 51.4768 69.5097 51.3631 69.4891 51.2491C69.4541 51.0214 69.4015 50.7944 69.3434 50.5698C69.2247 50.12 69.0643 49.6806 68.8802 49.2525C68.6925 48.8254 68.4761 48.4109 68.2373 48.0093C68.1217 47.8071 67.9866 47.6144 67.863 47.4171L67.4572 46.8455L67.4393 46.8203C67.2338 46.5307 67.3017 46.1295 67.5916 45.9242C67.8815 45.7188 68.2832 45.7867 68.4887 46.0763C68.5024 46.0956 68.515 46.1159 68.5262 46.1358C68.6505 46.359 68.7776 46.5797 68.898 46.8039C69.0097 47.0341 69.1316 47.2572 69.2335 47.4912C69.4449 47.9554 69.6302 48.4315 69.7828 48.9184C69.9324 49.4067 70.0539 49.9034 70.1295 50.4099C70.1663 50.6635 70.196 50.9178 70.2072 51.1756C70.2191 51.438 70.223 51.6807 70.1915 51.9725C70.1726 52.1481 70.015 52.2754 69.8389 52.2565C69.675 52.239 69.5531 52.1008 69.5528 51.9399V51.9116V51.9126Z" fill="#371A45"/>
<path d="M76.4728 50.845C76.4728 50.845 75.5691 51.3543 74.9028 52.2092C74.2277 53.0746 73.8758 54.5451 72.3176 54.2674C71.2395 54.0736 70.5553 52.4991 71.2437 50.824C71.5504 50.0775 72.1296 49.3111 73.068 48.6367C73.068 48.6367 74.3569 47.9126 75.4231 48.5738C76.1132 49.0019 76.3706 49.5892 76.4592 50.0611C76.5404 50.5057 76.4728 50.8453 76.4728 50.8453V50.845Z" fill="white"/>
<g opacity="0.35">
<path d="M76.4728 50.845C76.4728 50.845 75.5691 51.3543 74.9028 52.2092C74.2277 53.0746 73.8758 54.5451 72.3176 54.2674C71.2395 54.0736 70.5553 52.4991 71.2437 50.824C71.5112 51.3662 71.4783 52.5457 72.2829 52.6401C73.4258 52.7737 74.1433 49.5619 76.4592 50.0607C76.5404 50.5053 76.4728 50.845 76.4728 50.845Z" fill="#371A45"/>
</g>
<path d="M72.6914 54.9432C72.5387 54.9432 72.377 54.9288 72.2043 54.898C71.3342 54.7424 70.6472 54.0001 70.4112 52.9612C70.1087 51.6282 70.5492 49.655 72.6931 48.1159C72.7124 48.1022 72.7324 48.0893 72.753 48.0777C72.8192 48.0407 74.3882 47.1777 75.7618 48.0288C77.4611 49.0817 77.1169 50.8953 77.1015 50.9719C77.0647 51.1545 76.9502 51.3119 76.7881 51.4036C76.7685 51.4148 75.9786 51.8713 75.4085 52.6027C75.2758 52.773 75.1491 52.9857 75.0146 53.2113C74.5952 53.9162 73.9834 54.9432 72.691 54.9432H72.6914ZM73.4074 49.1827C71.8027 50.3511 71.4529 51.752 71.6634 52.6779C71.7814 53.1977 72.0825 53.5737 72.4309 53.636C73.1224 53.7591 73.3868 53.4383 73.912 52.5558C74.0605 52.3064 74.2142 52.0486 74.3963 51.8149C74.8942 51.1762 75.5045 50.7138 75.8609 50.4738C75.8578 50.1321 75.7478 49.529 75.0857 49.1187C74.426 48.7098 73.564 49.1047 73.4081 49.1827H73.4074Z" fill="#371A45"/>
<path d="M78.8114 52.9707C78.774 53.3191 78.7015 53.564 78.7015 53.564C78.7015 53.564 78.1962 53.4016 77.5285 54.2565C76.8534 55.1219 76.8096 55.789 75.4997 55.7274C74.6604 55.6883 73.7735 54.6892 73.978 53.4107C74.0998 52.6475 74.6083 51.7867 75.7448 50.9709C75.7448 50.9709 77.0561 50.2108 78.1013 50.908C78.838 51.3991 78.8773 52.3502 78.8111 52.9707H78.8114Z" fill="white"/>
<g opacity="0.35">
<path d="M78.8114 52.9707C78.774 53.3191 78.7015 53.564 78.7015 53.564C78.7015 53.564 78.1962 53.4017 77.5285 54.2566C76.8534 55.1219 76.8096 55.789 75.4997 55.7274C74.6604 55.6883 73.7735 54.6893 73.978 53.4108C74.7511 53.6857 74.3386 54.6872 75.5428 54.6119C76.5859 54.5469 76.921 51.2294 78.8114 52.9707Z" fill="#371A45"/>
</g>
<path d="M75.656 56.3724C75.5961 56.3724 75.5345 56.371 75.4707 56.3682C74.5642 56.3259 73.7221 55.5931 73.4231 54.586C73.2217 53.9078 73.0081 52.1465 75.3713 50.4504C75.3881 50.4381 75.4059 50.427 75.4238 50.4165C75.4914 50.3769 77.0965 49.4671 78.4578 50.3748C79.9838 51.3924 79.3465 53.6486 79.3185 53.7441C79.2698 53.9102 79.1564 54.0498 79.0034 54.1309C78.8742 54.1995 78.7264 54.2215 78.5839 54.1949C78.5118 54.2072 78.3055 54.3051 78.0356 54.6514C77.9014 54.8232 77.7929 54.9904 77.6879 55.1516C77.2971 55.7526 76.8937 56.3731 75.656 56.3731V56.3724ZM76.0884 51.5145C74.9182 52.3655 74.3954 53.3505 74.6538 54.2212C74.8093 54.7448 75.2218 55.0726 75.5306 55.0869C76.1773 55.1177 76.2624 54.9897 76.6115 54.4524C76.7256 54.2768 76.8549 54.0778 77.0226 53.8626C77.4379 53.3299 77.8374 53.085 78.162 52.9805C78.2232 52.5121 78.2313 51.7649 77.7453 51.4407C77.1119 51.0188 76.2417 51.4351 76.0884 51.5141V51.5145ZM78.5062 54.1753C78.5062 54.1753 78.5062 54.1753 78.5069 54.1753C78.5069 54.1753 78.5065 54.1753 78.5062 54.1753Z" fill="#371A45"/>
<path d="M0.68975 63.4132C0.837162 65.3181 1.51855 67.1675 3.16669 68.5614C9.78343 74.1606 20.5942 67.6313 24.7477 61.8072C24.8846 61.6166 26.3206 58.9708 27.766 55.7831C30.0864 50.6586 32.4278 44.1283 29.4155 44.1283C24.5296 44.1283 15.0707 58.8431 6.50045 55.7275C2.97236 54.4462 2.86277 54.314 2.86277 54.3031C2.8267 54.3706 0.348356 59.0355 0.68975 63.4132Z" fill="white"/>
<g opacity="0.35">
<path d="M0.689697 63.4131C0.837109 65.318 1.5185 67.1674 3.16664 68.5613C9.78338 74.1605 20.5942 67.6312 24.7476 61.8072C24.8846 61.6165 26.3205 58.9707 27.7659 55.783C27.4711 55.7501 27.1689 55.7319 26.8622 55.7319C21.1268 55.7319 18.7069 68.243 8.0526 67.5326C4.30077 67.2818 2.04197 65.5482 0.690047 63.4134L0.689697 63.4131Z" fill="#371A45"/>
</g>
<path d="M9.18591 71.3398C6.70966 71.3398 4.551 70.573 2.7516 69.0504C-2.70721 64.4314 1.52328 55.5165 2.21307 54.1607L2.20081 53.9071L4.34512 52.8881L3.74777 54.0064C4.21731 54.1971 5.09303 54.5346 6.71912 55.1258C11.6159 56.9055 17.1381 52.1767 21.5752 48.3769C24.639 45.7534 27.2847 43.4874 29.4157 43.4874C30.4311 43.4874 30.9304 44.0415 31.1703 44.5064C33.0639 48.1768 25.3575 62.057 25.2703 62.179C22.4506 66.1335 16.5765 70.5146 10.8057 71.2363C10.2518 71.3055 9.71148 71.3401 9.18591 71.3401V71.3398ZM3.16162 55.1513C2.21342 57.1959 -0.709264 64.4415 3.5811 68.0717C5.47749 69.6762 7.85535 70.3125 10.6464 69.9634C15.9928 69.2949 21.6326 65.0701 24.2251 61.4343C24.3767 61.2024 26.2437 57.7646 27.8666 53.9589C30.6353 47.467 30.296 45.5858 30.0211 45.0783C29.9339 44.9177 29.8008 44.7691 29.4157 44.7691C27.7598 44.7691 25.1617 46.9941 22.411 49.3496C18.4666 52.7272 13.7105 56.7992 8.96672 56.7999C8.06859 56.7999 7.17221 56.654 6.28038 56.3301C4.82972 55.803 3.78103 55.4067 3.16162 55.151V55.1513Z" fill="#371A45"/>
<path d="M12.593 70.8783C12.3371 70.8783 12.0955 70.7244 11.9957 70.4722C11.8654 70.1427 12.0276 69.7705 12.3574 69.6408C14.1698 68.9268 15.4573 66.5468 15.8893 63.1112C16.3963 59.0812 15.5469 55.5511 14.7626 54.9851C14.4754 54.7777 14.4107 54.3768 14.6183 54.09C14.8259 53.8031 15.2272 53.7384 15.5147 53.9458C17.1124 55.0995 17.6145 59.6846 17.1632 63.2714C16.8736 65.572 15.9254 69.6135 12.8283 70.8339C12.751 70.8643 12.6715 70.8787 12.593 70.8787V70.8783Z" fill="#371A45"/>
<path d="M5.3452 60.3107C9.29557 62.2247 10.8282 60.1274 14.8311 59.4995C17.2296 59.1238 21.1411 59.3281 20.529 56.4664C20.3938 55.8294 19.938 55.4838 19.335 55.281C17.8448 54.7776 15.4582 55.1459 14.7918 54.1319C13.8685 52.7799 15.44 50.5804 17.0941 49.1459C18.8248 47.6436 20.3018 46.3308 19.4747 44.9456C19.2054 44.4951 18.8763 44.2366 18.5122 44.1194H18.5108C18.3738 44.0743 18.231 44.0501 18.0853 44.0442C17.6809 44.0232 17.2523 44.1372 16.8311 44.3265H16.8297C15.6402 44.8553 14.5047 45.9715 14.135 46.3577C14.135 46.3577 14.1336 46.3591 14.1318 46.3609C14.1168 46.3759 14.1031 46.3895 14.0912 46.4028C14.0369 46.4599 14.0086 46.4913 14.0086 46.4913C14.0086 46.4913 14.1139 46.0495 14.1227 45.5165C14.1346 44.9141 14.0236 44.1928 13.497 43.8654C11.6895 42.7387 10.1058 44.8931 9.20978 46.5907C9.09108 46.8159 8.98884 47.0307 8.8999 47.235C8.39009 48.4009 8.32706 49.2001 8.32706 49.2001C8.32706 49.2001 8.22166 49.2288 8.04274 49.2872C7.16597 49.5727 4.50135 50.5794 3.42604 52.5578C3.32065 52.7516 3.23206 52.9527 3.15993 53.1647C2.20333 55.9935 2.78702 59.0717 5.34485 60.311L5.3452 60.3107Z" fill="white"/>
<g opacity="0.35">
<path d="M12.1275 51.943C12.1275 51.943 14.7455 45.9909 18.2165 44.2815C18.3521 44.2153 18.448 44.1611 18.5114 44.1192C18.3745 44.074 18.2316 44.0499 18.0859 44.0439C17.7477 44.1041 17.2873 44.2122 16.8317 44.3262H16.8303C15.6409 44.8551 14.5053 45.9713 14.1356 46.3575C14.1356 46.3575 14.1342 46.3589 14.1324 46.3606C13.2182 47.8959 12.0361 50.2322 12.1278 51.943H12.1275Z" fill="#371A45"/>
</g>
<g opacity="0.35">
<path d="M8.04332 49.287L9.31856 50.851L11.1757 52.0724C11.1757 52.0724 12.1215 52.4632 12.1215 51.7391C12.1215 49.5158 13.278 47.5839 14.0914 46.403C14.0371 46.46 14.0088 46.4915 14.0088 46.4915C14.0088 46.4915 14.1142 46.0497 14.1229 45.5166C12.2237 46.7979 12.2447 49.6973 11.0777 48.9299C9.89735 48.1547 9.81752 47.3121 8.90013 47.2351C8.39032 48.401 8.32729 49.2003 8.32729 49.2003C8.32729 49.2003 8.22189 49.229 8.04297 49.2874L8.04332 49.287Z" fill="#371A45"/>
</g>
<g opacity="0.35">
<path d="M5.3451 60.3108C9.29546 62.2248 10.8281 60.1275 14.8309 59.4996C17.2295 59.1239 21.141 59.3282 20.5289 56.4665C20.3937 55.8295 19.9378 55.4839 19.3349 55.2811C19.344 56.1342 20.1063 57.1108 17.7557 57.7086C13.9013 58.6898 11.8382 58.6853 10.5886 58.1294C8.41239 57.1605 11.5917 54.6605 11.4279 52.5275C11.2776 50.5473 5.15251 52.9182 5.15251 52.9182L3.42629 52.5576C3.32089 52.7513 3.23231 52.9525 3.16018 53.1645C2.20357 55.9932 2.78727 59.0714 5.3451 60.3108Z" fill="#371A45"/>
</g>
<path d="M8.90815 61.7144C8.58076 61.7144 8.30134 61.4653 8.26983 61.1334C8.23657 60.7808 8.49568 60.468 8.84862 60.4348C9.66727 60.3579 10.4442 60.0899 11.3438 59.78C12.2979 59.4512 13.3788 59.0787 14.7318 58.8663C15.1625 58.7988 15.6236 58.7509 16.1117 58.7002C17.505 58.5557 19.2393 58.3759 19.7704 57.6459C19.955 57.3923 19.9977 57.0499 19.9017 56.599C19.747 55.8749 18.7788 55.7322 17.3197 55.5972C16.0991 55.4842 14.8365 55.3673 14.2553 54.4831C13.0788 52.7586 14.8214 50.2677 16.673 48.6614C18.4248 47.1419 19.4507 46.1555 18.9238 45.2726C18.636 44.7903 18.3229 44.7067 18.1125 44.686C17.0368 44.579 15.3173 45.9999 14.4846 46.9202C14.2878 47.1374 13.9688 47.1941 13.7094 47.058C13.4499 46.9216 13.3158 46.6274 13.3837 46.3423C13.5311 45.712 13.5616 44.6601 13.1582 44.4086C12.8232 44.2002 12.5129 44.1449 12.1806 44.2344C11.4268 44.438 10.5731 45.3807 9.77687 46.8894C9.06291 48.242 8.96732 49.2435 8.96627 49.2536C8.94246 49.5212 8.75373 49.7489 8.49392 49.8189C8.45576 49.8294 4.60168 50.904 3.76763 53.3697C3.32294 54.6845 3.24731 56.0327 3.55404 57.1656C3.87303 58.3434 4.58873 59.2315 5.62446 59.7331C5.94345 59.8877 6.07651 60.2715 5.92174 60.5898C5.76698 60.9084 5.38286 61.0414 5.06423 60.8867C3.68465 60.2179 2.734 59.0472 2.31522 57.5004C1.94301 56.125 2.02705 54.5124 2.55192 52.9594C3.43114 50.3604 6.61468 49.0861 7.75546 48.7055C7.85456 48.2081 8.09126 47.3343 8.64134 46.2912C9.63366 44.4111 10.7118 43.3029 11.8455 42.9965C12.5269 42.8125 13.1968 42.9217 13.8372 43.3204C14.4191 43.6828 14.6569 44.3079 14.735 44.92C15.6734 44.1445 17.0085 43.29 18.2371 43.41C18.755 43.461 19.4861 43.7115 20.026 44.6164C21.1406 46.4847 19.2967 48.0836 17.5141 49.63C15.986 50.9554 14.6982 52.8569 15.3215 53.7705C15.5697 54.1476 16.562 54.2396 17.4377 54.3208C18.9329 54.4589 20.7932 54.6314 21.1567 56.3321C21.331 57.1474 21.2137 57.8435 20.8083 58.4004C19.9406 59.5929 17.977 59.7964 16.2441 59.9762C15.7731 60.0252 15.3281 60.0714 14.9303 60.1336C13.6898 60.3281 12.7097 60.666 11.7619 60.9927C10.8252 61.3156 9.94003 61.6206 8.96837 61.7119C8.94807 61.7137 8.92776 61.7147 8.90745 61.7147L8.90815 61.7144Z" fill="#371A45"/>
<path d="M11.8085 51.9734C11.7774 51.6817 11.7809 51.4389 11.7928 51.1766C11.804 50.9188 11.8338 50.6641 11.8705 50.4109C11.9462 49.9044 12.0677 49.4077 12.2172 48.9194C12.3702 48.4325 12.5554 47.9564 12.7665 47.4922C12.8688 47.2578 12.9903 47.0347 13.102 46.8049C13.2224 46.5806 13.3495 46.3599 13.4738 46.1367C13.6465 45.8265 14.0386 45.7152 14.3489 45.8877C14.6594 46.0605 14.7708 46.4519 14.5982 46.7618C14.5866 46.7825 14.5744 46.8021 14.5611 46.8206L14.5428 46.8465L14.137 47.418C14.0134 47.6153 13.8783 47.8077 13.7627 48.0102C13.5239 48.4115 13.3075 48.826 13.1198 49.2534C12.9357 49.6816 12.7753 50.1209 12.6566 50.5707C12.5985 50.7953 12.546 51.0227 12.5109 51.25C12.4903 51.3641 12.4784 51.4778 12.4658 51.5911C12.4549 51.7006 12.4476 51.8251 12.4472 51.9136V51.9419C12.4462 52.1186 12.3019 52.2613 12.1251 52.2603C11.9602 52.2596 11.825 52.1343 11.8082 51.9745L11.8085 51.9734Z" fill="#371A45"/>
<path d="M5.52734 50.845C5.52734 50.845 6.43107 51.3543 7.0974 52.2092C7.77249 53.0746 8.12438 54.5451 9.68254 54.2674C10.7606 54.0736 11.4448 52.4991 10.7564 50.824C10.4497 50.0775 9.87057 49.3111 8.93218 48.6367C8.93218 48.6367 7.64328 47.9126 6.57708 48.5738C5.88694 49.0019 5.62958 49.5892 5.541 50.0611C5.45976 50.5057 5.52734 50.8453 5.52734 50.8453V50.845Z" fill="white"/>
<g opacity="0.35">
<path d="M5.52734 50.845C5.52734 50.845 6.43107 51.3543 7.0974 52.2092C7.77249 53.0746 8.12438 54.5451 9.68254 54.2674C10.7606 54.0736 11.4448 52.4991 10.7564 50.824C10.4889 51.3662 10.5218 52.5457 9.71721 52.6401C8.57432 52.7737 7.85687 49.5619 5.541 50.0607C5.45976 50.5053 5.52734 50.845 5.52734 50.845Z" fill="#371A45"/>
</g>
<path d="M9.30881 54.9432C8.01641 54.9432 7.4047 53.9162 6.98523 53.2114C6.85112 52.9861 6.72437 52.7731 6.59166 52.6031C6.01707 51.8661 5.21978 51.4082 5.21173 51.4036C5.05031 51.312 4.93546 51.1542 4.8987 50.9723C4.88329 50.8957 4.5391 49.0821 6.23836 48.0292C7.61269 47.1778 9.181 48.0411 9.24718 48.0781C9.26784 48.0897 9.2878 48.1026 9.30706 48.1163C11.451 49.6554 11.8915 51.6286 11.589 52.9616C11.3533 54.0005 10.666 54.7428 9.79586 54.8984C9.62359 54.9292 9.46112 54.9436 9.30881 54.9436V54.9432ZM6.13962 50.4735C6.49607 50.7135 7.10603 51.1759 7.60429 51.815C7.78637 52.0487 7.93973 52.3065 8.08854 52.5559C8.61376 53.438 8.87742 53.7592 9.56932 53.636C9.91771 53.5738 10.2188 53.1977 10.3368 52.6779C10.5469 51.7524 10.1975 50.3515 8.5931 49.1828C8.43799 49.1055 7.57418 48.7099 6.91485 49.1184C6.25272 49.5287 6.14277 50.1318 6.13962 50.4732V50.4735Z" fill="#371A45"/>
<path d="M3.18897 52.9707C3.22643 53.3191 3.29891 53.564 3.29891 53.564C3.29891 53.564 3.80417 53.4016 4.47191 54.2565C5.14699 55.1219 5.19076 55.789 6.50066 55.7274C7.33997 55.6883 8.22689 54.6892 8.0224 53.4107C7.90055 52.6475 7.39214 51.7867 6.25556 50.9709C6.25556 50.9709 4.94426 50.2108 3.89907 50.908C3.16235 51.3991 3.12314 52.3502 3.18932 52.9707H3.18897Z" fill="white"/>
<g opacity="0.35">
<path d="M3.18896 52.9707C3.22643 53.3191 3.29891 53.564 3.29891 53.564C3.29891 53.564 3.80417 53.4017 4.47191 54.2566C5.14699 55.1219 5.19076 55.789 6.50066 55.7274C7.33996 55.6883 8.22689 54.6893 8.0224 53.4108C7.24928 53.6857 7.66175 54.6872 6.45759 54.6119C5.4145 54.5469 5.07941 51.2294 3.18896 52.9707Z" fill="#371A45"/>
</g>
<path d="M6.34447 56.3724C5.10634 56.3724 4.70298 55.7519 4.31256 55.1509C4.20752 54.9897 4.09897 54.8225 3.96486 54.6507C3.8066 54.4479 3.49532 54.1747 3.49427 54.1747C3.32935 54.2278 3.15007 54.2117 2.99706 54.1306C2.84404 54.0494 2.73059 53.9099 2.68192 53.7437C2.65391 53.6482 2.01664 51.3921 3.54259 50.3745C4.90431 49.4664 6.50869 50.3766 6.57661 50.4161C6.59482 50.4266 6.61233 50.4378 6.62914 50.4501C8.99193 52.1466 8.77869 53.9074 8.57736 54.586C8.27833 55.5931 7.43658 56.3259 6.5297 56.3682C6.46597 56.371 6.40434 56.3724 6.34447 56.3724ZM3.83811 52.9805C4.1627 53.0851 4.56222 53.3303 4.97749 53.8626C5.14556 54.0781 5.27477 54.2772 5.38891 54.4524C5.73801 54.9893 5.8217 55.1174 6.46982 55.0869C6.77865 55.0726 7.19112 54.7448 7.34659 54.2212C7.605 53.3505 7.08223 52.3652 5.91133 51.5141C5.76532 51.4386 4.891 51.0171 4.25514 51.441C3.76878 51.7653 3.77683 52.5124 3.83811 52.9808V52.9805Z" fill="#371A45"/>
<path d="M17.7502 80.0868C18.7992 73.6202 21.1025 61.3134 24.7517 51.4894C26.2007 47.5895 30.1192 44.9661 34.5359 44.9661H47.3646C51.7814 44.9661 55.7002 47.5895 57.1488 51.4894C60.798 61.313 63.1013 73.6202 64.1503 80.0868C64.6237 83.0051 62.8408 85.8371 59.8757 86.8532C56.118 88.1412 50.0236 89.4844 40.9503 89.4844C31.8769 89.4844 25.7826 88.1412 22.0248 86.8532C19.0597 85.8371 17.2764 83.0051 17.7502 80.0868Z" fill="white"/>
<path d="M58.8686 55.894C59.8325 57.8969 60.5041 60.0037 61.0934 62.1259C61.6876 64.2484 62.1701 66.3986 62.6158 68.5541C62.8413 69.6314 63.0637 70.7092 63.2745 71.789C63.4902 72.8677 63.6988 73.9479 63.9005 75.0295C64.0998 76.1114 64.2948 77.194 64.4783 78.2787L64.75 79.9063C64.8368 80.488 64.8785 81.1106 64.8081 81.7112C64.7374 82.3143 64.5893 82.9065 64.3655 83.4696C64.1306 84.0279 63.8256 84.5537 63.4618 85.035C63.0927 85.5128 62.6578 85.9347 62.1869 86.3072C61.7111 86.6759 61.1855 86.9714 60.641 87.2198C60.0713 87.4535 59.5573 87.6151 59.0205 87.7812C58.4876 87.9474 57.9508 88.0985 57.4123 88.2405C56.3352 88.5266 55.2491 88.7683 54.157 88.9733C51.9745 89.3948 49.77 89.6617 47.5626 89.8461C45.355 90.0272 43.1417 90.1045 40.9308 90.1042C38.72 90.1042 36.5067 90.0237 34.299 89.8425C32.0921 89.6579 29.8875 89.3882 27.7054 88.966C26.614 88.7592 25.5271 88.5182 24.4504 88.2307C23.9119 88.0876 23.3755 87.9362 22.8426 87.7697C22.3082 87.6042 21.789 87.4391 21.2207 87.2034C20.6762 86.9536 20.1562 86.6489 19.6793 86.2823C19.2098 85.9067 18.7819 85.4789 18.4114 85.0024C18.0515 84.518 17.7504 83.9898 17.5203 83.4298C17.2945 82.8673 17.1558 82.2716 17.0889 81.6689C17.0158 81.0697 17.0711 80.4415 17.1565 79.8682L17.4286 78.2406C17.6124 77.1559 17.8074 76.0732 18.007 74.9917C18.4097 72.8289 18.8432 70.6714 19.3131 68.5208C19.5466 67.4452 19.7924 66.3724 20.0449 65.301C20.1688 64.7647 20.2893 64.2275 20.4195 63.6923C20.547 63.1564 20.6625 62.6177 20.7998 62.0843C21.0621 61.0139 21.3719 59.9554 21.721 58.9088C21.8114 58.6479 21.9059 58.3883 22.0057 58.1305C22.102 57.8717 22.2028 57.6143 22.3128 57.3596C22.5348 56.851 22.7676 56.3466 23.0443 55.8572C23.1017 55.7554 23.2309 55.7198 23.3324 55.7771C23.4063 55.8188 23.4455 55.8982 23.4392 55.9776V55.9811C23.3947 56.5411 23.3072 57.0857 23.2085 57.6261C23.1598 57.8965 23.1125 58.1676 23.0548 58.4352C23.0019 58.7042 22.9438 58.9715 22.8818 59.2376C22.636 60.3028 22.3688 61.3612 22.0831 62.4155C21.7935 63.4688 21.5124 64.5251 21.2557 65.5878C21.0004 66.6508 20.7595 67.7174 20.5263 68.7856C20.0596 70.9222 19.6286 73.0675 19.228 75.2184C19.0295 76.294 18.8358 77.371 18.6527 78.4494L18.3824 80.0679C18.3561 80.2089 18.3495 80.3208 18.3337 80.4453C18.3201 80.5671 18.3012 80.6888 18.3043 80.8116C18.3029 80.934 18.2973 81.0564 18.298 81.1788L18.3246 81.5454C18.3799 82.0316 18.4902 82.5133 18.6734 82.9701C18.8614 83.4245 19.1065 83.8555 19.4003 84.2528C19.7049 84.6429 20.0568 84.9948 20.4437 85.3057C20.8383 85.6079 21.2697 85.8605 21.7228 86.07C22.1692 86.2554 22.6959 86.4282 23.2102 86.586C23.7253 86.7469 24.2456 86.8938 24.7684 87.0327C25.8136 87.3118 26.8724 87.5465 27.9383 87.7487C30.0689 88.1611 32.2311 88.4259 34.3999 88.6074C36.5698 88.7855 38.7498 88.8652 40.9308 88.8649C43.1119 88.8649 45.2923 88.7886 47.4621 88.6106C49.631 88.4294 51.7935 88.1674 53.9241 87.7557C54.9903 87.5556 56.0492 87.3198 57.0947 87.0421C57.6175 86.9043 58.1381 86.7577 58.6532 86.5972C59.1658 86.4404 59.6984 86.2673 60.1448 86.0837C60.5976 85.8752 61.0349 85.631 61.4278 85.3264C61.8161 85.0175 62.175 84.6715 62.4775 84.2798C62.7745 83.8848 63.0234 83.456 63.2153 83.003C63.396 82.5455 63.515 82.0666 63.5731 81.5801C63.6295 81.0882 63.5963 80.6087 63.5238 80.1064L63.2538 78.4879C63.0714 77.4091 62.8774 76.3324 62.6792 75.2568C62.4775 74.1816 62.2734 73.107 62.0542 72.0352C61.8319 70.9642 61.606 69.8941 61.362 68.8283C60.8718 66.6967 60.3476 64.5755 59.8444 62.4491C59.3357 60.3231 58.8206 58.2037 58.4732 56.0188C58.455 55.9048 58.5324 55.7978 58.6466 55.7796C58.7401 55.7645 58.829 55.8146 58.8682 55.8954L58.8686 55.894Z" fill="#371A45"/>
<path d="M65.5431 32.5683C65.2601 32.5812 65.0206 32.3626 65.0077 32.0803L64.3301 17.3463C64.3172 17.0636 64.536 16.8244 64.8186 16.8114C67.7854 16.6754 70.3009 18.9676 70.4371 21.9314L70.6682 26.9558C70.8044 29.9196 68.5099 32.4325 65.5431 32.5686V32.5683Z" fill="white"/>
<path d="M65.5185 32.6896C65.3602 32.6896 65.21 32.6316 65.0923 32.5245C64.9673 32.4105 64.8942 32.2548 64.8865 32.0862L64.2089 17.3522C64.2012 17.1832 64.2597 17.0216 64.3738 16.8968C64.488 16.7719 64.6438 16.6988 64.8129 16.6911C66.2793 16.6232 67.6855 17.1311 68.7707 18.12C69.8558 19.1089 70.4902 20.4605 70.5578 21.9261L70.7889 26.9505C70.9279 29.9759 68.5774 32.5504 65.5486 32.6893C65.5388 32.6896 65.5286 32.69 65.5188 32.69L65.5185 32.6896ZM65.071 16.9265C64.9887 16.9265 64.9068 16.9282 64.8238 16.9321C64.7194 16.937 64.6228 16.9821 64.5524 17.0594C64.482 17.1367 64.4456 17.2368 64.4505 17.341L65.1281 32.075C65.133 32.1796 65.1781 32.2758 65.2555 32.3461C65.3329 32.4164 65.433 32.4525 65.5374 32.4479C68.4328 32.315 70.6804 29.8538 70.5473 26.9614L70.3162 21.9369C70.2518 20.5357 69.645 19.2435 68.6078 18.298C67.6316 17.4085 66.3837 16.9265 65.071 16.9265Z" fill="#371A45"/>
<g opacity="0.35">
<path d="M70.5595 24.5995L70.6683 26.9561C70.8042 29.9188 68.51 32.4321 65.5425 32.5696C65.26 32.5828 65.0201 32.3628 65.0068 32.0805L64.8254 28.1639C64.913 28.3388 65.0975 28.4539 65.3051 28.4458L65.6549 28.4287C67.9995 28.3216 69.9253 26.7287 70.5595 24.5995Z" fill="#371A45"/>
</g>
<path d="M65.5179 33.2409C65.2217 33.2409 64.9405 33.1321 64.7206 32.9317C64.4867 32.7186 64.3498 32.4273 64.3351 32.1114L63.6576 17.3774C63.6429 17.0615 63.7525 16.7586 63.966 16.5249C64.1793 16.2913 64.471 16.1545 64.7871 16.1401C66.401 16.0656 67.9479 16.6243 69.1423 17.7125C70.3363 18.8003 71.0345 20.2877 71.1087 21.9006L71.3398 26.925C71.4928 30.254 68.9059 33.087 65.5736 33.2398C65.555 33.2405 65.5365 33.2412 65.5179 33.2412V33.2409ZM65.0088 17.4781L65.6716 31.8872C68.1853 31.6871 70.1122 29.5219 69.9956 26.9866L69.7645 21.9621C69.7067 20.7081 69.164 19.5513 68.2354 18.7055C67.3467 17.8958 66.2056 17.4631 65.0091 17.4781H65.0088Z" fill="#371A45"/>
<path d="M16.1362 19.0451C16.4192 19.0322 16.6587 19.2508 16.6716 19.5331L17.3492 34.2671C17.3621 34.5497 17.1433 34.789 16.8607 34.8019C13.8939 34.938 11.3784 32.6458 11.2422 29.682L11.0111 24.6576C10.8749 21.6937 13.1694 19.1808 16.1362 19.0448V19.0451Z" fill="white"/>
<path d="M16.6077 34.9285C15.2348 34.9285 13.9294 34.4241 12.9084 33.4937C11.8233 32.5048 11.1888 31.1532 11.1212 29.6876L10.8901 24.6631C10.7511 21.6378 13.1017 19.0629 16.1305 18.9241C16.2982 18.9146 16.4613 18.9748 16.5863 19.0888C16.7113 19.2028 16.7845 19.3585 16.7922 19.5271L17.4698 34.2611C17.4775 34.4301 17.419 34.5917 17.3048 34.7166C17.1907 34.8415 17.0349 34.9146 16.8658 34.9223C16.7796 34.9261 16.6935 34.9282 16.6077 34.9282V34.9285ZM16.1599 19.1651C16.1536 19.1651 16.1476 19.1651 16.1413 19.1654C13.2459 19.2983 10.9983 21.7595 11.1314 24.6523L11.3625 29.6767C11.4269 31.078 12.0337 32.3702 13.0709 33.3156C14.1083 34.2611 15.4522 34.7467 16.8546 34.6816C16.9589 34.6767 17.0555 34.6316 17.1259 34.5543C17.1963 34.477 17.2327 34.3769 17.2278 34.2727L16.5503 19.5387C16.5454 19.4341 16.5002 19.3379 16.4228 19.2676C16.35 19.2014 16.2572 19.1654 16.1595 19.1654L16.1599 19.1651Z" fill="#371A45"/>
<g opacity="0.35">
<path d="M17.1623 30.1795L17.3496 34.2668C17.3629 34.5491 17.1427 34.7887 16.8601 34.802C15.303 34.8727 13.8685 34.2756 12.8383 33.2619C11.908 32.3465 11.3075 31.09 11.2424 29.6831L11.145 27.5662C12.0726 29.3851 14.0085 30.5929 16.1836 30.4936L16.7218 30.4688C16.9183 30.4593 17.0804 30.3432 17.1623 30.1798V30.1795Z" fill="#371A45"/>
</g>
<path d="M16.607 35.4798C15.0961 35.4798 13.6601 34.9251 12.5365 33.9009C11.3425 32.813 10.6443 31.3257 10.5701 29.7128L10.339 24.6883C10.186 21.359 12.7728 18.5264 16.1052 18.3735C16.7663 18.3445 17.3136 18.8499 17.3437 19.5019L18.0212 34.236C18.0359 34.5518 17.9263 34.8548 17.7127 35.0884C17.4995 35.3221 17.2078 35.4589 16.8916 35.4732C16.7967 35.4774 16.7019 35.4798 16.6073 35.4798H16.607ZM16.0068 19.7265C13.4931 19.9266 11.5662 22.0918 11.6828 24.6271L11.9139 29.6516C11.9717 30.9056 12.5144 32.0624 13.443 32.9082C14.3321 33.7179 15.4725 34.1545 16.6693 34.1356L16.0065 19.7265H16.0068Z" fill="#371A45"/>
<g opacity="0.35">
<path d="M59.845 45.2864C59.4398 45.7523 59.019 46.2029 58.5809 46.6373C57.9661 47.2484 57.3183 47.8277 56.6422 48.374C55.4615 49.3269 54.1925 50.1755 52.8511 50.903C49.1028 52.9423 44.7837 54.054 40.2111 53.9389C36.2012 53.8382 32.434 52.8052 29.1129 51.0542C27.7319 50.3266 26.4269 49.4731 25.2147 48.5126C24.5305 47.9707 23.8764 47.3929 23.2538 46.7853C22.7794 46.3207 22.3224 45.8373 21.8872 45.3382C23.3956 43.9414 25.4132 43.0942 27.6153 43.0942H54.175C56.3501 43.0942 58.3442 43.9208 59.845 45.2861V45.2864Z" fill="#371A45"/>
</g>
<path d="M40.8425 50.9408C54.7379 50.9408 66.0023 39.6877 66.0023 25.8063C66.0023 11.925 54.7379 0.671875 40.8425 0.671875C26.9471 0.671875 15.6826 11.925 15.6826 25.8063C15.6826 39.6877 26.9471 50.9408 40.8425 50.9408Z" fill="white"/>
<path d="M40.8512 51.0618C40.6373 51.0618 40.4233 51.059 40.2083 51.0538C33.4578 50.8845 27.1772 48.0994 22.5238 43.211C17.8703 38.3227 15.4007 31.9169 15.5702 25.1732C15.7397 18.4295 18.5279 12.1553 23.4209 7.50649C28.3138 2.85703 34.7254 0.389576 41.4766 0.559226C48.2271 0.728527 54.5077 3.51359 59.1611 8.40196C63.8146 13.2903 66.2842 19.6961 66.1147 26.4398C65.7705 40.1461 54.4986 51.0615 40.8508 51.0615L40.8512 51.0618ZM40.826 0.792889C34.3773 0.792889 28.2777 3.22501 23.5872 7.68139C18.7408 12.2857 15.9792 18.4998 15.8114 25.1791C15.4651 38.9673 26.4122 50.4665 40.2143 50.8124C40.4265 50.8177 40.6397 50.8205 40.8512 50.8205C54.3694 50.8205 65.5324 40.0104 65.8731 26.4342L65.9939 26.4374L65.8731 26.4342C66.0408 19.7549 63.595 13.41 58.986 8.56882C54.3771 3.72696 48.1567 0.968485 41.4706 0.800584C41.2556 0.795337 41.0403 0.792539 40.826 0.792539V0.792889Z" fill="#371A45"/>
<g opacity="0.35">
<path d="M65.8406 22.9527C65.9723 24.0927 66.0241 25.2558 65.9947 26.437C65.6442 40.3134 54.1012 51.2805 40.2109 50.9335C26.3205 50.5833 15.3423 39.0524 15.6897 25.1757C15.6995 24.7766 15.7187 24.3775 15.7478 23.9846C17.1361 36.2586 27.4053 45.9388 40.1149 46.2578C53.6061 46.595 64.8805 36.2607 65.8406 22.9524V22.9527Z" fill="#371A45"/>
</g>
<path d="M40.8515 51.6131C40.6326 51.6131 40.4141 51.6103 40.1946 51.6051C33.2967 51.4323 26.8792 48.586 22.1238 43.5913C17.3685 38.5962 14.8453 32.0505 15.0186 25.1596C15.1916 18.2686 18.0404 11.8572 23.0405 7.10702C28.0403 2.35612 34.5961 -0.16415 41.4905 0.00829828C48.3884 0.181097 54.8059 3.02737 59.5613 8.02209C64.3163 13.0171 66.8398 19.5629 66.6665 26.4538C66.3149 40.4592 54.7968 51.6128 40.8511 51.6128L40.8515 51.6131ZM40.8266 1.34416C34.5197 1.34416 28.5546 3.72276 23.9677 8.08085C19.2281 12.5838 16.5274 18.6611 16.3635 25.1931C16.0249 38.6774 26.7307 49.9229 40.2286 50.2615C53.7204 50.6012 64.9833 39.9048 65.3222 26.4206L65.9945 26.4374L65.3222 26.4206C65.6608 12.9363 54.9551 1.69081 41.4572 1.35221C41.2468 1.34696 41.0363 1.34416 40.827 1.34416H40.8266Z" fill="#371A45"/>
<path d="M65.8976 27.0803C65.8486 31.9984 64.2046 36.5485 61.4339 40.299C59.3565 43.111 50.8836 47.9836 40.4814 47.9735C30.8363 47.964 22.113 42.7395 20.0923 39.8869C17.3969 36.0819 15.8444 31.4999 15.8937 26.5818C16.024 13.567 27.2711 8.28302 41.0798 8.42084C54.8886 8.55865 66.0279 14.0655 65.898 27.0806L65.8976 27.0803Z" fill="#371A45"/>
<path d="M40.5157 48.6458C40.5034 48.6458 40.4929 48.6458 40.4807 48.6458C30.4804 48.6356 21.6672 43.274 19.5429 40.2752C16.6661 36.2141 15.1716 31.4765 15.2207 26.5748C15.2847 20.1837 17.8993 15.2813 22.9925 12.0038C27.4335 9.1463 33.6853 7.67261 41.0861 7.74852C48.4826 7.82233 54.7082 9.41809 59.091 12.3637C64.1174 15.742 66.6339 20.6958 66.5702 27.0869C66.5211 31.9886 64.9322 36.695 61.9748 40.6981C59.9258 43.4716 51.5299 48.6454 40.5157 48.6454V48.6458ZM40.6067 9.09033C33.061 9.09033 16.7228 10.9086 16.5663 26.5884C16.5201 31.2054 17.929 35.6698 20.6413 39.4986C22.5667 42.2169 31.0778 47.2921 40.4821 47.3015H40.515C50.9221 47.3015 59.0434 42.4026 60.8922 39.9002C63.6804 36.1263 65.1787 31.6909 65.2245 27.074C65.2834 21.1635 62.9671 16.5896 58.3396 13.4792C54.1756 10.6808 48.2049 9.16379 41.0724 9.09278C40.9215 9.09138 40.7653 9.09033 40.6064 9.09033H40.6067Z" fill="#371A45"/>
<g opacity="0.5">
<path d="M60.955 25.8355C61.4175 23.4228 60.3737 21.1955 58.6237 20.8607C56.8737 20.526 55.0801 22.2105 54.6176 24.6232C54.1552 27.0359 55.1989 29.2632 56.949 29.598C58.699 29.9327 60.4926 28.2482 60.955 25.8355Z" fill="white"/>
</g>
<g opacity="0.5">
<path d="M55.4055 34.562C55.7689 33.4944 55.3201 32.3764 54.403 32.0649C53.4859 31.7534 52.4479 32.3663 52.0845 33.4339C51.7211 34.5015 52.17 35.6195 53.087 35.931C54.0041 36.2425 55.0421 35.6296 55.4055 34.562Z" fill="white"/>
</g>
<g opacity="0.35">
<path d="M61.1562 14.8899C64.1836 17.8341 65.949 21.8522 65.8972 27.0795C65.8482 31.9987 64.2036 36.5485 61.4342 40.2993C59.3561 43.1109 50.8825 47.9836 40.4807 47.9745C36.8077 47.9717 33.2698 47.2116 30.1829 46.1129C42.9696 45.8519 53.2912 39.8708 55.8672 36.3834C59.3845 31.623 61.4703 25.8476 61.5316 19.6069C61.5494 17.9391 61.4178 16.3678 61.1555 14.8902L61.1562 14.8899Z" fill="#111A28"/>
</g>
<path d="M63.8683 16.3199C63.7114 16.3199 63.5539 16.2664 63.4261 16.1579C63.4212 16.1537 63.4128 16.1467 63.4082 16.1425L63.3508 16.0911L63.3067 16.0278C59.134 10.0579 50.9881 6.57637 40.9589 6.47598C40.8153 6.47458 40.6717 6.47388 40.5289 6.47388C30.6404 6.47388 22.6073 9.89067 18.4437 15.8823L18.4048 15.933C18.1709 16.2129 17.7549 16.2562 17.4678 16.0271C17.1835 15.8001 17.1327 15.3894 17.3491 15.1005C21.8338 8.66045 30.4411 5.02993 40.9722 5.13172C51.4146 5.23596 59.9397 8.90775 64.3746 15.2079C64.5942 15.4535 64.5998 15.827 64.3795 16.0859C64.2475 16.2408 64.0588 16.3199 63.8683 16.3199Z" fill="#371A45"/>
<g opacity="0.5">
<path d="M21.4307 34.3802C21.4307 34.3802 17.5241 21.5008 24.5015 16.4533C31.4789 11.4057 41.4441 11.5261 41.2046 12.162C41.2046 12.162 30.1459 14.72 25.7421 23.39C22.3464 30.0757 21.4304 34.3802 21.4304 34.3802H21.4307Z" fill="white"/>
</g>
<path d="M51.4425 62.0363C55.8985 61.8341 58.2445 62.4203 60.6104 63.6485C62.0576 64.3998 63.2621 65.3681 63.3143 68.1164C63.3521 70.1123 62.1252 71.1019 62.1252 71.1019C62.1252 71.1019 56.8929 68.3609 50.5083 68.5876C49.1245 68.6365 48.968 62.1486 51.4425 62.0363Z" fill="white"/>
<g opacity="0.35">
<path d="M63.3148 68.1168C63.3522 70.1117 62.1253 71.102 62.1253 71.102C62.1253 71.102 56.8934 68.3617 50.5085 68.5873C49.6965 68.616 49.3085 66.3969 49.6243 64.5325C49.7791 65.3678 50.0862 65.9628 50.5085 65.9477C54.9732 65.7893 58.8738 67.0811 60.8165 67.8727C61.7734 68.2627 62.8708 67.7474 63.1547 66.7547C63.1579 66.7432 63.1614 66.7316 63.1646 66.7201C63.2517 67.1272 63.3043 67.59 63.3148 68.1172V68.1168Z" fill="#371A45"/>
</g>
<path d="M62.2 71.8655L61.8268 71.67C61.776 71.6434 56.661 69.0112 50.531 69.2288C50.517 69.2291 50.503 69.2295 50.489 69.2295C49.5558 69.2295 48.9553 68.114 48.879 66.2311C48.7873 63.9619 49.5411 61.4808 51.4134 61.3958C56.1978 61.1786 58.5935 61.8793 60.9066 63.0798C62.6976 64.0095 63.9014 65.2198 63.9557 68.1046C63.9991 70.388 62.588 71.5525 62.5278 71.6011L62.1997 71.8655H62.2ZM51.2723 67.9332C56.411 67.9332 60.6412 69.6933 61.984 70.3198C62.2728 69.9522 62.693 69.226 62.6724 68.1287C62.6251 65.6189 61.5768 64.8725 60.3145 64.2176C58.1905 63.1151 55.9709 62.4722 51.4715 62.6768C50.8952 62.703 50.5702 63.4635 50.4277 63.9144C49.927 65.4996 50.212 67.5673 50.5618 67.9443C50.8003 67.9367 51.0373 67.9332 51.2723 67.9332Z" fill="#371A45"/>
<path d="M30.4637 62.0363C26.0077 61.8341 23.6617 62.4203 21.2958 63.6485C19.8486 64.3998 18.6441 65.3681 18.5919 68.1164C18.5541 70.1123 19.781 71.1019 19.781 71.1019C19.781 71.1019 25.0133 68.3609 31.3979 68.5876C32.7817 68.6365 32.9382 62.1486 30.4637 62.0363Z" fill="white"/>
<path d="M19.7061 71.8649L19.3783 71.6008C19.3181 71.5525 17.9074 70.3877 17.9504 68.1046C18.0051 65.2195 19.2089 64.0092 20.9999 63.0798C23.3129 61.8789 25.709 61.1786 30.4927 61.3959C32.3653 61.4809 33.1192 63.962 33.0271 66.2311C32.9497 68.142 32.3243 69.2627 31.3751 69.2285C25.2475 69.0105 20.1297 71.6434 20.0786 71.67L19.7057 71.8649H19.7061ZM28.861 62.639C25.3865 62.639 23.4523 63.2515 21.592 64.2173C20.33 64.8725 19.2813 65.6189 19.2341 68.1284C19.2134 69.2243 19.6325 69.9501 19.9228 70.3195C21.3276 69.6639 25.889 67.7684 31.345 67.944C31.6951 67.5666 31.9794 65.4989 31.4787 63.9137C31.3362 63.4628 31.0113 62.7027 30.4353 62.6765C29.8772 62.6509 29.3537 62.6387 28.8614 62.6387L28.861 62.639Z" fill="#371A45"/>
<path d="M55.2767 93.2975C55.2536 93.3486 55.2357 93.4024 55.2231 93.4584L55.2767 93.2975Z" fill="#D66B09"/>
<g opacity="0.35">
<path d="M18.5416 68.1168C18.5041 70.1117 19.7311 71.102 19.7311 71.102C19.7311 71.102 24.963 68.3617 31.3479 68.5873C32.1599 68.616 32.5479 66.3969 32.232 64.5325C32.0773 65.3678 31.7702 65.9628 31.3479 65.9477C26.8832 65.7893 22.9825 67.0811 21.0399 67.8727C20.083 68.2627 18.9856 67.7474 18.7016 66.7547C18.6985 66.7432 18.695 66.7316 18.6918 66.7201C18.6046 67.1272 18.5521 67.59 18.5416 68.1172V68.1168Z" fill="#371A45"/>
</g>
<path d="M48.025 72.6561H33.8581C32.365 72.6561 31.0383 71.7043 30.5611 70.2911L29.8699 68.2434H52.0136L51.3217 70.2918C50.8444 71.705 49.5181 72.6564 48.025 72.6564V72.6561Z" fill="white"/>
<g opacity="0.35">
<path d="M48.025 72.6561H33.8581C32.365 72.6561 31.0383 71.7043 30.5611 70.2911L29.8699 68.2434H52.0136L51.3217 70.2918C50.8444 71.705 49.5181 72.6564 48.025 72.6564V72.6561Z" fill="#371A45"/>
</g>
<path d="M48.0248 73.2973H33.8582C32.0878 73.2973 30.5185 72.1713 29.9533 70.4958L29.2618 68.4481C29.196 68.2522 29.2282 68.0367 29.3486 67.8692C29.4691 67.7013 29.6631 67.6019 29.87 67.6019H52.0137C52.2203 67.6019 52.4146 67.7013 52.5351 67.8692C52.6555 68.0371 52.6881 68.2525 52.6219 68.4481L51.93 70.4961C51.3642 72.1713 49.7948 73.2969 48.0252 73.2969L48.0248 73.2973ZM30.7636 68.8846L31.1694 70.0862C31.5588 71.2398 32.6393 72.0149 33.8582 72.0149H48.0248C49.2433 72.0149 50.3239 71.2398 50.7136 70.0865L51.1198 68.8843H30.7639L30.7636 68.8846Z" fill="#371A45"/>
<path d="M49.1562 70.4047H32.7266C31.1334 70.4047 29.889 69.0297 30.049 67.4465L31.0095 57.9419C31.1481 56.5686 32.3054 55.5234 33.6871 55.5234H48.1958C49.5775 55.5234 50.7344 56.5686 50.8734 57.9419L51.8338 67.4465C51.9938 69.03 50.7494 70.4047 49.1562 70.4047Z" fill="white"/>
<path d="M49.1564 71.046H32.7267C31.7862 71.046 30.8853 70.6462 30.2543 69.9494C29.6237 69.2526 29.3163 68.3169 29.4105 67.3819L30.371 57.8773C30.5436 56.1699 31.969 54.8823 33.6868 54.8823H48.1956C49.9134 54.8823 51.3392 56.1699 51.5115 57.8773L52.4719 67.3819C52.5665 68.3165 52.259 69.2522 51.6281 69.9494C50.9974 70.6462 50.0962 71.046 49.1557 71.046H49.1564ZM33.6872 56.1647C32.6308 56.1647 31.7544 56.9563 31.6483 58.0063L30.6878 67.5109C30.629 68.0941 30.8132 68.6548 31.2064 69.0896C31.6 69.5244 32.1399 69.7636 32.7264 69.7636H49.156C49.7429 69.7636 50.2824 69.524 50.676 69.0896C51.0696 68.6548 51.2538 68.0941 51.1946 67.5109L50.2341 58.0063C50.128 56.9566 49.2516 56.1647 48.1952 56.1647H33.6865H33.6872Z" fill="#371A45"/>
<path d="M39.4139 71.0459C39.0595 71.0459 38.7721 70.7587 38.7721 70.4047V64.9846C38.7721 64.6107 38.5935 64.2532 38.2948 64.0286L36.4849 62.6676C35.8655 62.2017 35.4961 61.4615 35.4961 60.6871V55.5237C35.4961 55.1697 35.7836 54.8826 36.1379 54.8826C36.4923 54.8826 36.7797 55.1697 36.7797 55.5237V60.6871C36.7797 61.061 36.9583 61.4185 37.257 61.643L39.0669 63.0041C39.6863 63.4697 40.0561 64.2102 40.0561 64.9846V70.4047C40.0561 70.7587 39.7686 71.0459 39.4142 71.0459H39.4139Z" fill="#371A45"/>
<g opacity="0.35">
<path d="M51.0112 59.3061L52.1334 67.407C52.1334 69.056 50.7826 70.4055 49.132 70.4055H32.7496C31.1015 70.4055 29.7502 69.056 29.7502 67.407V64.0829C30.9169 69.7751 43.3087 68.7572 43.822 62.9643C44.0058 60.8883 49.2944 61.4437 49.5136 63.1116C49.812 65.3831 51.3186 66.8523 50.7062 57.4124C51.09 57.9154 51.0112 58.6282 51.0112 59.3061Z" fill="#371A45"/>
</g>
<path d="M49.3325 62.313C49.3325 63.7405 48.1742 64.8973 46.7456 64.8973C45.317 64.8973 44.1587 63.7402 44.1587 62.313C44.1587 61.9216 44.165 60.9222 44.165 60.9222C44.165 60.9222 45.7088 59.7284 46.7459 59.7284C47.7831 59.7284 49.3328 61.095 49.3328 61.095V62.313H49.3325Z" fill="#22A7F0"/>
<g opacity="0.35">
<path d="M49.3325 62.313C49.3325 63.7405 48.1742 64.8973 46.7456 64.8973C45.317 64.8973 44.1587 63.7402 44.1587 62.313C44.1587 61.9216 44.165 60.9222 44.165 60.9222C44.165 60.9222 45.7088 59.7284 46.7459 59.7284C47.7831 59.7284 49.3328 61.095 49.3328 61.095V62.313H49.3325Z" fill="#371A45"/>
</g>
<path d="M46.7451 65.3783C45.0532 65.3783 43.6768 64.0033 43.6768 62.3131C43.6768 61.9209 43.6831 60.9195 43.6831 60.9195L43.6845 60.6855L43.8697 60.542C44.0409 60.4095 45.577 59.2478 46.7451 59.2478C47.9132 59.2478 49.478 60.5826 49.6506 60.7348L49.8134 60.8782V62.3131C49.8134 64.0033 48.437 65.3783 46.7451 65.3783ZM44.6442 61.1657C44.6425 61.4861 44.6393 62.0437 44.6393 62.3131C44.6393 63.473 45.584 64.4167 46.7451 64.4167C47.9062 64.4167 48.8509 63.473 48.8509 62.3131V61.3179C48.2689 60.8411 47.3088 60.2097 46.7451 60.2097C46.1814 60.2097 45.2286 60.7495 44.6442 61.1657Z" fill="#371A45"/>
<path d="M48.5743 62.9222C49.5845 61.913 49.5845 60.2767 48.5743 59.2675C47.5641 58.2583 45.9261 58.2583 44.9159 59.2675C43.9056 60.2767 43.9056 61.913 44.9159 62.9222C45.9261 63.9314 47.5641 63.9314 48.5743 62.9222Z" fill="#22A7F0"/>
<g opacity="0.5">
<path d="M49.3322 61.095C49.3322 61.2482 49.3185 61.4001 49.2916 61.5456C49.0794 60.3332 48.0209 59.4122 46.7457 59.4122C45.4704 59.4122 44.4102 60.3332 44.1983 61.5456C44.1714 61.3997 44.1577 61.2482 44.1577 61.095C44.1577 59.6679 45.3171 58.5111 46.7457 58.5111C48.1743 58.5111 49.3322 59.6679 49.3322 61.095Z" fill="white"/>
</g>
<g opacity="0.35">
<path d="M49.3313 61.0947C49.3313 62.5218 48.1733 63.6786 46.7447 63.6786C45.3161 63.6786 44.1582 62.5218 44.1582 61.0947C44.1582 60.7644 44.2202 60.4496 44.3357 60.1593C44.7083 61.1233 45.6467 61.8058 46.7447 61.8058C47.8428 61.8058 48.7812 61.1233 49.1538 60.1593C49.269 60.4496 49.3313 60.7644 49.3313 61.0947Z" fill="#371A45"/>
</g>
<path d="M46.7451 64.1603C45.0532 64.1603 43.6768 62.7852 43.6768 61.095C43.6768 59.4048 45.0532 58.0298 46.7451 58.0298C48.437 58.0298 49.8134 59.4048 49.8134 61.095C49.8134 62.7852 48.437 64.1603 46.7451 64.1603ZM46.7451 58.9914C45.584 58.9914 44.6393 59.9351 44.6393 61.095C44.6393 62.255 45.584 63.1987 46.7451 63.1987C47.9062 63.1987 48.8509 62.255 48.8509 61.095C48.8509 59.9351 47.9062 58.9914 46.7451 58.9914Z" fill="#371A45"/>
<path fill-rule="evenodd" clip-rule="evenodd" d="M64.2033 42.976C57.126 52.9108 41.7004 71.678 41.7004 71.678L42.2709 72.1041L26.7015 92.9278L26.1311 92.5017L25.2638 93.6643L24.531 99.7548L25.287 100.32L26.043 100.885L31.6826 98.4534L32.5499 97.2908L31.9794 96.8647L47.5488 76.041L48.1192 76.4671C48.1192 76.4671 61.7546 56.3613 69.2818 46.7646C69.2818 46.7646 68.396 44.6943 67.3617 44.0412C66.4434 43.24 64.2033 42.976 64.2033 42.976Z" fill="url(#paint0_radial_89_10)"/>
<path fill-rule="evenodd" clip-rule="evenodd" d="M26.1313 92.5018L25.9829 91.9321C25.9829 91.9321 35.4442 81.0525 41.2554 71.5067C41.2554 71.5067 44.7756 72.7711 48.5276 76.6571C48.5276 76.6571 39.4095 87.495 33.0093 97.4159L32.5501 97.2909C32.5501 97.2909 27.7314 94.1321 26.1313 92.5018Z" fill="url(#paint1_linear_89_10)"/>
<path fill-rule="evenodd" clip-rule="evenodd" d="M24.7352 99.9076L23.905 101.015C23.7195 101.265 23.803 101.649 24.0998 101.867C24.3966 102.084 24.7862 102.061 24.9717 101.811L25.8019 100.704L24.7352 99.9076Z" fill="url(#paint2_radial_89_10)"/>
<g style="mix-blend-mode:multiply" opacity="0.5">
<path fill-rule="evenodd" clip-rule="evenodd" d="M41.9743 71.3446C41.9743 71.3446 46.0974 72.873 48.7131 75.5918L48.1798 76.3051C48.1798 76.3051 45.091 72.8452 41.7007 71.6781L41.9697 71.3492L41.9743 71.3446Z" fill="#614881"/>
</g>
<path style="mix-blend-mode:screen" opacity="0.5" fill-rule="evenodd" clip-rule="evenodd" d="M65.465 43.2122C66.2488 43.4437 44.6132 70.6869 44.1169 71.377C43.6206 72.0671 42.4473 71.5344 42.4473 71.5344C42.4473 71.5344 44.5807 72.4886 45.5732 73.137C45.5732 73.137 44.5529 72.1365 44.743 71.6271C44.9332 71.1176 65.5856 44.2265 65.9659 43.9578C66.3462 43.6938 67.1486 43.8745 67.1486 43.8745C67.1486 43.8745 66.2581 43.3743 65.4557 43.2075L65.465 43.2122Z" fill="url(#paint3_linear_89_10)"/>
<path fill-rule="evenodd" clip-rule="evenodd" d="M60.6602 47.7837C60.6602 47.7837 63.5124 48.8119 65.6737 51.5214L65.8917 51.2296C65.8917 51.2296 64.287 48.6452 60.906 47.4595L60.6602 47.7837Z" fill="url(#paint4_linear_89_10)"/>
<path style="mix-blend-mode:screen" opacity="0.5" fill-rule="evenodd" clip-rule="evenodd" d="M25.2638 93.6643C25.2638 93.6643 27.3555 96.925 31.6826 98.4534L26.043 100.885L24.5264 99.7549L25.2592 93.6643H25.2638Z" fill="url(#paint5_linear_89_10)"/>
<path fill-rule="evenodd" clip-rule="evenodd" d="M27.7361 90.7047C27.7361 90.7047 28.1813 91.4179 28.979 91.9598L39.5348 77.8427L38.38 76.9812C38.38 76.9812 32.1653 84.9198 27.7361 90.7047Z" fill="url(#paint6_linear_89_10)"/>
<path fill-rule="evenodd" clip-rule="evenodd" d="M27.9214 90.9641L32.8514 84.3687L33.3384 84.4057L33.1668 83.9518L38.5375 77.097L39.5346 77.8381L28.9788 91.9552C28.9788 91.9552 28.1115 91.4134 27.926 90.9641H27.9214Z" fill="url(#paint7_radial_89_10)"/>
<g style="mix-blend-mode:multiply">
<path fill-rule="evenodd" clip-rule="evenodd" d="M39.5348 77.838L34.1178 84.6048L33.167 83.9517L33.3432 84.4056L32.8563 84.3732L33.8163 85.0865L28.979 91.9598L39.5348 77.838Z" fill="#614881"/>
</g>
<path fill-rule="evenodd" clip-rule="evenodd" d="M28.7158 54.8566C28.7158 54.8566 26.0027 53.7867 23.3545 55.6764C21.0031 57.9135 21.5411 60.7758 21.5411 60.7758L35.1347 75.3006L37.4536 72.7115L40.4636 70.9052L28.7158 54.8566Z" fill="url(#paint8_linear_89_10)"/>
<path fill-rule="evenodd" clip-rule="evenodd" d="M35.5613 79.5107C35.5613 79.5107 37.8246 73.0681 44.7211 71.9519C44.7211 71.9519 42.2769 75.597 35.5613 79.5107Z" fill="url(#paint9_linear_89_10)"/>
<path fill-rule="evenodd" clip-rule="evenodd" d="M35.5612 79.5106L33.6597 77.5653C33.6597 77.5653 35.9879 70.6781 43.4688 69.812L44.721 71.9518C44.721 71.9518 38.279 73.4015 35.5612 79.5106Z" fill="url(#paint10_linear_89_10)"/>
<path style="mix-blend-mode:screen" fill-rule="evenodd" clip-rule="evenodd" d="M21.5406 60.776C21.5406 60.776 23.405 56.1444 28.7154 54.8568C28.7154 54.8568 25.4921 53.9953 23.3586 55.6719C21.2252 57.3486 21.5406 60.776 21.5406 60.776Z" fill="url(#paint11_linear_89_10)"/>
<path fill-rule="evenodd" clip-rule="evenodd" d="M55.1005 92.595C55.3231 92.6413 55.5272 92.6923 55.7127 92.7525H55.7173C58.8665 93.7251 57.0901 96.0733 57.0901 96.0733C57.0901 96.0733 54.7619 97.222 54.1776 94.6561C54.1034 94.3272 54.057 93.9335 54.0477 93.4704C54.0477 93.4704 52.007 93.3824 50.8058 92.8822C49.6 92.382 37.6621 77.3292 37.6621 77.3292C37.6621 77.3292 38.0934 76.352 39.6842 75.0412C41.1591 73.8231 42.3139 73.4896 42.3139 73.4896C42.3139 73.4896 54.864 88.0329 55.133 89.3066C55.3973 90.5803 55.1005 92.595 55.1005 92.595Z" fill="url(#paint12_linear_89_10)"/>
<path fill-rule="evenodd" clip-rule="evenodd" d="M45.106 85.6198C45.106 85.6198 46.488 83.4615 48.538 81.8265C48.538 81.8265 54.173 88.2923 54.4605 89.3251C54.7481 90.358 54.7388 92.1226 54.2194 92.6089C53.6999 93.0952 51.8541 93.1184 50.7317 92.206C49.6093 91.2935 45.1106 85.6198 45.1106 85.6198H45.106Z" fill="url(#paint13_linear_89_10)"/>
<path fill-rule="evenodd" clip-rule="evenodd" d="M54.7108 93.4519C54.1868 94.1004 55.3601 96.6107 56.719 95.6334C58.0779 94.6561 55.6755 92.257 54.7108 93.4519Z" fill="url(#paint14_linear_89_10)"/>
<g style="mix-blend-mode:multiply" opacity="0.5">
<path fill-rule="evenodd" clip-rule="evenodd" d="M39.3226 79.4134C39.3226 79.4134 41.0479 76.0648 44.0486 75.5136L42.9123 74.013L44.7211 71.9519C44.7211 71.9519 38.4785 73.4109 35.5613 79.5107L38.024 77.9684L39.3272 79.4134H39.3226Z" fill="#BD4881"/>
</g>
<g style="mix-blend-mode:multiply" opacity="0.5">
<path fill-rule="evenodd" clip-rule="evenodd" d="M55.1006 92.5951C55.3232 92.6414 55.5273 92.6923 55.7128 92.7526C55.5922 92.734 54.0153 92.5534 54.173 94.6515C54.0988 94.3227 54.0524 93.929 54.0431 93.4658C54.0431 93.4658 52.0025 93.3778 50.8013 92.8776C50.8013 92.8776 53.8576 91.4233 55.133 89.3066C55.3974 90.5803 55.1006 92.5951 55.1006 92.5951Z" fill="#BD4881"/>
</g>
<g style="mix-blend-mode:multiply" opacity="0.5">
<path fill-rule="evenodd" clip-rule="evenodd" d="M33.3208 73.3647C33.3208 73.3647 34.2159 74.6152 37.0868 72.2716C39.9576 69.928 38.7796 68.608 38.7796 68.608L40.2683 70.6367C40.2683 70.6367 37.2352 71.5815 34.9487 75.1015L33.3254 73.3647H33.3208Z" fill="#FFA2BF"/>
</g>
<path style="mix-blend-mode:screen" opacity="0.5" fill-rule="evenodd" clip-rule="evenodd" d="M31.6376 63.9996C34.4991 67.4594 36.0435 70.9099 35.0835 71.7019C34.1235 72.494 31.0207 70.331 28.1592 66.8712C25.2976 63.4114 23.7532 59.9608 24.7132 59.1688C25.6733 58.3768 28.776 60.5398 31.6376 63.9996Z" fill="url(#paint15_radial_89_10)"/>
<path style="mix-blend-mode:screen" opacity="0.5" fill-rule="evenodd" clip-rule="evenodd" d="M34.4388 62.8879C37.203 66.431 39.0999 69.5666 38.6732 69.8955C38.2465 70.2243 35.6632 67.626 32.8991 64.0828C30.1349 60.5443 28.238 57.404 28.6647 57.0752C29.0914 56.7463 31.6747 59.3447 34.4388 62.8879Z" fill="url(#paint16_radial_89_10)"/>
<path fill-rule="evenodd" clip-rule="evenodd" d="M45.106 85.6198C45.106 85.6198 47.5872 85.4577 48.538 81.8265C48.538 81.8265 46.1448 83.3689 45.106 85.6198Z" fill="url(#paint17_linear_89_10)"/>
<defs>
<radialGradient id="paint0_radial_89_10" cx="0" cy="0" r="1" gradientUnits="userSpaceOnUse" gradientTransform="translate(46.9264 67.6669) rotate(-53.2129) scale(29.2025 3.50565)">
<stop stop-color="#2F3460"/>
<stop offset="0.64" stop-color="#391B5C"/>
<stop offset="0.98" stop-color="#2A164A"/>
</radialGradient>
<linearGradient id="paint1_linear_89_10" x1="40.7648" y1="87.0259" x2="33.633" y2="81.6932" gradientUnits="userSpaceOnUse">
<stop offset="0.03" stop-color="#9A007E"/>
<stop offset="0.38" stop-color="#CD0558"/>
<stop offset="1" stop-color="#FF224D"/>
</linearGradient>
<radialGradient id="paint2_radial_89_10" cx="0" cy="0" r="1" gradientUnits="userSpaceOnUse" gradientTransform="translate(24.2732 100.826) rotate(-53.2129) scale(1.10749 0.509641)">
<stop stop-color="#2F3460"/>
<stop offset="0.64" stop-color="#391B5C"/>
<stop offset="0.98" stop-color="#2A164A"/>
</radialGradient>
<linearGradient id="paint3_linear_89_10" x1="43.8325" y1="72.5734" x2="65.9161" y2="42.96" gradientUnits="userSpaceOnUse">
<stop stop-color="#6052A9"/>
<stop offset="0.06" stop-color="#584B9C"/>
<stop offset="0.29" stop-color="#393064"/>
<stop offset="0.51" stop-color="#201B39"/>
<stop offset="0.71" stop-color="#0E0C19"/>
<stop offset="0.87" stop-color="#030306"/>
<stop offset="0.99"/>
</linearGradient>
<linearGradient id="paint4_linear_89_10" x1="65.9298" y1="51.1728" x2="60.9216" y2="47.428" gradientUnits="userSpaceOnUse">
<stop offset="0.43" stop-color="#D8D9FF"/>
<stop offset="0.84" stop-color="#80618E"/>
<stop offset="0.96" stop-color="#E3DCE6"/>
</linearGradient>
<linearGradient id="paint5_linear_89_10" x1="30.0803" y1="100.579" x2="23.6688" y2="95.7848" gradientUnits="userSpaceOnUse">
<stop offset="0.01"/>
<stop offset="0.13" stop-color="#030306"/>
<stop offset="0.29" stop-color="#0E0C19"/>
<stop offset="0.49" stop-color="#201B39"/>
<stop offset="0.71" stop-color="#393064"/>
<stop offset="0.94" stop-color="#584B9C"/>
<stop offset="0.99" stop-color="#6052A9"/>
</linearGradient>
<linearGradient id="paint6_linear_89_10" x1="34.246" y1="84.8987" x2="32.8464" y2="83.8522" gradientUnits="userSpaceOnUse">
<stop offset="0.03" stop-color="#930045"/>
<stop offset="1" stop-color="#6B004D"/>
</linearGradient>
<radialGradient id="paint7_radial_89_10" cx="0" cy="0" r="1" gradientUnits="userSpaceOnUse" gradientTransform="translate(33.667 84.4729) rotate(-53.2129) scale(6.2557 6.25809)">
<stop stop-color="#391B5C"/>
<stop offset="0.98" stop-color="#2A164A"/>
</radialGradient>
<linearGradient id="paint8_linear_89_10" x1="26.9906" y1="67.3556" x2="34.1544" y2="61.4276" gradientUnits="userSpaceOnUse">
<stop offset="0.33" stop-color="#FFB848"/>
<stop offset="0.98" stop-color="#FF7F2C"/>
</linearGradient>
<linearGradient id="paint9_linear_89_10" x1="35.2426" y1="79.1236" x2="44.3919" y2="71.5525" gradientUnits="userSpaceOnUse">
<stop stop-color="#FF6E31"/>
<stop offset="0.05" stop-color="#FF7A1F"/>
<stop offset="0.13" stop-color="#FF8610"/>
<stop offset="0.21" stop-color="#FF8D06"/>
<stop offset="0.33" stop-color="#FF9004"/>
<stop offset="0.98" stop-color="#FF7540"/>
</linearGradient>
<linearGradient id="paint10_linear_89_10" x1="34.0073" y1="77.9799" x2="43.6352" y2="70.0127" gradientUnits="userSpaceOnUse">
<stop offset="0.33" stop-color="#FFD157"/>
<stop offset="0.98" stop-color="#FF9340"/>
</linearGradient>
<linearGradient id="paint11_linear_89_10" x1="20.6588" y1="59.7047" x2="27.8226" y2="53.7766" gradientUnits="userSpaceOnUse">
<stop stop-color="#DEBD95"/>
<stop offset="0.2" stop-color="#9C8569"/>
<stop offset="0.4" stop-color="#645543"/>
<stop offset="0.59" stop-color="#393026"/>
<stop offset="0.75" stop-color="#191611"/>
<stop offset="0.89" stop-color="#060504"/>
<stop offset="0.99"/>
</linearGradient>
<linearGradient id="paint12_linear_89_10" x1="45.9601" y1="87.553" x2="50.8026" y2="83.5458" gradientUnits="userSpaceOnUse">
<stop stop-color="#FFC6B0"/>
<stop offset="1" stop-color="#FFEECC"/>
</linearGradient>
<linearGradient id="paint13_linear_89_10" x1="54.2041" y1="92.6222" x2="46.6087" y2="83.4187" gradientUnits="userSpaceOnUse">
<stop offset="0.03" stop-color="#C3005A"/>
<stop offset="1" stop-color="#FF224D"/>
</linearGradient>
<linearGradient id="paint14_linear_89_10" x1="56.7636" y1="95.5991" x2="54.8669" y2="93.3009" gradientUnits="userSpaceOnUse">
<stop stop-color="#FF224D"/>
<stop offset="0.97" stop-color="#C3005A"/>
</linearGradient>
<radialGradient id="paint15_radial_89_10" cx="0" cy="0" r="1" gradientUnits="userSpaceOnUse" gradientTransform="translate(30.1484 65.1076) rotate(-39.532) scale(2.22922 8.1042)">
<stop stop-color="#FFA93B"/>
<stop offset="0.09" stop-color="#E09433"/>
<stop offset="0.28" stop-color="#9D6824"/>
<stop offset="0.46" stop-color="#654217"/>
<stop offset="0.62" stop-color="#39260D"/>
<stop offset="0.77" stop-color="#191106"/>
<stop offset="0.9" stop-color="#060401"/>
<stop offset="0.99"/>
</radialGradient>
<radialGradient id="paint16_radial_89_10" cx="0" cy="0" r="1" gradientUnits="userSpaceOnUse" gradientTransform="translate(31.9623 64.6789) rotate(-37.9025) scale(1.01378 8.1076)">
<stop stop-color="#FFA93B"/>
<stop offset="0.09" stop-color="#E09433"/>
<stop offset="0.28" stop-color="#9D6824"/>
<stop offset="0.46" stop-color="#654217"/>
<stop offset="0.62" stop-color="#39260D"/>
<stop offset="0.77" stop-color="#191106"/>
<stop offset="0.9" stop-color="#060401"/>
<stop offset="0.99"/>
</radialGradient>
<linearGradient id="paint17_linear_89_10" x1="47.0883" y1="85.2882" x2="46.5639" y2="82.1588" gradientUnits="userSpaceOnUse">
<stop stop-color="#FF5973"/>
<stop offset="1" stop-color="#FF427E"/>
</linearGradient>
</defs>
</svg>
