<svg width="297" height="574" viewBox="0 0 297 574" fill="none" xmlns="http://www.w3.org/2000/svg">
<path d="M145.063 397.48L127.073 418.921L119.836 427.55C93.1288 410.305 83.6336 389.018 84.2027 370.163C84.4729 361.033 87.0963 352.47 91.2695 345.208C104.802 321.627 129.601 310.073 140.165 329.432C151.546 350.298 136.505 360.336 132.178 366.799C126.092 375.883 129.054 392.309 145.061 397.48H145.063Z" fill="white"/>
<path d="M127.074 418.921L119.837 427.55C93.1303 410.305 83.6351 389.018 84.2041 370.163C88.4775 383.815 99.9949 409.974 127.074 418.921V418.921Z" fill="#371A45"/>
<path d="M119.836 430.258C119.333 430.258 118.825 430.118 118.372 429.824C99.7644 417.811 87.6296 402.591 83.2793 385.814C79.5803 371.544 81.5846 356.643 88.9252 343.859C98.186 327.73 112.617 316.949 124.907 316.949C124.984 316.949 125.058 316.949 125.134 316.949C132.574 317.029 138.594 320.898 142.541 328.133C152.845 347.019 143.092 358.171 137.264 364.833C136.095 366.169 135.086 367.322 134.427 368.306C131.772 372.269 131.208 377.862 132.956 382.902C134.925 388.579 139.519 392.84 145.893 394.897C147.316 395.356 148.096 396.882 147.638 398.306C147.18 399.728 145.655 400.51 144.232 400.05C136.204 397.458 130.385 391.998 127.846 384.677C125.553 378.064 126.353 370.637 129.934 365.29C130.786 364.018 131.956 362.68 133.193 361.265C138.719 354.947 146.287 346.295 137.794 330.726C134.796 325.235 130.519 322.42 125.077 322.361C114.773 322.245 101.86 332.197 93.6174 346.553C81.862 367.03 82.0588 399.932 121.307 425.272C122.561 426.081 122.923 427.757 122.114 429.013C121.597 429.815 120.727 430.252 119.837 430.252L119.836 430.258Z" fill="#371A45"/>
<path d="M105.378 393.875C96.7814 393.875 88.3724 391.404 84.5911 387.696C83.7089 386.831 83.6946 385.413 84.5589 384.53C85.4232 383.647 86.8405 383.633 87.7228 384.498C90.3373 387.06 97.8354 389.63 106.581 389.38C111.763 389.224 121.462 387.85 128.189 380.409C129.018 379.492 130.432 379.42 131.35 380.251C132.266 381.081 132.337 382.495 131.507 383.412C125.697 389.84 116.892 393.549 106.715 393.857C106.269 393.87 105.822 393.877 105.378 393.877V393.875Z" fill="#371A45"/>
<path d="M251.333 416.726C260.353 429.742 257.087 476.328 245.793 500.986C234.499 525.641 188.675 512.503 163.11 503.063C137.545 493.623 157.084 435.178 162.635 419.625C171.3 395.34 237.971 397.437 251.335 416.726H251.333Z" fill="white"/>
<path d="M163.11 503.063C188.675 512.503 234.499 525.638 245.797 500.984C247.273 497.755 248.615 494.153 249.805 490.295C240.8 493.533 232.52 485.222 233.605 477.958C240.301 433.107 229.94 411.587 224.163 403.478C199.831 398.993 168.398 403.469 162.637 419.627C157.085 435.174 137.543 493.623 163.11 503.061V503.063Z" fill="#371A45"/>
<path d="M216.864 517.856C200.153 517.856 179.901 512.148 162.172 505.602C136.73 496.209 149.944 447.134 160.085 418.715C163.571 408.949 175.168 402.287 192.744 399.959C214.886 397.027 244.431 402.011 253.556 415.183C263.071 428.916 260.197 476.038 248.252 502.114C242.973 513.64 231.226 517.856 216.864 517.856V517.856ZM206.026 404.515C201.84 404.515 197.612 404.776 193.455 405.328C178.215 407.346 167.911 412.891 165.182 420.536C159.235 437.203 141.575 492.226 164.046 500.523C189.276 509.841 233.129 522.142 243.334 499.859C254.227 476.079 257.464 430.328 249.111 418.269C243.375 409.991 225.181 404.515 206.028 404.515H206.026Z" fill="#371A45"/>
<path d="M234.517 458.805L247.507 458.051C250.444 457.881 252.872 460.32 252.674 463.258C251.988 473.362 249.286 493.877 238.622 494.708C225.697 495.715 226.033 481.292 230.02 462.652C230.48 460.505 232.327 458.934 234.517 458.807V458.805Z" fill="white"/>
<path d="M230.052 462.629C226.02 481.26 225.652 495.686 238.579 494.705C243.887 494.309 247.235 489.022 249.342 482.569C247.783 484.097 245.954 485.073 243.792 485.234C232.219 486.108 231.298 474.635 234.14 458.845C232.13 459.113 230.48 460.62 230.052 462.629V462.629Z" fill="#371A45"/>
<path d="M237.377 496.991C233.725 496.991 230.844 495.804 228.798 493.452C224.473 488.483 224.194 479.123 227.864 462.156C228.539 459.038 231.239 456.737 234.433 456.559L247.425 455.834C249.469 455.714 251.468 456.491 252.905 457.949C254.338 459.403 255.079 461.407 254.936 463.444C254.088 475.559 250.858 496.021 238.75 496.938C238.283 496.973 237.824 496.99 237.379 496.99L237.377 496.991ZM247.828 460.3C247.776 460.3 247.724 460.3 247.672 460.304L234.678 461.029C233.49 461.096 232.485 461.948 232.236 463.103C231.058 468.548 227.476 485.114 232.171 490.512C233.508 492.048 235.552 492.69 238.411 492.475C244.711 491.998 249.218 481.029 250.471 463.132C250.525 462.365 250.256 461.642 249.718 461.094C249.211 460.578 248.544 460.3 247.83 460.3H247.828Z" fill="#371A45"/>
<path d="M252.958 423.785C251.48 423.51 249.938 423.259 248.417 423.024C246.89 422.792 245.358 422.577 243.821 422.383C240.747 422 237.661 421.699 234.541 421.581C237.567 420.807 240.661 420.209 243.767 419.697C245.321 419.442 246.879 419.208 248.443 418.995C250.013 418.782 251.561 418.585 253.173 418.416H253.178C254.669 418.26 256.002 419.346 256.156 420.836C256.31 422.328 255.227 423.662 253.737 423.816C253.475 423.843 253.205 423.828 252.958 423.784V423.785Z" fill="#371A45"/>
<path d="M136.185 403.561L142.475 384.786C140.773 391.409 138.615 397.684 136.185 403.561Z" fill="white"/>
<path d="M66.4091 525.031C66.4091 525.031 79.0574 516.217 92.894 510.381C101.967 506.55 111.548 504.003 118.411 506.054C118.411 506.054 172.601 541.36 203.868 472.891C213.785 451.172 216.581 434.685 214.761 422.183C214.505 420.424 214.158 418.753 213.726 417.148C213.275 415.454 212.724 413.849 212.089 412.322C210.346 408.115 207.955 404.52 205.09 401.445C202.914 399.117 200.466 397.088 197.825 395.32C173.328 378.969 131.714 385.18 131.714 385.18C131.27 388.287 130.762 391.294 130.19 394.199C129.112 399.715 127.833 404.861 126.41 409.65C125.998 411.03 125.58 412.377 125.145 413.695C120.063 429.233 113.574 440.695 108.216 448.398C102.454 456.685 97.996 460.632 97.996 460.632C60.398 452.863 52.2808 484.437 52.2808 484.437C52.2808 484.437 25.6312 466.32 25.2822 491.399C25.0209 509.951 51.4021 534.358 66.4109 525.029L66.4091 525.031Z" fill="white"/>
<path d="M66.4091 525.03C66.4091 525.03 101.079 500.869 118.411 506.054C118.411 506.054 172.601 541.36 203.868 472.891C213.785 451.172 216.581 434.685 214.761 422.182C214.236 418.57 213.327 415.294 212.087 412.323C211.599 411.147 211.064 410.022 210.482 408.942C210.702 409.943 210.89 410.971 211.042 412.028C212.864 424.53 210.067 441.018 200.149 462.736C168.884 531.205 116.543 489.231 116.543 489.231C87.0584 479.646 76.6845 510.997 64.4692 516.606C52.2539 522.215 33.5212 509.718 25.5972 495.324C28.6179 513.171 52.4401 533.711 66.4091 525.03V525.03Z" fill="#371A45"/>
<path d="M124.777 418.217C124.195 420.254 123.585 422.288 122.917 424.306L121.818 427.297C121.462 428.3 121.081 429.292 120.664 430.272C119.85 432.238 119.011 434.198 118.059 436.107C117.16 438.041 116.131 439.913 115.118 441.795C113.009 445.509 110.734 449.147 108.15 452.578C107.504 453.436 106.863 454.297 106.18 455.128C105.51 455.97 104.834 456.808 104.109 457.611C103.402 458.426 102.654 459.212 101.903 459.996C101.133 460.791 100.392 461.517 99.4744 462.31L98.6155 463.053L97.5399 462.826C93.0321 461.891 88.4456 461.461 83.9396 461.751C79.4353 462.015 75.0223 463.095 71.046 465.061C67.0482 466.992 63.5586 469.886 60.7312 473.34C59.3157 475.069 58.0666 476.944 57.0054 478.923C56.465 479.906 55.9854 480.923 55.5469 481.951C55.3268 482.465 55.1228 482.985 54.9349 483.502C54.7488 484.004 54.5627 484.579 54.4464 484.996L53.616 487.98L51.023 486.291C48.5302 484.666 45.7045 483.176 42.9004 482.071C40.0944 480.97 37.1238 480.203 34.4771 480.391C33.1636 480.49 31.9843 480.848 31.0412 481.5C30.0927 482.145 29.3537 483.117 28.8186 484.313C28.2781 485.503 27.9185 486.876 27.7485 488.327L27.6124 489.414L27.5588 490.533C27.4961 491.291 27.5301 492.006 27.5534 492.72C27.718 495.602 28.5627 498.51 29.7366 501.286C30.9535 504.057 32.5336 506.704 34.3536 509.177C37.9953 514.122 42.648 518.411 47.8878 521.461C50.522 522.926 53.3208 524.113 56.159 524.584C57.5763 524.864 58.9882 524.866 60.3572 524.756C61.7262 524.635 63.0289 524.21 64.2261 523.662L65.0744 523.209C65.1585 523.168 65.1979 523.145 65.2694 523.093L65.5271 522.915L66.0389 522.57L68.0897 521.219C69.4623 520.333 70.8438 519.468 72.2361 518.617C75.0241 516.925 77.8516 515.298 80.7291 513.753C86.4896 510.676 92.4362 507.877 98.7371 505.776C101.888 504.737 105.136 503.878 108.519 503.407C111.887 502.93 115.473 502.916 119.045 503.906C120.235 504.236 120.933 505.47 120.603 506.661C120.274 507.852 119.041 508.55 117.851 508.219L117.765 508.196C115.111 507.467 112.116 507.408 109.12 507.843C106.119 508.26 103.107 509.048 100.144 510.026C94.2096 512.003 88.4456 514.704 82.8444 517.698C80.0455 519.203 77.2843 520.789 74.5624 522.441C73.2042 523.27 71.8549 524.115 70.5199 524.977L68.5335 526.284L68.045 526.614L67.8052 526.778C67.7139 526.845 67.5833 526.929 67.4867 526.977L66.2089 527.672C64.4928 528.478 62.6782 529.031 60.8314 529.205C58.9989 529.364 57.1557 529.33 55.4056 528.994C51.8766 528.397 48.6555 527.006 45.6741 525.347C42.7107 523.644 39.9995 521.597 37.5067 519.328C35.0139 517.059 32.752 514.552 30.7549 511.833C28.7577 509.116 27.0076 506.197 25.6314 503.063C24.3 499.913 23.2961 496.54 23.0867 492.973C23.0527 492.075 23.0223 491.178 23.0885 490.326L23.153 489.031L23.314 487.718C23.527 485.974 23.9618 484.181 24.7528 482.437C25.5259 480.703 26.7714 478.982 28.5001 477.807C30.2162 476.618 32.2437 476.059 34.1317 475.923C36.0357 475.781 37.8503 476 39.5736 476.369C41.3005 476.741 42.9433 477.275 44.5288 477.898C47.716 479.166 50.6257 480.692 53.5319 482.582L50.1086 483.877C50.3108 483.146 50.5005 482.589 50.7242 481.973C50.9425 481.371 51.1733 480.782 51.4239 480.2C51.9214 479.037 52.46 477.897 53.0649 476.792C54.2567 474.571 55.6597 472.463 57.2613 470.505C60.4574 466.594 64.4731 463.263 69.0614 461.042C73.6265 458.782 78.6533 457.571 83.6461 457.279C88.6478 456.959 93.628 457.441 98.4401 458.436L96.5056 458.952C97.1319 458.329 97.8531 457.548 98.5206 456.817C99.1917 456.063 99.8645 455.306 100.505 454.512C101.815 452.958 103.087 451.353 104.301 449.705C106.724 446.405 109.02 442.997 111.183 439.492C112.207 437.706 113.318 435.965 114.283 434.14C114.771 433.232 115.303 432.344 115.784 431.429L117.218 428.676C119.157 425.014 120.866 421.231 122.663 417.454L122.679 417.42C122.946 416.862 123.613 416.623 124.173 416.89C124.675 417.13 124.918 417.694 124.769 418.212L124.777 418.217Z" fill="#371A45"/>
<path d="M73.3847 556.323C78.0625 568.097 94.4742 575.497 108.871 568.795C118.386 564.368 124.137 556.422 127.373 549.717C131.151 541.876 133.74 533.845 140.644 530.192C148.518 526.028 162.884 540.354 189.639 525.118C197.984 520.372 207.687 510.216 214.972 495.176C217.323 490.326 219.419 484.973 221.135 479.122C224.85 466.485 226.795 451.55 225.697 434.49C225.215 427.09 224.159 419.285 222.427 411.098C221.625 407.296 220.675 403.415 219.566 399.452C218.079 394.129 216.312 388.653 214.231 383.036L207.406 396.78L205.085 401.447L203.413 404.805L192.97 425.832L177.005 457.967L158.369 495.478L157.077 498.079C155.119 496.093 152.999 494.278 150.751 492.661C143.901 487.743 135.848 484.645 127.398 483.962C127.217 483.946 127.044 483.934 126.865 483.923C122.91 483.654 118.814 483.896 114.916 485.033C103.801 488.282 95.1077 500.145 92.8887 510.379C92.2606 513.259 92.1461 516.006 92.6364 518.397C93.5186 522.686 94.4098 527.411 94.4098 527.411C91.2782 528.979 68.0394 542.875 73.3811 556.322L73.3847 556.323Z" fill="white"/>
<path d="M73.3849 556.324C78.0627 568.097 94.4744 575.497 108.871 568.796C118.386 564.368 124.138 556.422 127.373 549.717C131.151 541.876 133.74 533.846 140.644 530.192C148.518 526.028 162.884 540.354 189.64 525.118C197.984 520.372 207.687 510.216 214.972 495.176C215.3 494.497 215.625 493.809 215.944 493.107C216.193 492.559 216.441 492.006 216.683 491.442C216.822 491.123 216.962 490.804 217.1 490.48C217.545 489.425 217.975 488.347 218.401 487.247C218.503 486.977 218.605 486.703 218.705 486.427C218.825 486.112 218.939 485.804 219.05 485.496C219.174 485.148 219.297 484.808 219.417 484.461C219.786 483.415 220.142 482.353 220.478 481.271C220.706 480.56 220.922 479.842 221.137 479.118C228.22 455.027 228.877 422.596 214.233 383.033L213.601 384.303C225.754 425.764 220.808 458.481 210.446 480.868C195.856 481.079 181.141 473.717 176.984 471.455L178.518 467.328C179.738 464.056 179.047 460.518 177.007 457.96C176.342 457.115 175.526 456.382 174.588 455.795C174.053 455.455 173.473 455.175 172.856 454.944L130.977 439.345C126.013 437.493 120.442 440.04 118.597 445.012L117.008 449.283C116.729 449.156 116.443 449.052 116.144 448.961C111.675 447.592 106.949 450.107 105.587 454.577C104.229 459.015 106.7 463.718 111.117 465.117L110.297 467.318C108.452 472.284 111.006 477.854 115.965 479.702L127.4 483.959L150.753 492.658L157.849 495.303C158.022 495.367 158.196 495.426 158.371 495.475C163.192 496.97 168.437 494.431 170.223 489.636L171.471 486.285C184.301 491.923 194.677 494.248 202.286 495.086C196.488 503.303 190.107 509.123 184.368 512.39C157.612 527.624 143.246 513.3 135.378 517.462C128.468 521.117 125.881 529.148 122.101 536.989C118.866 543.692 113.114 551.64 103.599 556.067C92.3449 561.308 79.8522 557.926 72.7066 550.573C72.44 552.477 72.6207 554.405 73.3849 556.322V556.324Z" fill="#371A45"/>
<path d="M156.444 498.707C149.896 493.886 142.922 490.175 135.438 488.211C131.714 487.213 127.863 486.751 124.052 486.71C120.267 486.695 116.477 487.27 113.191 488.689C109.846 490.125 106.774 492.41 104.168 495.167C101.554 497.919 99.3526 501.13 97.7349 504.58C97.2803 505.423 97.0065 506.331 96.6307 507.203C96.2925 508.086 96.0599 508.994 95.7718 509.888C95.3727 511.69 94.9915 513.525 95.0578 515.272C94.9933 516.171 95.1955 516.977 95.2689 517.82L95.8595 520.847L97.0495 526.914L97.4342 528.875L95.6125 529.814C94.9826 530.14 94.222 530.582 93.5188 531.01C92.8012 531.444 92.0907 531.904 91.3856 532.368C89.9773 533.304 88.5994 534.291 87.2662 535.323C84.6069 537.39 82.0855 539.634 79.9738 542.114C77.8765 544.578 76.1425 547.327 75.5287 550.093C75.2209 551.47 75.2048 552.824 75.5126 554.117C75.6682 554.763 75.8812 555.38 76.2427 556.087L76.7223 557.119C76.9084 557.452 77.1267 557.769 77.3236 558.096C80.5805 563.322 86.4466 566.974 92.6562 568.167C95.77 568.774 98.9929 568.781 102.092 568.167C102.882 568.075 103.626 567.794 104.39 567.595C105.163 567.418 105.892 567.103 106.623 566.804L107.728 566.365L108.814 565.822C109.548 565.479 110.229 565.036 110.936 564.642C116.477 561.261 120.929 556.151 124.052 550.313C125.598 547.417 126.944 544.132 128.508 540.896C130.068 537.658 131.89 534.272 134.698 531.374C136.117 529.929 137.713 528.687 139.631 527.708C140.766 527.122 141.984 526.882 143.103 526.771C144.241 526.657 145.27 526.739 146.265 526.836C148.23 527.067 149.998 527.47 151.721 527.842C153.441 528.222 155.107 528.587 156.768 528.875C163.375 530.095 170.017 529.859 176.393 527.941C179.577 527.015 182.682 525.738 185.679 524.201C186.429 523.82 187.165 523.401 187.909 523.003C188.655 522.602 189.31 522.154 190.017 521.735C190.704 521.294 191.366 520.793 192.043 520.327C192.709 519.838 193.346 519.299 193.999 518.789C199.115 514.509 203.508 509.238 207.198 503.532C210.879 497.806 213.929 491.647 216.275 485.214C218.642 478.79 220.387 472.126 221.538 465.353C223.852 451.794 223.755 437.857 221.962 424.165L221.15 419.045C220.867 417.34 220.48 415.651 220.135 413.958C219.807 412.261 219.38 410.584 218.973 408.904C218.553 407.226 218.227 405.528 217.776 403.856C216.212 397.102 214.317 390.459 213.395 383.348V383.332C213.329 382.83 213.682 382.372 214.183 382.305C214.546 382.259 214.89 382.433 215.074 382.724C216.037 384.249 216.899 385.819 217.705 387.415C218.123 388.208 218.497 389.016 218.88 389.824C219.249 390.637 219.562 391.468 219.904 392.292C220.577 393.943 221.216 395.608 221.769 397.301C222.297 399.002 222.821 400.705 223.308 402.421C223.569 403.274 223.794 404.137 223.984 405.009L224.58 407.618C224.975 409.357 225.346 411.104 225.625 412.868C225.913 414.63 226.26 416.38 226.531 418.144L227.288 423.447C229.142 437.599 229.251 452.078 226.835 466.25C225.632 473.33 223.805 480.316 221.312 487.077C218.843 493.845 215.627 500.355 211.708 506.449C207.773 512.526 203.088 518.185 197.422 522.928C196.694 523.499 195.987 524.094 195.237 524.643C194.471 525.175 193.729 525.734 192.938 526.241C192.138 526.723 191.334 527.258 190.533 527.688C189.729 528.12 188.936 528.569 188.122 528.983C184.87 530.648 181.454 532.06 177.897 533.095C174.343 534.137 170.642 534.795 166.909 534.952C163.178 535.137 159.436 534.796 155.843 534.164C152.262 533.561 148.752 532.55 145.678 532.173C144.15 531.999 142.858 532.085 142.001 532.525C140.793 533.145 139.565 534.064 138.534 535.129C136.43 537.286 134.81 540.153 133.343 543.228C131.847 546.314 130.537 549.548 128.78 552.856C125.292 559.38 120.222 565.264 113.739 569.223C110.535 571.174 106.91 572.692 103.12 573.439C99.3329 574.188 95.4049 574.175 91.6308 573.439C87.8549 572.703 84.2204 571.258 80.976 569.159C77.7369 567.062 74.8665 564.298 72.7692 560.935C72.5115 560.512 72.2395 560.099 71.9979 559.665L71.3591 558.313C70.926 557.455 70.5395 556.407 70.2889 555.347C69.7789 553.22 69.8272 550.974 70.2889 548.929C71.2392 544.802 73.4814 541.489 75.8937 538.622C78.3418 535.751 81.1066 533.31 83.9842 531.068C85.4265 529.95 86.9065 528.893 88.4222 527.885C89.1827 527.384 89.9469 526.891 90.7325 526.415C91.5288 525.933 92.2822 525.483 93.2128 525.003L91.7776 527.903L90.5983 521.889L90.0095 518.873C89.861 517.68 89.6265 516.461 89.691 515.3C89.6856 510.59 91.0134 506.261 92.8763 502.291C94.7607 498.32 97.207 494.651 100.201 491.42C103.202 488.211 106.759 485.395 110.924 483.495C115.152 481.548 119.674 480.955 124.064 480.929C126.264 480.918 128.438 481.126 130.594 481.464C132.752 481.779 134.876 482.297 136.951 482.945C145.245 485.501 152.75 490.584 157.722 497.443C158.015 497.848 157.926 498.413 157.521 498.707C157.195 498.944 156.762 498.931 156.455 498.705L156.449 498.7L156.444 498.707Z" fill="#371A45"/>
<path d="M138.046 534.166C137.752 534.166 137.455 534.107 137.169 533.985C136.033 533.5 135.505 532.185 135.99 531.046C141.287 518.623 135.365 505.128 127.622 497.848C120.623 491.268 112.527 489.309 105.965 492.608C104.859 493.165 103.517 492.719 102.962 491.612C102.407 490.507 102.853 489.162 103.957 488.607C112.146 484.489 122.388 486.778 130.687 494.583C139.823 503.174 146.279 518.322 140.106 532.803C139.742 533.654 138.916 534.164 138.048 534.164L138.046 534.166Z" fill="#371A45"/>
<path d="M96.1012 526.288C97.0532 527.959 98.2754 529.699 99.5496 531.282C100.84 532.878 102.248 534.388 103.807 535.722C105.364 537.056 107.078 538.226 108.979 539.03C110.87 539.849 112.971 540.241 115.099 540.042C113.035 540.577 110.79 540.538 108.662 539.995C106.525 539.471 104.499 538.52 102.62 537.37C100.736 536.218 98.9877 534.859 97.3467 533.385C95.6985 531.888 94.1917 530.358 92.7243 528.539C92.0175 527.663 92.1552 526.379 93.0303 525.671C93.9054 524.964 95.1885 525.102 95.8954 525.978C95.9634 526.062 96.0224 526.148 96.0743 526.237L96.1012 526.286V526.288Z" fill="#371A45"/>
<path d="M85.4034 516.087C85.008 516.087 84.6071 515.981 84.2438 515.761C83.188 515.12 82.8534 513.742 83.4958 512.686C90.16 501.72 92.2842 491.549 89.8128 482.455C86.291 469.503 74.439 463.002 74.3209 462.937C73.2347 462.353 72.8231 460.998 73.4047 459.909C73.9863 458.818 75.3391 458.404 76.4272 458.988C76.9819 459.284 90.0562 466.399 94.1148 481.223C96.9459 491.563 94.6607 502.932 87.3182 515.012C86.8977 515.705 86.1604 516.088 85.4052 516.088L85.4034 516.087Z" fill="#371A45"/>
<path d="M117.414 456.894C121.537 454.701 123.103 449.579 120.912 445.453C118.721 441.327 113.602 439.76 109.48 441.953C105.357 444.146 103.791 449.268 105.982 453.394C108.173 457.52 113.292 459.087 117.414 456.894Z" fill="white"/>
<path d="M105.365 446.948C104 451.416 106.507 456.15 110.972 457.516C115.437 458.882 120.168 456.366 121.534 451.898C121.911 450.664 121.994 449.403 121.813 448.201C119.68 450.537 116.312 451.579 113.087 450.592C109.863 449.605 107.654 446.855 107.198 443.728C106.377 444.621 105.741 445.714 105.364 446.948H105.365Z" fill="#371A45"/>
<path d="M113.459 460.129C112.409 460.129 111.353 459.973 110.319 459.656C107.588 458.82 105.346 456.97 104.005 454.446C102.665 451.923 102.388 449.029 103.223 446.296C104.948 440.654 110.936 437.466 116.573 439.195C122.21 440.921 125.394 446.915 123.669 452.555C122.833 455.288 120.984 457.532 118.463 458.873C116.895 459.706 115.184 460.131 113.459 460.131V460.129ZM113.44 443.199C112.436 443.199 111.441 443.446 110.53 443.93C109.064 444.711 107.989 446.014 107.502 447.605C107.017 449.193 107.178 450.877 107.957 452.344C108.737 453.812 110.04 454.887 111.629 455.374C113.218 455.859 114.898 455.698 116.366 454.919C117.831 454.138 118.907 452.834 119.393 451.244C120.397 447.963 118.545 444.478 115.267 443.475C114.665 443.29 114.052 443.199 113.441 443.199H113.44Z" fill="#371A45"/>
<path d="M115.74 472.074L157.625 487.675C162.582 489.524 168.153 486.975 170.002 482.009L178.296 459.701C179.914 455.353 178.16 450.54 174.366 448.169C173.831 447.829 173.25 447.546 172.632 447.315L130.754 431.716C125.79 429.866 120.221 432.414 118.377 437.382L111.804 455.048L110.078 459.687C108.229 464.655 110.784 470.224 115.74 472.073V472.074Z" fill="white"/>
<path d="M115.74 472.074L157.625 487.675C162.582 489.523 168.153 486.975 170.002 482.009L178.296 459.701C179.914 455.352 178.16 450.54 174.366 448.169C171.399 448.864 169.513 449.313 169.513 449.313C160.814 466.46 156.664 480.026 129.591 467.844C120.256 463.644 114.891 458.442 111.804 455.05L110.078 459.688C108.229 464.656 110.784 470.226 115.74 472.074V472.074Z" fill="#371A45"/>
<path d="M160.96 490.521C159.57 490.521 158.178 490.272 156.839 489.774L114.957 474.173C111.997 473.072 109.64 470.873 108.32 467.982C106.999 465.091 106.877 461.869 107.98 458.909L116.276 436.599C118.558 430.465 125.399 427.333 131.528 429.617L173.41 445.217C179.539 447.501 182.669 454.348 180.388 460.482L172.09 482.791C170.989 485.752 168.791 488.112 165.905 489.434C164.323 490.157 162.643 490.521 160.959 490.521H160.96ZM127.41 433.349C126.36 433.349 125.311 433.576 124.324 434.029C122.521 434.853 121.154 436.322 120.469 438.163L112.173 460.473C111.489 462.314 111.564 464.319 112.389 466.121C113.212 467.923 114.68 469.293 116.519 469.979L158.401 485.58C160.241 486.264 162.245 486.189 164.046 485.363C165.846 484.539 167.215 483.071 167.9 481.23L176.198 458.92C176.882 457.079 176.807 455.073 175.982 453.271C175.157 451.47 173.691 450.099 171.852 449.414L129.969 433.813C129.139 433.505 128.275 433.349 127.412 433.349H127.41Z" fill="#371A45"/>
<path d="M114.12 471.283C114.621 471.598 115.158 471.861 115.739 472.075L157.625 487.675C161.258 489.028 165.218 488.025 167.804 485.428C168.745 484.486 169.505 483.332 169.994 482.007L173.684 472.098L174.901 468.829L178.296 459.703C180.144 454.737 177.589 449.165 172.634 447.318L163.582 443.95C167.462 446.29 169.269 451.155 167.637 455.548L163.16 467.599L159.341 477.861C157.494 482.822 151.922 485.376 146.965 483.528L114.12 471.285V471.283Z" fill="white"/>
<path d="M114.12 471.283C114.621 471.598 115.158 471.861 115.739 472.074L157.625 487.675C162.582 489.523 168.153 486.975 169.994 482.005L174.901 468.827C172.981 470.763 170.026 472.918 166.886 472.089C165.162 471.637 163.972 469.832 163.16 467.593L159.341 477.855C157.494 482.816 151.922 485.37 146.965 483.522L114.12 471.279V471.283Z" fill="#371A45"/>
<path d="M160.96 490.521C159.57 490.521 158.179 490.272 156.841 489.774L114.957 474.172C114.263 473.917 113.577 473.586 112.938 473.188L114.896 469.187L147.747 481.427C149.584 482.113 151.587 482.036 153.387 481.21C155.189 480.384 156.558 478.918 157.24 477.076L165.538 454.765C166.775 451.443 165.465 447.696 162.426 445.859L164.362 441.845L173.41 445.214C176.37 446.319 178.727 448.516 180.047 451.407C181.37 454.298 181.49 457.521 180.386 460.482L172.089 482.79C170.989 485.75 168.793 488.11 165.905 489.434C164.323 490.157 162.643 490.521 160.959 490.521H160.96ZM156.238 484.772L158.403 485.58C160.241 486.266 162.243 486.189 164.046 485.363C165.848 484.538 167.215 483.071 167.898 481.23L176.195 458.918C176.88 457.077 176.803 455.071 175.98 453.27C175.157 451.468 173.687 450.098 171.848 449.41L169.946 448.701C170.694 451.129 170.669 453.803 169.729 456.327L161.433 478.636C160.463 481.249 158.639 483.395 156.238 484.772V484.772Z" fill="#371A45"/>
<path d="M146.904 460.731C146.602 461.558 145.326 468.656 145.326 468.656C145.326 468.656 147.437 469.429 150.032 470.379C153.273 471.564 157.126 469.168 158.64 465.025C160.154 460.883 158.752 456.563 155.513 455.378C153.327 454.577 150.807 453.655 150.807 453.655C150.807 453.655 147.398 459.382 146.906 460.729L146.904 460.731Z" fill="#22A7F0"/>
<path d="M146.904 460.731C146.602 461.558 145.326 468.656 145.326 468.656C145.326 468.656 147.437 469.429 150.032 470.379C153.273 471.564 157.126 469.168 158.64 465.025C160.154 460.883 158.752 456.563 155.513 455.378C153.327 454.577 150.807 453.655 150.807 453.655C150.807 453.655 147.398 459.382 146.906 460.729L146.904 460.731Z" fill="#371A45"/>
<path d="M151.766 472.028C151.02 472.028 150.281 471.899 149.571 471.639L143.805 469.529L144.005 468.417C144.309 466.725 145.328 461.137 145.644 460.268C146.165 458.845 149.299 453.565 149.653 452.969L150.222 452.012L155.973 454.117C157.937 454.835 159.415 456.456 160.136 458.678C160.819 460.784 160.735 463.202 159.9 465.487C159.066 467.771 157.57 469.673 155.691 470.84C154.424 471.627 153.082 472.028 151.764 472.028H151.766ZM146.849 467.783L150.494 469.116C151.664 469.545 153.008 469.347 154.277 468.559C155.65 467.704 156.752 466.286 157.382 464.565C158.012 462.842 158.083 461.046 157.586 459.507C157.126 458.087 156.226 457.068 155.055 456.64L151.398 455.3C150.118 457.482 148.456 460.412 148.171 461.189C148.012 461.656 147.412 464.728 146.852 467.783H146.849Z" fill="#371A45"/>
<path d="M153.931 463.336C155.445 459.194 154.045 454.874 150.805 453.688C147.565 452.502 143.711 454.899 142.197 459.041C140.683 463.183 142.083 467.502 145.323 468.688C148.563 469.874 152.417 467.478 153.931 463.336Z" fill="#22A7F0"/>
<path d="M153.933 463.304C152.423 467.445 148.567 469.843 145.328 468.657C142.083 467.47 140.684 463.15 142.201 459.006C142.404 458.445 142.654 457.917 142.94 457.424C142.735 460.575 144.141 463.388 146.657 464.305C149.456 465.329 152.715 463.684 154.522 460.537C154.465 461.443 154.268 462.376 153.932 463.304H153.933Z" fill="#371A45"/>
<path d="M153.933 463.304C153.831 463.587 153.716 463.859 153.589 464.123C154.132 460.641 152.705 457.399 149.967 456.4C146.947 455.299 143.391 457.303 141.705 460.938C141.804 460.293 141.968 459.651 142.203 459.006C143.713 454.865 147.569 452.467 150.808 453.653C154.047 454.842 155.447 459.158 153.935 463.304H153.933Z" fill="white"/>
<path d="M147.028 470.298C146.297 470.298 145.569 470.176 144.864 469.918C140.934 468.478 139.173 463.377 140.938 458.547C141.772 456.264 143.268 454.362 145.147 453.194C147.131 451.958 149.304 451.675 151.269 452.395C155.198 453.833 156.959 458.934 155.195 463.764C153.747 467.728 150.367 470.298 147.029 470.298H147.028ZM149.08 454.695C148.255 454.695 147.393 454.958 146.564 455.474C145.191 456.328 144.089 457.747 143.459 459.468C142.203 462.908 143.246 466.463 145.787 467.393C148.327 468.317 151.417 466.279 152.673 462.84C153.93 459.401 152.886 455.846 150.345 454.917C149.941 454.768 149.515 454.695 149.08 454.695V454.695Z" fill="#371A45"/>
<path d="M128.819 478.554C128.626 478.554 128.427 478.522 128.234 478.455C127.3 478.131 126.804 477.112 127.128 476.177L131.058 464.794C131.775 462.718 131.407 460.439 130.072 458.694C127.957 455.927 127.411 452.324 128.613 449.055L134.476 433.125C134.818 432.195 135.847 431.723 136.774 432.063C137.7 432.405 138.176 433.435 137.835 434.363L131.972 450.293C131.196 452.403 131.546 454.731 132.914 456.516C134.979 459.217 135.549 462.749 134.44 465.964L130.51 477.347C130.254 478.088 129.56 478.554 128.819 478.554Z" fill="#371A45"/>
<path d="M222.706 470.81C222.706 470.81 226.056 475.219 224.222 480.191C222.102 485.938 216.994 487.158 216.994 487.158C216.994 487.158 199.478 491.766 168.593 477.458C168.593 477.458 163.872 465.924 175.599 463.181C175.599 463.181 202.667 479.222 222.706 470.81V470.81Z" fill="white"/>
<path d="M224.263 480.078C222.168 485.92 216.992 487.156 216.992 487.156C216.992 487.156 199.478 491.762 168.593 477.458C168.593 477.458 164.987 468.643 171.911 464.592C171.902 464.629 171.895 464.665 171.887 464.703C171.095 468.496 173.172 472.327 176.735 473.846C205.051 485.906 221.013 481.71 221.013 481.71C221.013 481.71 222.54 481.346 224.263 480.076V480.078Z" fill="#371A45"/>
<path d="M209.149 490.12C201.103 490.12 187.456 488.433 169.029 480.119C167.489 479.423 166.325 478.022 165.919 476.371C164.158 469.211 166.973 463.639 173.45 461.465C174.878 460.985 176.476 461.133 177.832 461.868C181.889 464.069 202.952 474.777 219.49 469.603C222.343 468.709 225.426 470.326 226.366 473.203C227.23 475.853 227.214 478.538 226.319 480.966C223.812 487.759 217.769 489.274 217.513 489.335C217.246 489.405 214.381 490.12 209.147 490.12H209.149ZM175.166 465.663C175.064 465.663 174.965 465.679 174.872 465.709C170.602 467.142 169.051 470.369 170.264 475.3C170.345 475.628 170.57 475.902 170.869 476.038C199.671 489.031 216.269 485.03 216.434 484.991C216.618 484.942 220.468 483.902 222.123 479.415C222.674 477.922 222.67 476.299 222.114 474.594C221.935 474.044 221.343 473.713 220.827 473.878C203.03 479.453 181.789 469.109 175.703 465.806C175.531 465.713 175.345 465.665 175.166 465.665V465.663Z" fill="#371A45"/>
<path d="M124.929 482.075C125.079 481.461 125.834 478.502 127.001 473.785C125.834 478.502 125.086 481.462 124.929 482.075Z" fill="#371A45"/>
<path d="M124.902 482.196L124.896 482.193C124.896 482.193 124.909 482.154 124.927 482.08C124.914 482.157 124.902 482.196 124.902 482.196Z" fill="#371A45"/>
<path d="M53.6498 482.94C54.4533 483.919 55.1477 484.867 55.851 485.855C56.5417 486.84 57.211 487.836 57.8302 488.864C59.0649 490.909 60.1995 493.066 60.8079 495.344C59.5767 493.343 57.9572 491.699 56.2643 490.155C55.4179 489.384 54.5321 488.655 53.6355 487.945C52.7443 487.247 51.8066 486.541 50.9119 485.938C49.9706 485.306 49.7218 484.029 50.3535 483.088C50.9852 482.146 52.2594 481.897 53.2007 482.53C53.3671 482.642 53.5138 482.775 53.6355 482.924L53.6498 482.942V482.94Z" fill="#371A45"/>
<path d="M239.131 479.476C239.115 479.761 239.149 480.008 239.224 480.237C239.176 479.992 239.145 479.738 239.131 479.476Z" fill="#371A45"/>
<path d="M60.5004 527.004C61.5186 525.804 62.0501 523.977 61.7065 521.25C60.0512 508.09 38.1027 478.409 25.9232 485.841C25.5367 487.399 25.3094 489.238 25.2808 491.4C25.0499 507.699 45.3843 528.515 60.5004 527.004Z" fill="#848484"/>
<path d="M32.8735 510.954C40.1265 520.548 51.2877 527.927 60.5002 527.004C61.5185 525.804 62.05 523.978 61.7064 521.25C60.9512 515.245 55.9727 505.803 49.6181 498.016C51.8729 502.913 55.7669 515.263 50.4825 517.964C45.198 520.664 38.1992 513.977 32.8735 510.954V510.954Z" fill="#371A45"/>
<path d="M29.9442 506.582C28.4141 503.009 27.5552 499.379 27.6017 495.955C27.6017 495.853 27.6053 495.752 27.6071 495.652C27.6983 491.521 31.68 488.548 35.6492 489.694C43.8685 492.069 53.4317 502.968 59.1188 513.078C52.6479 498.811 35.9624 479.713 25.9231 485.841C25.5366 487.4 25.3093 489.239 25.2807 491.401C25.2127 496.295 26.9986 501.602 29.9442 506.582Z" fill="white"/>
<path d="M58.9184 528.874C52.2918 528.874 44.6702 525.321 37.7108 518.927C28.8133 510.753 23.3642 500.196 23.4894 491.375C23.5181 489.158 23.7525 487.151 24.1838 485.408L24.3609 484.694L24.989 484.31C28.2424 482.328 32.3082 482.41 36.7462 484.55C48.6663 490.299 62.1306 510.295 63.4799 521.024C63.8611 524.047 63.3171 526.449 61.8622 528.163L61.3951 528.715L60.6758 528.786C60.0977 528.844 59.5126 528.872 58.9167 528.872L58.9184 528.874ZM27.489 487.032C27.2313 488.333 27.0899 489.805 27.0685 491.426C26.9593 499.141 32.0863 508.9 40.132 516.291C46.5618 522.197 53.727 525.514 59.5161 525.281C59.9957 524.368 60.1335 523.093 59.9313 521.476C58.7126 511.785 46.0213 493.002 35.1947 487.781C32.1704 486.323 29.5828 486.072 27.4908 487.034L27.489 487.032Z" fill="#371A45"/>
<path d="M30.3127 494.844C28.0633 494.844 25.9767 494.569 24.4807 493.815C23.5985 493.369 23.2441 492.292 23.6879 491.409C24.1335 490.526 25.209 490.172 26.0913 490.616C29.1173 492.144 37.8484 490.679 42.6408 489.398C43.5946 489.144 44.5771 489.712 44.8312 490.666C45.0871 491.622 44.5198 492.604 43.5642 492.858C42.5621 493.127 35.9265 494.843 30.311 494.843L30.3127 494.844Z" fill="#371A45"/>
<path d="M35.5222 503.967C32.5533 503.967 29.4038 503.478 26.3115 502.153C25.4024 501.764 24.9819 500.711 25.3702 499.801C25.7603 498.892 26.8108 498.471 27.7198 498.859C37.6857 503.129 49.017 496.975 49.1297 496.913C49.9958 496.433 51.0839 496.748 51.5617 497.611C52.0413 498.474 51.7299 499.563 50.8673 500.043C50.4844 500.256 43.6913 503.965 35.5222 503.965V503.967Z" fill="#371A45"/>
<path d="M39.9994 512.381C37.5621 512.381 34.8223 512.157 31.7586 511.616C30.7851 511.444 30.1355 510.515 30.3073 509.542C30.4791 508.568 31.4061 507.92 32.3796 508.088C48.0702 510.857 53.8396 504.723 53.8969 504.66C54.5608 503.926 55.6917 503.872 56.4255 504.537C57.1574 505.203 57.2111 506.335 56.5471 507.067C56.3127 507.327 51.5687 512.381 39.9994 512.381V512.381Z" fill="#371A45"/>
<path d="M46.2218 522.301C44.7329 522.301 43.1474 522.156 41.4671 521.819C40.4971 521.626 39.869 520.682 40.0623 519.713C40.2555 518.744 41.1933 518.112 42.1685 518.307C52.4315 520.358 58.6232 513.946 58.6841 513.882C59.3641 513.164 60.4951 513.13 61.2145 513.81C61.9339 514.489 61.9643 515.623 61.286 516.343C61.023 516.622 55.5363 522.299 46.2236 522.299L46.2218 522.301Z" fill="#371A45"/>
<path d="M268.613 363.983C267.701 363.798 267.11 362.908 267.294 361.995L276.933 314.354C277.117 313.441 278.007 312.85 278.919 313.034C288.495 314.974 294.685 324.315 292.747 333.899L289.459 350.144C287.521 359.727 278.187 365.922 268.612 363.983H268.613Z" fill="white"/>
<path d="M272.13 364.857C270.936 364.857 269.726 364.739 268.511 364.493C267.319 364.251 266.546 363.084 266.788 361.891L276.426 314.25C276.543 313.672 276.877 313.174 277.369 312.848C277.86 312.522 278.448 312.407 279.026 312.524C283.794 313.489 287.899 316.256 290.587 320.313C293.275 324.369 294.223 329.23 293.259 334.002L289.973 350.248C288.226 358.88 280.612 364.857 272.131 364.857H272.13ZM268.717 363.474C277.996 365.355 287.074 359.328 288.953 350.042L292.239 333.797C293.149 329.298 292.255 324.715 289.719 320.889C287.185 317.064 283.312 314.456 278.817 313.545C278.511 313.484 278.201 313.545 277.94 313.717C277.681 313.888 277.504 314.152 277.441 314.458L267.803 362.099C267.675 362.731 268.083 363.347 268.715 363.476L268.717 363.474Z" fill="#371A45"/>
<g opacity="0.35">
<path d="M292.677 343.209L291.138 350.83C289.198 360.41 279.866 366.606 270.286 364.67C269.374 364.486 268.785 363.59 268.969 362.679L271.527 350.013C271.666 350.642 272.164 351.158 272.831 351.299L273.96 351.525C281.526 353.06 288.948 349.51 292.677 343.211V343.209Z" fill="#371A45"/>
</g>
<path d="M272.13 367.233C270.78 367.233 269.413 367.101 268.04 366.823C265.567 366.32 263.962 363.897 264.463 361.422L274.102 313.781C274.345 312.581 275.039 311.548 276.058 310.871C277.078 310.194 278.302 309.955 279.499 310.199C284.885 311.29 289.527 314.417 292.566 319.001C295.605 323.588 296.678 329.081 295.587 334.475L292.301 350.721C290.327 360.478 281.72 367.233 272.133 367.233H272.13ZM270.379 361.339C277.953 362.244 285.087 357.175 286.626 349.571L289.912 333.325C290.696 329.448 289.925 325.497 287.741 322.202C285.78 319.243 282.892 317.128 279.518 316.159L270.379 361.339V361.339Z" fill="#371A45"/>
<path d="M121.793 281.196C122.706 281.381 123.297 282.271 123.112 283.184L113.474 330.825C113.289 331.738 112.4 332.329 111.487 332.145C101.912 330.205 95.7217 320.864 97.6598 311.28L100.947 295.035C102.885 285.451 112.219 279.257 121.795 281.196H121.793Z" fill="white"/>
<path d="M111.825 332.7C111.679 332.7 111.53 332.686 111.382 332.655C106.614 331.69 102.509 328.925 99.8214 324.867C97.1335 320.81 96.1832 315.948 97.1496 311.177L100.435 294.931C102.429 285.083 112.053 278.691 121.895 280.686C122.473 280.802 122.971 281.137 123.296 281.63C123.622 282.121 123.737 282.71 123.62 283.288L113.982 330.929C113.866 331.507 113.531 332.005 113.039 332.331C112.674 332.573 112.253 332.7 111.825 332.7V332.7ZM118.277 281.363C110.279 281.363 103.102 286.997 101.453 295.139L98.1678 311.384C97.257 315.883 98.1517 320.466 100.687 324.292C103.223 328.117 107.094 330.725 111.589 331.636C111.895 331.699 112.207 331.636 112.466 331.464C112.726 331.292 112.903 331.029 112.965 330.723L122.604 283.082C122.666 282.776 122.604 282.466 122.432 282.207C122.26 281.947 121.997 281.77 121.691 281.707C120.546 281.474 119.404 281.363 118.279 281.363H118.277Z" fill="#371A45"/>
<g opacity="0.35">
<path d="M116.151 317.611L113.476 330.829C113.291 331.742 112.397 332.331 111.486 332.147C106.461 331.126 102.363 328.069 99.886 324.003C97.6508 320.332 96.74 315.835 97.6598 311.286L99.0449 304.441C100.548 310.998 105.757 316.408 112.778 317.832L114.515 318.183C115.151 318.31 115.759 318.068 116.153 317.611H116.151Z" fill="#371A45"/>
</g>
<path d="M111.831 335.077C111.525 335.077 111.217 335.045 110.911 334.984C105.525 333.893 100.883 330.766 97.844 326.181C94.8053 321.595 93.7316 316.1 94.8232 310.708L98.1088 294.462C100.362 283.329 111.244 276.107 122.366 278.361C123.565 278.605 124.597 279.3 125.274 280.319C125.95 281.34 126.188 282.561 125.945 283.761L116.306 331.402C116.063 332.602 115.369 333.635 114.351 334.312C113.592 334.815 112.72 335.077 111.829 335.077H111.831ZM118.279 283.74C111.387 283.74 105.201 288.595 103.78 295.612L100.494 311.857C99.7104 315.735 100.482 319.685 102.665 322.981C104.626 325.939 107.515 328.055 110.888 329.023L120.027 283.843C119.44 283.774 118.857 283.74 118.277 283.74H118.279Z" fill="#371A45"/>
<path d="M195.214 405.423C240.924 405.423 277.98 368.338 277.98 322.592C277.98 276.846 240.924 239.761 195.214 239.761C149.504 239.761 112.449 276.846 112.449 322.592C112.449 368.338 149.504 405.423 195.214 405.423Z" fill="white"/>
<path d="M195.343 405.98C187.865 405.98 180.341 404.963 172.938 402.907C151.501 396.952 133.665 383 122.717 363.619C111.767 344.239 109.013 321.752 114.963 300.299C127.246 256.012 173.242 229.983 217.49 242.276C261.741 254.569 287.749 300.598 275.467 344.884C269.517 366.338 255.577 384.186 236.21 395.145C223.533 402.319 209.521 405.978 195.343 405.978V405.98ZM195.239 240.272C159.209 240.272 126.058 264.179 115.963 300.578C110.088 321.763 112.806 343.971 123.621 363.109C134.435 382.246 152.047 396.024 173.215 401.906C194.384 407.787 216.574 405.065 235.697 394.242C254.82 383.42 268.586 365.793 274.463 344.608C286.593 300.875 260.909 255.42 217.211 243.281C209.881 241.244 202.501 240.274 195.239 240.274V240.272Z" fill="#371A45"/>
<g opacity="0.35">
<path d="M277.263 333.485C276.77 337.235 276.005 340.994 274.966 344.746C262.734 388.823 217.121 414.637 173.075 402.407C129.033 390.166 103.239 344.517 115.46 300.437C115.811 299.169 116.192 297.908 116.6 296.676C111.201 337.022 136.215 376.188 176.515 387.385C219.294 399.264 263.545 375.257 277.265 333.485H277.263Z" fill="#371A45"/>
</g>
<path d="M195.346 408.356C187.655 408.356 179.917 407.311 172.305 405.195C150.258 399.072 131.913 384.722 120.652 364.788C109.39 344.857 106.557 321.729 112.676 299.665C125.308 254.116 172.611 227.347 218.124 239.989C240.171 246.114 258.515 260.463 269.776 280.396C281.038 300.329 283.871 323.457 277.752 345.522C271.632 367.586 257.294 385.945 237.377 397.215C224.339 404.594 209.928 408.358 195.346 408.358V408.356ZM195.239 242.647C160.249 242.647 128.053 265.866 118.25 301.212C112.543 321.786 115.185 343.353 125.687 361.939C136.188 380.525 153.294 393.905 173.853 399.617C194.409 405.326 215.96 402.685 234.532 392.175C253.103 381.666 266.473 364.547 272.18 343.972C283.96 301.5 259.018 257.357 216.579 245.568C209.46 243.59 202.293 242.647 195.243 242.647H195.239Z" fill="#371A45"/>
<path d="M274.141 346.725C270.045 362.407 261.156 375.636 249.311 385.408C240.432 392.733 209.492 401.526 176.309 393.164C145.54 385.411 121.89 361.726 117.726 350.989C112.173 336.667 110.888 320.778 114.984 305.097C125.821 263.597 165.941 255.712 209.893 267.21C253.846 278.706 284.978 305.229 274.141 346.729V346.725Z" fill="#371A45"/>
<g opacity="0.5">
<path d="M259.378 338.812C262.787 331.47 261.24 323.514 255.924 321.042C250.608 318.571 243.536 322.519 240.127 329.861C236.719 337.203 238.265 345.159 243.581 347.63C248.897 350.102 255.97 346.154 259.378 338.812Z" fill="white"/>
</g>
<g opacity="0.5">
<path d="M234.68 362.257C236.695 359.135 236.159 355.202 233.482 353.472C230.806 351.742 227.003 352.87 224.988 355.991C222.973 359.113 223.51 363.046 226.186 364.776C228.863 366.506 232.666 365.378 234.68 362.257Z" fill="white"/>
</g>
<g opacity="0.35">
<path d="M268.774 303.961C276.076 315.795 278.492 330.053 274.141 346.721C270.045 362.406 261.153 375.634 249.313 385.405C240.43 392.73 209.491 401.522 176.306 393.164C164.588 390.214 153.908 384.952 144.938 378.969C185.948 388.373 223.671 377.516 234.686 368.431C249.72 356.031 261.003 339.239 266.196 319.338C267.588 314.021 268.425 308.893 268.773 303.961H268.774Z" fill="#111A28"/>
</g>
<path d="M276.802 310.937C276.056 310.937 275.32 310.589 274.855 309.934C274.832 309.902 274.801 309.859 274.782 309.825L274.648 309.615L274.558 309.382C266.045 287.014 242.887 269.401 211.019 261.066C178.979 252.687 150.105 257.062 131.808 273.069L131.623 273.214C130.548 273.984 129.048 273.737 128.28 272.663C127.541 271.628 127.738 270.207 128.714 269.418C148.226 252.388 178.663 247.654 212.229 256.433C245.559 265.152 269.882 283.784 278.985 307.568C279.44 308.585 279.132 309.817 278.191 310.491C277.768 310.792 277.283 310.937 276.802 310.937V310.937Z" fill="#371A45"/>
<g opacity="0.5">
<path d="M126.409 334.457C126.409 334.457 124.258 290.158 150.564 279.612C176.87 269.065 208.571 277.427 207.299 279.268C207.299 279.268 169.962 278.591 148.967 302.779C132.778 321.432 126.409 334.459 126.409 334.459V334.457Z" fill="white"/>
</g>
<path d="M96.8169 336.975C96.8169 336.975 108.506 320.645 128.048 321.604C141.87 322.282 148.171 348.269 133.221 362.231C126.192 368.795 119.855 370.761 117.983 384.856" fill="white"/>
<path d="M117.987 387.564C117.869 387.564 117.747 387.557 117.627 387.541C116.146 387.344 115.106 385.982 115.303 384.5C116.935 372.214 121.987 368.086 127.336 363.714C128.651 362.639 130.011 361.527 131.376 360.252C139.653 352.522 140.442 340.86 137.675 333.293C135.691 327.87 132.044 324.51 127.917 324.308C110.131 323.439 99.1237 338.404 99.0146 338.557C98.1395 339.766 96.4502 340.043 95.2405 339.171C94.0289 338.299 93.7498 336.612 94.6195 335.399C95.1331 334.685 107.416 317.868 128.184 318.901C134.555 319.213 140.002 323.9 142.758 331.434C146.231 340.931 145.2 354.749 135.07 364.212C133.574 365.611 132.142 366.78 130.759 367.908C125.684 372.056 122.017 375.052 120.668 385.214C120.487 386.575 119.326 387.564 117.989 387.564H117.987Z" fill="#371A45"/>
<path d="M213.764 415.26L211.278 441.92C152.287 484.439 129.35 423.78 123.221 412.115C121.958 409.712 117.82 402.566 115.265 400.888C112.498 399.067 109.778 392.8 109.474 388.246C109.474 388.246 111.194 371.775 116.795 366.819C122.538 361.744 135.569 363.665 142.074 367.435C151.068 372.647 157.412 384.945 168.145 395.734C181.327 408.972 209.673 404.101 213.766 415.26H213.764Z" fill="#371A45"/>
<path d="M217.08 409.676L211.508 440.627L211.279 441.92C155.675 461.588 131.747 414.915 121.86 402.185C120.196 400.039 115.321 397.224 112.764 395.546C109.997 393.724 108.598 389.901 108.293 385.346V385.339C107.697 376.533 111.194 365.007 116.794 360.053C122.536 354.977 135.568 356.899 142.072 360.669C151.067 365.881 157.41 378.179 168.144 388.968C181.326 402.206 212.99 398.517 217.08 409.678V409.676Z" fill="white"/>
<path d="M211.507 440.627L211.278 441.921C155.674 461.589 131.746 414.915 121.859 402.185C120.195 400.04 115.32 397.224 112.763 395.546C109.997 393.725 108.597 389.901 108.293 385.347C109.841 387.492 111.858 389.346 114.291 389.584C120.438 390.18 129.028 389.942 131.476 393.164C133.924 396.393 138.414 412.562 154.336 426.214C170.404 439.988 198.004 444.467 211.509 440.631L211.507 440.627Z" fill="#371A45"/>
<path d="M216.033 410.063C214.902 407.894 212.536 406.684 210.045 405.736C207.508 404.825 204.774 404.187 201.998 403.601C196.442 402.421 190.706 401.411 184.989 399.883C182.131 399.117 179.271 398.218 176.469 397.038C173.67 395.859 170.925 394.353 168.441 392.371C167.802 391.901 167.238 391.321 166.642 390.789C166.084 390.25 165.597 389.724 165.071 389.19C164.037 388.126 163.047 387.026 162.068 385.921C160.109 383.713 158.267 381.431 156.449 379.162C152.808 374.646 149.39 370 145.417 366.287C143.427 364.439 141.319 362.876 138.967 361.894C136.585 360.839 133.928 360.169 131.283 359.784C128.635 359.399 125.931 359.351 123.452 359.808C122.205 360.012 121.045 360.395 120.036 360.902L119.3 361.301C119.093 361.466 118.883 361.627 118.671 361.783C118.246 362.102 117.803 362.56 117.398 363.01C115.763 364.864 114.44 367.219 113.434 369.708C112.413 372.199 111.682 374.846 111.206 377.522C110.75 380.197 110.544 382.927 110.755 385.547C110.952 388.139 111.597 390.734 112.894 392.392C113.051 392.598 113.212 392.799 113.397 392.958C113.563 393.146 113.756 393.282 113.943 393.424L114.08 393.535L114.297 393.676L114.737 393.961L115.639 394.538C116.86 395.313 118.103 396.103 119.345 396.962C120.591 397.842 121.822 398.701 123.085 399.989C123.805 400.75 124.157 401.322 124.626 401.927L125.913 403.73C129.232 408.528 132.436 413.221 136.006 417.646C137.777 419.863 139.649 421.984 141.573 424.049C143.532 426.074 145.538 428.055 147.677 429.871C148.729 430.8 149.844 431.649 150.936 432.525C152.076 433.331 153.169 434.214 154.355 434.95L156.102 436.105L157.904 437.165C159.091 437.903 160.354 438.489 161.589 439.135C166.589 441.585 171.954 443.255 177.467 444.111C182.977 445.008 188.641 445.062 194.248 444.413C199.867 443.808 205.425 442.511 210.903 440.864L210.919 440.858C211.511 440.681 212.134 441.016 212.313 441.609C212.481 442.171 212.184 442.764 211.647 442.975C206.2 445.101 200.522 446.734 194.684 447.676C188.847 448.584 182.846 448.772 176.909 448.043C170.989 447.264 165.127 445.649 159.717 443.059C154.304 440.491 149.248 437.192 144.74 433.309C142.46 431.395 140.335 429.321 138.264 427.202C136.233 425.05 134.266 422.841 132.414 420.553C128.692 415.995 125.342 411.145 122.055 406.453L120.813 404.733C120.397 404.196 119.948 403.553 119.66 403.277C118.9 402.496 117.763 401.664 116.641 400.894C115.501 400.113 114.301 399.361 113.078 398.592L112.149 398.007L111.679 397.704L111.441 397.55L111.147 397.335C110.752 397.048 110.365 396.751 110.04 396.407C109.684 396.081 109.383 395.727 109.098 395.361C107.953 393.9 107.25 392.288 106.77 390.703C106.294 389.111 106.038 387.521 105.904 385.948C105.636 382.8 105.863 379.714 106.359 376.691C106.878 373.671 107.676 370.706 108.83 367.836C109.981 364.971 111.473 362.175 113.647 359.67C114.206 359.045 114.768 358.45 115.487 357.89L116.589 357.068L117.754 356.425C119.325 355.638 120.954 355.139 122.556 354.874C125.771 354.301 128.921 354.399 131.985 354.843C135.05 355.304 138.049 356.059 140.959 357.347C143.949 358.617 146.542 360.58 148.772 362.664C153.244 366.889 156.682 371.639 160.25 376.143C162.029 378.401 163.802 380.636 165.663 382.769C166.594 383.837 167.53 384.895 168.502 385.911C168.987 386.41 169.477 386.948 169.955 387.417C170.438 387.847 170.871 388.319 171.401 388.708C175.459 392.019 180.778 393.972 186.182 395.474C191.622 396.993 197.292 397.967 202.984 399.445C205.826 400.195 208.694 401.076 211.477 402.437C212.859 403.145 214.229 403.965 215.446 405.077C216.663 406.166 217.703 407.638 218.131 409.289C218.286 409.891 217.925 410.504 217.325 410.66C216.808 410.794 216.284 410.545 216.048 410.092L216.031 410.061L216.033 410.063Z" fill="#371A45"/>
<path d="M153.19 439.117C152.499 439.117 151.819 438.799 151.381 438.197C150.654 437.198 150.873 435.797 151.871 435.068C172.023 420.368 165.329 389.048 165.259 388.733C164.99 387.528 165.749 386.33 166.955 386.061C168.154 385.792 169.355 386.55 169.625 387.755C169.938 389.156 177.046 422.245 154.507 438.686C154.11 438.976 153.648 439.116 153.192 439.116L153.19 439.117Z" fill="#371A45"/>
<path d="M116.452 325.116C115.217 325.116 114.215 324.113 114.215 322.877V156.723C114.215 155.487 115.217 154.484 116.452 154.484C117.687 154.484 118.689 155.487 118.689 156.723V322.879C118.689 324.115 117.687 325.117 116.452 325.117V325.116Z" fill="#371A45"/>
<path d="M65.5359 439.119C64.514 439.119 63.5907 438.413 63.3562 437.373C63.0842 436.168 63.8394 434.968 65.0437 434.696C69.9685 433.58 72.5007 430.222 75.4302 426.334C79.9344 420.357 85.0345 413.597 99.4867 413.939C104.782 414.057 108.667 412.732 111.02 409.963C114.955 405.333 113.633 397.983 113.619 397.91C113.391 396.697 114.188 395.524 115.399 395.295C116.611 395.071 117.779 395.856 118.014 397.068C118.089 397.453 119.767 406.553 114.453 412.839C111.181 416.706 106.11 418.582 99.3776 418.418C87.2482 418.124 83.2325 423.42 79.0038 429.033C75.8346 433.24 72.5562 437.588 66.0334 439.065C65.8669 439.103 65.7005 439.121 65.5377 439.121L65.5359 439.119Z" fill="#371A45"/>
<path d="M169.389 209.103L116.339 183.68L65.3389 213.01C55.1082 218.899 42.578 210.482 44.1295 198.781L51.896 140.431L8.26202 100.939C-0.488756 93.0268 3.63789 78.5041 15.2358 76.3675L48.0324 70.3374C48.0396 70.3249 48.0503 70.332 48.0503 70.332L73.0947 65.7186L97.1299 11.9959C101.938 1.22166 117.017 0.652137 122.632 11.0324L150.624 62.8119L209.12 69.0873C220.84 70.3446 226.04 84.5127 217.91 93.0626L177.354 135.71L187.302 182.996L189.477 193.316C191.892 204.867 180.044 214.192 169.391 209.101L169.389 209.103Z" fill="#FFDA22"/>
<path d="M209.12 69.0853L208.229 68.9868C212.868 76.1165 213.655 81.1562 201.536 92.0254C192.628 100.015 178.827 112.446 169.421 120.924C163.235 126.499 160.671 135.056 162.782 143.115C166.893 158.806 169.926 183.673 166.127 188.102C160.499 194.662 113.402 161.326 113.402 161.326C113.402 161.326 66.3054 194.662 60.6792 188.102C56.9695 183.777 59.6502 159.959 63.7321 144.233C65.9583 135.654 62.8803 126.571 55.9029 121.108C45.8601 113.244 31.7049 101.876 23.2262 93.8092C17.4567 88.311 15.1483 81.1043 17.9793 75.8586L15.2413 76.3673C3.63803 78.5003 -0.490402 93.0301 8.26753 100.939L51.9033 140.433L44.135 198.776C44.0867 199.141 44.0509 199.505 44.0294 199.863C44.0509 199.505 44.0867 199.141 44.135 198.776L44.3819 196.917C46.4596 205.682 56.7118 210.884 65.3409 205.927L116.335 176.59L169.389 202.017C177.941 206.099 187.249 200.898 189.348 192.717L189.473 193.314L187.306 182.996L177.353 135.71L217.912 93.0659C226.037 84.516 220.838 70.3426 209.118 69.0835L209.12 69.0853Z" fill="#371A45"/>
<path d="M221.293 83.7154C219.804 78.4769 215.398 74.0945 209.119 73.4157L208.228 73.3172L160.147 74.3434C146.457 74.6354 134.086 66.209 129.336 53.3555L117.28 20.7211C111.661 10.3318 106.4 10.9031 101.584 21.6846L91.7062 55.0587C87.8283 68.1593 76.0997 77.3737 62.4635 78.0346L17.9777 80.1891L15.2398 80.6977C9.43455 81.7687 5.50117 85.9272 4.11965 90.8272C1.91675 83.2318 6.42098 74.4491 15.2398 72.8247L17.9777 72.3161L48.031 66.7911H48.0489L73.0915 62.1758L97.1267 8.45852C101.942 -2.32291 117.014 -2.89421 122.633 7.495L150.626 59.2691L208.229 65.4461L209.121 65.5446C218.44 66.5439 223.63 75.7099 221.295 83.7154H221.293Z" fill="white"/>
<path d="M58.2382 218.494C54.7844 218.494 51.3432 217.477 48.3314 215.455C42.664 211.651 39.7005 205.082 40.6024 198.31L48.1166 141.815L5.87311 103.593C0.810539 99.0121 -1.17583 92.0847 0.687062 85.5156C2.55175 78.9446 7.87917 74.0966 14.5917 72.8608L70.602 62.554L93.8712 10.5363C96.6593 4.30206 102.627 0.270669 109.447 0.0145655C116.269 -0.248702 122.522 3.32959 125.77 9.33817L152.872 59.4629L209.496 65.5359C216.282 66.263 221.958 70.6992 224.31 77.1107C226.661 83.5223 225.199 90.5804 220.494 95.5269L181.234 136.812L192.961 192.583C194.366 199.267 191.905 206.04 186.538 210.26C181.171 214.479 174.013 215.267 167.857 212.319L116.493 187.71L67.116 216.105C64.3423 217.701 61.2876 218.493 58.24 218.494H58.2382ZM110.149 7.1407C110.006 7.1407 109.861 7.14249 109.716 7.14786C105.568 7.30367 102.078 9.66054 100.382 13.4519L76.3464 67.1836C75.8668 68.2564 74.8897 69.0229 73.7355 69.236L15.8819 79.8813C11.8 80.6335 8.68445 83.4668 7.55168 87.4641C6.41712 91.4597 7.58031 95.509 10.6583 98.2957L54.2923 137.777C55.1638 138.565 55.5915 139.731 55.4358 140.897L47.6746 199.253C47.127 203.372 48.8575 207.211 52.3059 209.525C55.7543 211.839 59.9597 211.984 63.5602 209.916L114.564 180.586C115.582 180 116.824 179.953 117.881 180.46L170.939 205.881C174.683 207.673 178.867 207.213 182.131 204.647C185.395 202.08 186.834 198.121 185.98 194.055L173.867 136.446C173.625 135.296 173.963 134.102 174.774 133.249L215.326 90.6036C218.188 87.5949 219.043 83.4686 217.613 79.5697C216.184 75.669 212.866 73.0775 208.737 72.6334L150.248 66.3598C149.082 66.2344 148.049 65.5431 147.491 64.5097L119.495 12.7356C117.59 9.20922 114.116 7.1407 110.149 7.1407V7.1407Z" fill="#371A45"/>
</svg>
