<svg width="129" height="77" viewBox="0 0 129 77" fill="none" xmlns="http://www.w3.org/2000/svg">
<path opacity="0.25" d="M64.4996 77.0001C100.122 77.0001 128.999 76.2608 128.999 75.3488C128.999 74.4368 100.122 73.6975 64.4996 73.6975C28.8773 73.6975 -0.000244141 74.4368 -0.000244141 75.3488C-0.000244141 76.2608 28.8773 77.0001 64.4996 77.0001Z" fill="#371A45"/>
<path d="M53.5901 50.1178H16.1003C12.7178 39.0833 18.3755 37.571 18.3755 37.571H51.3153C51.3153 37.571 56.973 39.0833 53.5905 50.1178H53.5901Z" fill="white"/>
<g opacity="0.25">
<path d="M53.5902 50.1178H48.9143C44.0363 48.894 39.9377 47.0091 45.8559 47.011C53.9818 47.0149 52.3157 40.2902 51.3111 37.571H51.315C51.315 37.571 56.9727 39.0833 53.5902 50.1178Z" fill="#371A45"/>
</g>
<path d="M53.5901 50.6797H16.1007C15.8537 50.6797 15.6354 50.5188 15.5629 50.2825C14.1212 45.5803 14.0855 41.9426 15.4571 39.4704C16.5525 37.4963 18.1615 37.0466 18.2298 37.0286C18.5297 36.9493 18.8377 37.1262 18.9182 37.4258C18.998 37.7238 18.822 38.0302 18.5243 38.1122C18.4672 38.1287 17.2705 38.4891 16.419 40.0538C15.6174 41.527 14.9995 44.3641 16.5191 49.5566H53.1716C54.6913 44.3641 54.073 41.5274 53.2717 40.0538C52.418 38.4845 51.2167 38.1264 51.166 38.1118C50.8692 38.0272 50.6939 37.7188 50.7764 37.4216C50.8588 37.1243 51.1626 36.9493 51.4614 37.0282C51.5293 37.0462 53.1383 37.4959 54.2341 39.4701C55.6057 41.9418 55.57 45.5795 54.1282 50.2821C54.0557 50.518 53.8379 50.6793 53.5905 50.6793L53.5901 50.6797Z" fill="#371A45"/>
<path d="M58.2525 74.3297C57.6753 74.9379 56.8713 75.2823 56.0317 75.2823H12.8673C12.0277 75.2823 11.2238 74.9379 10.6466 74.3297C8.18033 71.7265 6.75966 69.4712 6.07771 67.6073C6.07579 67.6073 6.07579 67.6054 6.07579 67.6054C3.76873 61.3152 9.83689 59.4532 12.4251 63.5628C12.4251 63.5628 15.0958 60.731 20.5303 59.2341H48.3688C53.8033 60.7314 56.474 63.5628 56.474 63.5628C59.8285 58.2348 69.0356 62.9454 58.2525 74.3297Z" fill="white"/>
<g opacity="0.25">
<path d="M23.8098 75.2092C23.8006 75.2318 23.791 75.256 23.7853 75.2824H12.8675C12.0279 75.2824 11.224 74.9381 10.6467 74.3298C8.18051 71.7267 6.75983 69.4713 6.07788 67.6075C10.5044 75.2809 16.1415 72.8666 13.261 64.8806C13.3304 65.0396 15.5811 70.1451 16.6416 70.7442C17.719 71.3524 18.8904 69.7149 18.8904 69.7149C18.8904 69.7149 24.4189 73.733 23.8098 75.2096V75.2092Z" fill="#371A45"/>
</g>
<g opacity="0.25">
<path d="M44.805 75.2092C44.8142 75.2318 44.8238 75.256 44.8296 75.2824H55.7477C56.5873 75.2824 57.3913 74.9381 57.9685 74.3298C60.4347 71.7267 61.8554 69.4713 62.5374 67.6075C58.1108 75.2809 52.4737 72.8666 55.3542 64.8806C55.2848 65.0396 53.0341 70.1451 51.9736 70.7442C50.8962 71.3524 49.7248 69.7149 49.7248 69.7149C49.7248 69.7149 44.1963 73.733 44.8054 75.2096L44.805 75.2092Z" fill="#371A45"/>
</g>
<path d="M12.388 75.6773C12.2239 75.6773 12.0386 75.6524 11.83 75.5942C11.5807 75.5248 11.4349 75.2667 11.5047 75.0177C11.5741 74.7691 11.833 74.6235 12.082 74.6929C12.5645 74.8273 12.6431 74.6599 12.6899 74.5596C13.4301 72.9841 10.0303 65.3326 7.38921 63.5078C6.68271 63.0198 6.44376 63.2645 6.35401 63.3569C6.17335 63.5419 5.87687 63.5461 5.69123 63.3657C5.50598 63.1852 5.50176 62.8892 5.68241 62.7038C6.01188 62.3663 6.74024 61.9212 7.92234 62.7379C10.5788 64.5734 14.6088 72.6777 13.5379 74.9568C13.4248 75.1977 13.1083 75.6765 12.3876 75.6765L12.388 75.6773Z" fill="#371A45"/>
<path d="M12.8887 63.2453C13.9902 65.1276 14.9165 67.0914 15.6886 69.1242C15.7684 69.3418 15.4538 69.4835 15.3457 69.2751C14.3676 67.3921 13.2354 65.5711 11.9612 63.88C11.4948 63.2445 12.4602 62.5796 12.8883 63.2449L12.8887 63.2453Z" fill="#371A45"/>
<path d="M56.0317 75.844H12.8677C11.8766 75.844 10.9181 75.4322 10.2388 74.7148C6.04201 70.2838 4.24009 66.1125 5.29524 63.27C5.80651 61.8933 6.97059 60.9825 8.40967 60.8338C9.927 60.6776 11.4485 61.3873 12.5098 62.7134C13.5297 61.8217 16.1259 59.8648 20.3807 58.6927C20.681 58.6103 20.9898 58.7861 21.0722 59.0845C21.1547 59.3833 20.979 59.6924 20.6798 59.7751C15.4812 61.2073 12.8596 63.9211 12.8339 63.9483C12.7143 64.0743 12.5428 64.1387 12.3702 64.1211C12.1972 64.1042 12.0419 64.0085 11.9495 63.8618C11.1237 62.5502 9.81193 61.8179 8.5255 61.9508C7.50717 62.0561 6.71399 62.6789 6.34962 63.6603C5.92349 64.8082 5.52882 68.1077 11.0558 73.9429C11.5237 74.4374 12.1842 74.7209 12.8677 74.7209H56.0317C56.7152 74.7209 57.3757 74.4374 57.844 73.9429C63.371 68.1081 62.9763 64.8082 62.5502 63.6603C62.1858 62.6789 61.3926 62.0561 60.3743 61.9508C59.0878 61.819 57.7761 62.5502 56.9503 63.8618C56.8579 64.0088 56.7022 64.105 56.5288 64.1218C56.3554 64.1379 56.1844 64.0743 56.0651 63.9479C56.0398 63.9215 53.4182 61.2077 48.2196 59.7755C47.9204 59.6932 47.7443 59.384 47.8272 59.0849C47.91 58.7861 48.2192 58.6103 48.5187 58.693C52.7735 59.8651 55.3697 61.8217 56.3896 62.7138C57.4509 61.3877 58.972 60.6791 60.4897 60.8342C61.9288 60.9828 63.0929 61.8937 63.6042 63.2703C64.6593 66.1125 62.8574 70.2842 58.6606 74.7151C57.9809 75.4326 57.0228 75.8443 56.0313 75.8443L56.0317 75.844Z" fill="#371A45"/>
<path d="M56.5106 75.6773C55.7895 75.6773 55.4735 75.1985 55.3603 74.9575C54.2894 72.6785 58.3194 64.5745 60.9759 62.7386C62.158 61.9216 62.8867 62.3667 63.2158 62.7045C63.3961 62.8895 63.3923 63.186 63.207 63.3664C63.0217 63.5468 62.7249 63.5426 62.5442 63.3576C62.4545 63.2649 62.2155 63.0209 61.509 63.5085C58.8683 65.3333 55.4681 72.9849 56.2084 74.5603C56.2551 74.6603 56.3334 74.8277 56.8163 74.6936C57.0652 74.6239 57.3237 74.7695 57.3935 75.0185C57.4629 75.2674 57.3176 75.5256 57.0683 75.5949C56.8596 75.6531 56.6744 75.678 56.5102 75.678L56.5106 75.6773Z" fill="#371A45"/>
<path d="M56.9378 63.8804C55.6636 65.5719 54.531 67.3929 53.5529 69.2763C53.4482 69.4808 53.1272 69.341 53.2104 69.1242C53.783 67.6062 54.4566 66.1208 55.2118 64.6817C55.4661 64.1983 55.7227 63.7276 56.0103 63.2449C56.1695 62.978 56.5151 62.8903 56.7824 63.0492C57.0731 63.2193 57.1468 63.6173 56.9374 63.88L56.9378 63.8804Z" fill="#371A45"/>
<path d="M71.9257 55.0192C69.5362 58.3842 60.8691 56.3798 60.8691 56.3798C56.5119 57.7832 51.9523 57.0574 51.9523 57.0574C51.9523 57.0574 48.3128 58.4574 43.5119 60.2538C34.5782 63.5981 21.6253 68.3164 20.6093 67.9514C19.0463 67.3898 13.3007 63.5234 13.7372 55.85C14.1737 48.1766 23.2665 42.0664 23.2665 42.0664H44.5329C45.4269 42.6954 46.3413 43.309 47.2841 43.8931C51.1522 46.2925 55.466 48.1881 60.5166 48.4972C61.8283 47.8422 63.7511 46.4143 65.0855 46.695C66.4198 46.9758 65.507 49.9233 65.507 49.9233C68.3069 49.5414 70.6642 50.0861 71.8505 51.2034C72.8474 52.1411 73.0161 53.4829 71.9253 55.0196L71.9257 55.0192Z" fill="white"/>
<g opacity="0.25">
<path d="M47.2841 43.8931C33.731 51.4616 23.8101 42.8731 23.8101 42.8731L24.7751 42.0664H44.5329C45.427 42.6954 46.3414 43.309 47.2841 43.8931Z" fill="#371A45"/>
</g>
<g opacity="0.25">
<path d="M23.657 46.603C23.657 46.603 22.6153 51.6856 27.0426 51.5297L23.0836 52.1222L19.6167 52.2705C19.6167 52.2705 20.7163 48.8744 23.657 46.603Z" fill="#371A45"/>
</g>
<g opacity="0.25">
<path d="M71.9257 55.0191C69.5362 58.3841 60.8691 56.3797 60.8691 56.3797C56.5119 57.7831 51.9523 57.0573 51.9523 57.0573C51.9523 57.0573 48.3128 58.4573 43.5119 60.2537C38.1203 58.3711 33.8587 56.0595 38.1464 56.0055C45.5957 55.912 44.8366 46.603 44.8366 46.603L45.6651 49.1276C49.1696 54.5698 60.6497 53.6548 60.6497 53.6548C70.8368 56.2544 71.8056 52.4999 71.8509 51.2029C72.8477 52.1406 73.0165 53.4824 71.9257 55.0191Z" fill="#371A45"/>
</g>
<path d="M20.7502 68.5367C20.5741 68.5367 20.4905 68.5065 20.418 68.4804C18.8696 67.9239 12.714 63.9207 13.1758 55.8176C13.6238 47.9568 22.5724 41.857 22.9533 41.6011C23.2106 41.428 23.56 41.4961 23.7334 41.7535C23.9068 42.0106 23.8385 42.3595 23.5811 42.5326C23.4925 42.5924 14.7146 48.58 14.2984 55.8815C13.8792 63.2389 19.321 66.8667 20.7659 67.4117C20.7789 67.4125 20.7931 67.4129 20.8081 67.4129C22.7427 67.4129 40.7262 60.7737 51.7506 56.5331C51.8431 56.4975 51.9436 56.4875 52.041 56.5024C52.0851 56.5097 56.5255 57.1896 60.6962 55.8459C60.7929 55.8149 60.8968 55.8107 60.9954 55.8333C63.3051 56.3668 69.6882 57.2007 71.4667 54.6953C71.9515 54.0123 72.4121 53.0049 71.8529 52.0837C71.0421 50.7469 68.4631 50.0881 65.5826 50.4799C65.3928 50.5067 65.2022 50.4328 65.0779 50.2869C64.9536 50.1405 64.913 49.941 64.9697 49.7579C65.1929 49.0336 65.3882 47.8109 65.1228 47.3608C65.076 47.2815 65.0292 47.2578 64.9693 47.2452C64.1593 47.0739 62.856 47.8235 61.8093 48.4253C61.4403 48.6375 61.092 48.8378 60.7687 48.9991C60.6801 49.0431 60.5823 49.0634 60.4829 49.0573C53.6998 48.6429 48.2231 45.3495 44.2096 42.5269C43.9557 42.3484 43.8948 41.9983 44.0739 41.7447C44.2526 41.4912 44.6036 41.431 44.8571 41.6091C48.7187 44.3253 53.9672 47.4899 60.3989 47.927C60.659 47.7914 60.9467 47.6259 61.2481 47.4524C62.5238 46.7185 63.9694 45.8881 65.201 46.1462C65.5826 46.2263 65.891 46.4496 66.0924 46.792C66.4936 47.4734 66.3935 48.5333 66.2462 49.2806C69.3035 49.0428 71.8318 49.8824 72.8149 51.5022C73.4976 52.6276 73.3446 53.9924 72.3841 55.3453C69.9605 58.7589 62.1299 57.2283 60.8945 56.9621C56.9044 58.2047 52.8595 57.75 52.0168 57.6347C50.9632 58.0388 44.052 60.6864 37.0591 63.2435C24.3398 67.8948 21.5621 68.5379 20.7498 68.5379L20.7502 68.5367Z" fill="#371A45"/>
<path d="M57.2144 22.9192C57.2144 31.1185 52.7955 38.2863 46.2045 42.1753C42.8707 44.1441 38.9819 45.2745 34.8273 45.2745C22.4643 45.2745 12.4402 35.2657 12.4402 22.9192C12.4402 10.5727 22.4643 0.562012 34.8273 0.562012C45.4643 0.562012 54.3677 7.96959 56.6482 17.8999V17.9018C57.0191 19.5151 57.2144 21.1936 57.2144 22.9192Z" fill="white"/>
<g opacity="0.25">
<path d="M57.2144 22.919C57.2144 31.1183 52.7955 38.2861 46.2045 42.1751C42.8707 44.1439 38.9819 45.2743 34.8273 45.2743C22.4643 45.2743 12.4402 35.2655 12.4402 22.919C12.4402 22.6271 12.4459 22.3353 12.459 22.0468C12.9162 33.9888 22.7569 43.528 34.8273 43.528C38.9819 43.528 42.8707 42.3977 46.2045 40.4288C52.5611 36.6781 56.896 29.8792 57.1975 22.0449C57.2086 22.3349 57.2144 22.6271 57.2144 22.919Z" fill="#371A45"/>
</g>
<path d="M57.2144 22.9192C57.2144 31.1185 52.7956 38.2863 46.2046 42.1753L44.5968 41.0017L34.8273 41.4395L32.9138 42.8732C19.5463 39.1937 16.2351 28.9004 16.2351 28.9004L17.5001 19.3593C31.2254 5.63155 51.656 10.7014 56.6483 17.8995V17.9014C57.0192 19.5148 57.2144 21.1932 57.2144 22.9188V22.9192Z" fill="#371A45"/>
<g opacity="0.35">
<path d="M57.2144 22.9191C57.2144 31.1185 52.7956 38.2863 46.2046 42.1752L44.5968 41.0016L34.8273 41.4394L32.9138 42.8731C19.5463 39.1937 16.2351 28.9003 16.2351 28.9003L16.4695 27.1299C20.1688 34.0675 27.35 38.7727 35.6014 38.7727C46.3396 38.7727 55.2637 30.8021 57.0645 20.3137C57.1638 21.169 57.2144 22.0374 57.2144 22.9188V22.9191Z" fill="#101928"/>
</g>
<path d="M34.8274 45.8367C22.1733 45.8367 11.8784 35.5555 11.8784 22.9183C11.8784 10.2811 22.1737 0 34.8274 0C47.4811 0 57.7764 10.2811 57.7764 22.9183C57.7764 35.5555 47.4815 45.8367 34.8274 45.8367ZM34.8274 1.12269C22.7935 1.12269 13.003 10.9001 13.003 22.9179C13.003 34.9358 22.7935 44.7136 34.8274 44.7136C46.8613 44.7136 56.6518 34.9362 56.6518 22.9179C56.6518 10.8997 46.8617 1.12307 34.8274 1.12307V1.12269Z" fill="#371A45"/>
<path d="M13.3387 30.0382C16.1202 30.0382 18.3751 26.9798 18.3751 23.2071C18.3751 19.4344 16.1202 16.376 13.3387 16.376C10.5571 16.376 8.30225 19.4344 8.30225 23.2071C8.30225 26.9798 10.5571 30.0382 13.3387 30.0382Z" fill="white"/>
<g opacity="0.25">
<path d="M18.3755 23.2071C18.3755 26.9801 16.121 30.0383 13.3398 30.0383C11.3795 30.0383 9.68 28.5203 8.84961 26.3029C9.76054 27.5343 11.0159 28.2924 12.4028 28.2924C15.184 28.2924 17.4385 25.2342 17.4385 21.4613C17.4385 20.3459 17.2417 19.294 16.8911 18.364C17.8074 19.6012 18.3755 21.3134 18.3755 23.2075V23.2071Z" fill="#371A45"/>
</g>
<path d="M13.3384 30.5997C10.2512 30.5997 7.73975 27.2834 7.73975 23.2071C7.73975 19.1308 10.2512 15.8145 13.3384 15.8145C16.4256 15.8145 18.9371 19.1308 18.9371 23.2071C18.9371 27.2834 16.4256 30.5997 13.3384 30.5997ZM13.3384 16.9375C10.8714 16.9375 8.86432 19.7502 8.86432 23.2071C8.86432 26.664 10.8714 29.4767 13.3384 29.4767C15.8054 29.4767 17.8126 26.664 17.8126 23.2071C17.8126 19.7502 15.8054 16.9375 13.3384 16.9375Z" fill="#371A45"/>
<path d="M11.4296 28.156C9.53103 28.156 7.98608 26.0569 7.98608 23.4772C7.98608 20.8974 9.53103 18.7983 11.4296 18.7983C13.3282 18.7983 14.8731 20.897 14.8731 23.4772C14.8731 26.0573 13.3282 28.156 11.4296 28.156ZM11.4296 19.9214C10.1723 19.9214 9.11066 21.5497 9.11066 23.4772C9.11066 25.4046 10.1727 27.0329 11.4296 27.0329C12.6865 27.0329 13.7486 25.4046 13.7486 23.4772C13.7486 21.5497 12.6865 19.9214 11.4296 19.9214Z" fill="#371A45"/>
<path d="M17.8982 19.7568L17.1023 18.9635C25.7602 10.3045 35.9803 9.81309 41.3024 10.2907C48.163 10.9067 54.5158 13.8365 57.1105 17.5815L56.1857 18.2204C53.7701 14.7344 47.7484 11.9972 41.2016 11.4092C36.0754 10.9484 26.2323 11.4215 17.8978 19.7568H17.8982Z" fill="#371A45"/>
<path d="M32.9144 43.4353C32.8645 43.4353 32.8143 43.4284 32.7648 43.415C25.7174 41.4749 21.4589 37.6935 19.1276 34.8633C16.5897 31.7825 15.7351 29.1809 15.7002 29.0713C15.6051 28.776 15.7681 28.46 16.0635 28.365C16.3588 28.27 16.6752 28.4324 16.7707 28.7274C16.7822 28.7622 17.6172 31.2757 20.0305 34.191C22.2275 36.8455 26.2187 40.3825 32.7989 42.2578L34.49 40.9896C34.5805 40.9218 34.6894 40.8827 34.8026 40.8777L44.5709 40.4411C44.6978 40.4361 44.8244 40.4732 44.9276 40.5483L46.5373 41.722C46.7882 41.905 46.843 42.2563 46.6601 42.5064C46.4771 42.7569 46.1254 42.8117 45.8746 42.629L44.424 41.5714L35.0266 41.9912L33.2527 43.3219C33.1541 43.3958 33.0356 43.4345 32.9151 43.4345L32.9144 43.4353Z" fill="#371A45"/>
<path d="M15.4976 17.5961C15.3623 17.5961 15.2265 17.5474 15.1187 17.449C14.8893 17.2399 14.8732 16.8848 15.0826 16.6557C15.4244 16.2823 23.5948 7.49498 36.2247 6.41251C36.4173 6.39566 36.6075 6.48069 36.7237 6.63659L37.3715 7.5057C38.7623 7.60912 45.1661 8.17295 49.435 10.0429L50.0494 9.35769C50.2259 9.16119 50.5154 9.11331 50.7452 9.24355C50.8683 9.31326 53.7802 10.9737 55.5733 13.1498C55.7705 13.3892 55.7363 13.7431 55.4966 13.94C55.2569 14.1369 54.9025 14.1028 54.7054 13.8634C53.4136 12.2956 51.4122 10.9695 50.5772 10.4524L49.9973 11.0994C49.8312 11.2844 49.5631 11.3384 49.3383 11.2323C44.8527 9.11561 37.1176 8.61268 37.0402 8.60808C36.8752 8.59774 36.723 8.51539 36.624 8.38286L36.0099 7.55933C23.9872 8.72491 15.9928 17.3253 15.913 17.413C15.8022 17.5344 15.6503 17.5957 15.4976 17.5957V17.5961Z" fill="#371A45"/>
<g opacity="0.5">
<path d="M35.6004 19.0431C37.1701 19.0431 38.4425 17.8631 38.4425 16.4074C38.4425 14.9518 37.1701 13.7717 35.6004 13.7717C34.0308 13.7717 32.7583 14.9518 32.7583 16.4074C32.7583 17.8631 34.0308 19.0431 35.6004 19.0431Z" fill="#FFFDF9"/>
</g>
<g opacity="0.5">
<path d="M52.0724 21.2779C50.8205 20.2935 49.2257 19.8928 47.6386 20.0334C41.9678 20.5386 37.8488 13.9829 43.7217 13.4604C43.7217 13.4604 57.2711 14.2204 55.1401 25.0937C55.1401 25.0937 54.1938 22.9491 52.0724 21.2775V21.2779Z" fill="#FFFDF9"/>
</g>
<path d="M65.6066 50.4755L63.3862 50.5893C63.0567 50.605 62.975 50.1346 63.2869 50.0366L65.4079 49.3705C66.2252 49.1571 66.4481 50.3909 65.607 50.4755H65.6066Z" fill="#371A45"/>
<path d="M53.1845 57.6533C53.1243 57.6533 53.0629 57.6418 53.0039 57.6169C52.7653 57.5169 52.6525 57.2431 52.7526 57.0044C55.2484 51.0478 52.6318 47.1037 52.6054 47.0646C52.4596 46.8512 52.5148 46.5601 52.7285 46.4146C52.9425 46.269 53.234 46.3242 53.3794 46.5375C53.5002 46.7145 56.307 50.9455 53.6168 57.366C53.5416 57.5453 53.3675 57.6533 53.1845 57.6533Z" fill="#371A45"/>
<path d="M14.4632 61.5221C14.4264 61.5221 14.3888 61.5175 14.3512 61.5083C14.1015 61.4466 13.9477 61.1973 14.0075 60.9472C14.029 60.8571 14.5714 58.7263 17.5926 57.7323C17.8381 57.6515 18.1035 57.7852 18.184 58.0303C18.265 58.2759 18.1315 58.5405 17.8856 58.621C15.3872 59.443 14.9361 61.0985 14.9181 61.1682C14.8636 61.3796 14.6726 61.5217 14.4632 61.5217V61.5221Z" fill="#371A45"/>
<path d="M22.0328 52.0423C22.019 50.4933 22.3976 48.9662 22.9844 47.5451C23.1743 47.0789 23.4036 46.6315 23.6411 46.1926C23.6902 46.1014 23.8041 46.0677 23.8954 46.1167C23.9817 46.1631 24.0162 46.2673 23.979 46.355C23.8041 46.8081 23.6399 47.2632 23.516 47.7289C23.1471 49.0857 22.9702 50.527 23.1509 51.9217C23.2587 52.7065 22.0973 52.8348 22.0332 52.0423H22.0328Z" fill="#371A45"/>
<path d="M45.3437 51.9216C45.5788 50.0424 45.2067 48.1103 44.5156 46.3549C44.4262 46.1392 44.7392 45.9856 44.8531 46.1925C45.8319 47.9767 46.4713 49.9899 46.4613 52.0422C46.3981 52.8321 45.2367 52.7091 45.3433 51.9216H45.3437Z" fill="#371A45"/>
<path d="M41.6602 52.4498H27.6687C27.4926 52.4498 27.3312 52.351 27.2514 52.1943C27.1712 52.0376 27.1862 51.8496 27.2894 51.7071L29.023 49.3207C29.1112 49.1993 29.252 49.1277 29.4023 49.1277H39.927C40.0769 49.1277 40.2181 49.1997 40.3063 49.3207L42.04 51.7071C42.1435 51.8496 42.1581 52.0376 42.0779 52.1943C41.9981 52.351 41.8367 52.4498 41.6606 52.4498H41.6602ZM28.5873 51.514H40.7416L39.688 50.0638H29.6409L28.5873 51.514Z" fill="#371A45"/>
<path d="M39.5669 52.6448H29.7841C29.6395 52.6448 29.5076 52.5617 29.4454 52.4311C29.3833 52.3005 29.4021 52.1457 29.4938 52.0339L30.7058 50.5523C30.7771 50.4654 30.8834 50.4148 30.9961 50.4148H38.3549C38.4673 50.4148 38.5739 50.4654 38.6453 50.5523L39.8573 52.0339C39.949 52.1457 39.9678 52.3005 39.9056 52.4311C39.8435 52.5617 39.7119 52.6448 39.5669 52.6448ZM30.5742 51.8964H38.7768L38.1773 51.1632H31.1741L30.5746 51.8964H30.5742Z" fill="#371A45"/>
<path d="M52.2035 55.0717L50.3295 69.9052C50.1588 71.247 49.0177 72.2521 47.6646 72.2521H21.8853C20.658 72.2521 19.6028 71.4247 19.2937 70.2702H19.2918C19.2599 70.1523 19.2354 70.0308 19.2204 69.9052L17.3464 55.0717C17.1385 53.4323 18.4184 51.9817 20.075 51.9817H49.4745C50.2597 51.9817 50.9608 52.3073 51.4556 52.824C52.0102 53.3985 52.312 54.2091 52.2035 55.0717Z" fill="#C2C2C8"/>
<g opacity="0.25">
<path d="M52.2035 55.0716L50.3295 69.9052C50.1588 71.247 49.0177 72.2521 47.6646 72.2521H21.8854C20.658 72.2521 19.6028 71.4247 19.2937 70.2702C33.1955 70.4545 41.5918 69.9446 46.0955 66.4881C49.5474 63.8386 50.4304 59.3352 51.456 52.824C52.0106 53.3985 52.3124 54.209 52.2039 55.0716H52.2035Z" fill="#371A45"/>
</g>
<g opacity="0.6">
<path d="M52.2035 55.0717L52.1717 55.3279C51.9166 54.0907 50.8204 53.1362 49.4749 53.1362H20.075C18.7295 53.1362 17.6333 54.0907 17.3782 55.3279L17.3464 55.0717C17.1385 53.4323 18.4184 51.9817 20.075 51.9817H49.4745C51.1311 51.9817 52.411 53.4323 52.2031 55.0717H52.2035Z" fill="#FFFDF9"/>
</g>
<path d="M47.7867 75.2824H21.7624C20.7644 75.2824 19.8953 74.6029 19.6559 73.6353L19.527 73.1144C19.4185 72.6762 19.7507 72.2529 20.2025 72.2529H49.3466C49.7984 72.2529 50.1306 72.6762 50.022 73.1144L49.8931 73.6353C49.6538 74.6029 48.7847 75.2824 47.7867 75.2824Z" fill="#C2C2C8"/>
<g opacity="0.25">
<path d="M50.0214 73.115L49.8922 73.6352C49.654 74.6028 48.7845 75.2823 47.7857 75.2823H21.7629C20.9889 75.2823 20.2916 74.8743 19.9077 74.2381C20.0446 74.2661 20.1831 74.2795 20.3258 74.2795H46.3505C47.3473 74.2795 48.2168 73.5981 48.4569 72.6305L48.5505 72.2524H49.3472C49.7986 72.2524 50.1304 72.6753 50.0218 73.115H50.0214Z" fill="#371A45"/>
</g>
<path d="M47.6634 72.814H21.8854C20.2522 72.814 18.8668 71.5936 18.6624 69.9761L16.788 55.1414C16.6691 54.1999 16.9613 53.2519 17.5896 52.5402C18.2179 51.8285 19.1234 51.4202 20.0735 51.4202H49.4749C50.425 51.4202 51.3306 51.8285 51.9588 52.5402C52.5871 53.2519 52.8793 54.1999 52.7604 55.1414L50.8864 69.9761C50.682 71.594 49.2962 72.814 47.6634 72.814ZM20.0739 52.5432C19.4464 52.5432 18.8484 52.8129 18.4334 53.2829C18.0184 53.7529 17.8255 54.3791 17.9041 55.0008L19.7785 69.8355C19.912 70.8934 20.8179 71.6913 21.8858 71.6913H47.6638C48.7316 71.6913 49.6376 70.8934 49.7714 69.8355L51.6455 55.0008C51.7241 54.3791 51.5312 53.7529 51.1162 53.2829C50.7012 52.8125 50.1032 52.5432 49.4757 52.5432H20.0739Z" fill="#371A45"/>
<path d="M47.7864 75.8438H21.7621C20.5026 75.8438 19.4121 74.9908 19.1099 73.7697L18.981 73.2487C18.8878 72.8714 18.9718 72.4792 19.2119 72.1728C19.452 71.8667 19.8129 71.6909 20.2022 71.6909H49.3467C49.736 71.6909 50.0969 71.8663 50.337 72.1728C50.5771 72.4788 50.6611 72.8711 50.5679 73.2487L50.4391 73.7697C50.1372 74.9908 49.0464 75.8438 47.7868 75.8438H47.7864ZM20.2022 72.8144C20.1485 72.8144 20.1155 72.8423 20.0971 72.8653C20.0787 72.8887 20.0599 72.9274 20.0726 72.9795L20.2015 73.5004C20.3794 74.219 21.0211 74.7207 21.7621 74.7207H47.7864C48.5275 74.7207 49.1695 74.219 49.3471 73.5004L49.476 72.9795C49.4886 72.9274 49.4698 72.8887 49.4514 72.8653C49.433 72.8419 49.4 72.8144 49.3463 72.8144H20.2022Z" fill="#371A45"/>
<path d="M27.0898 73.2569H25.0309C24.4356 73.2569 23.9205 72.844 23.7913 72.2641L23.7065 71.8826C23.634 71.5574 23.8818 71.249 24.2155 71.249H27.9056C28.2389 71.249 28.4867 71.5574 28.4146 71.8826L28.3298 72.2641C28.2006 72.8444 27.6855 73.2569 27.0902 73.2569H27.0898Z" fill="#C2C2C8"/>
<path d="M44.5183 73.2569H42.4594C41.8641 73.2569 41.349 72.844 41.2197 72.2641L41.135 71.8826C41.0625 71.5574 41.3103 71.249 41.644 71.249H45.3341C45.6674 71.249 45.9152 71.5574 45.8431 71.8826L45.7583 72.2641C45.629 72.8444 45.1139 73.2569 44.5187 73.2569H44.5183Z" fill="#C2C2C8"/>
<path d="M27.0897 73.7248H25.0308C24.21 73.7248 23.5124 73.1659 23.334 72.3654L23.2492 71.9839C23.1836 71.6893 23.2546 71.386 23.4433 71.1508C23.632 70.9156 23.9135 70.7808 24.2154 70.7808H27.9055C28.2074 70.7808 28.4889 70.9156 28.6776 71.1508C28.8663 71.386 28.9373 71.6893 28.8717 71.9835L28.7869 72.365C28.609 73.1652 27.9113 73.7244 27.0901 73.7244L27.0897 73.7248ZM24.2154 71.7165C24.2093 71.7165 24.1901 71.7165 24.1744 71.7361C24.1586 71.756 24.1625 71.7744 24.164 71.7805L24.2488 72.162C24.3309 72.5309 24.6526 72.7887 25.0308 72.7887H27.0897C27.4683 72.7887 27.7897 72.5309 27.8718 72.162L27.9566 71.7801C27.9581 71.774 27.9619 71.7556 27.9462 71.7357C27.9305 71.7158 27.9113 71.7161 27.9052 71.7161H24.215L24.2154 71.7165Z" fill="#371A45"/>
<path d="M44.518 73.7248H42.4591C41.6383 73.7248 40.9406 73.1659 40.7622 72.3654L40.6775 71.9839C40.6119 71.6893 40.6828 71.386 40.8715 71.1508C41.0602 70.9156 41.3418 70.7808 41.6436 70.7808H45.3338C45.6356 70.7808 45.9171 70.9156 46.1059 71.1508C46.2946 71.386 46.3655 71.6893 46.2999 71.9835L46.2152 72.365C46.0372 73.1652 45.3395 73.7244 44.5183 73.7244L44.518 73.7248ZM41.6436 71.7165C41.6375 71.7165 41.6183 71.7165 41.6026 71.7361C41.5869 71.756 41.5907 71.7744 41.5922 71.7805L41.677 72.162C41.7591 72.5309 42.0809 72.7887 42.4591 72.7887H44.518C44.8965 72.7887 45.2179 72.5309 45.3 72.162L45.3848 71.7801C45.3863 71.774 45.3901 71.7556 45.3744 71.7357C45.3587 71.7158 45.3395 71.7161 45.3334 71.7161H41.6432L41.6436 71.7165Z" fill="#371A45"/>
<path d="M37.7802 62.9723H37.3034C37.244 62.78 37.1573 62.5989 37.0449 62.4303L37.3821 62.1377C37.5251 62.0136 37.5251 61.8117 37.3821 61.6876L36.9375 61.3019C36.7929 61.1766 36.562 61.1766 36.4174 61.3019L36.0803 61.5945C35.8878 61.4969 35.6772 61.4202 35.4574 61.3689V60.9568C35.4574 60.7798 35.2936 60.6377 35.0896 60.6377H34.4602C34.2581 60.6377 34.0943 60.7798 34.0943 60.9568V61.3689C33.8726 61.4206 33.6639 61.4972 33.4699 61.5945L33.1327 61.3019C32.99 61.1766 32.7572 61.1766 32.6142 61.3019L32.1696 61.6876C32.0269 61.8117 32.0269 62.0136 32.1696 62.1377L32.5068 62.4303C32.3944 62.5989 32.3077 62.78 32.2467 62.9723H31.7715C31.5694 62.9723 31.4041 63.1144 31.4041 63.2899V63.8361C31.4041 64.0115 31.5694 64.1551 31.7715 64.1551H32.2467C32.3077 64.3459 32.3944 64.5271 32.5068 64.6956L32.1696 64.9882C32.0269 65.1124 32.0269 65.3142 32.1696 65.4383L32.6142 65.8256C32.7572 65.9497 32.9897 65.9497 33.1327 65.8256L33.4699 65.5329C33.6639 65.6291 33.873 65.7057 34.0943 65.757V66.1707C34.0943 66.3461 34.2581 66.4882 34.4602 66.4882H35.0896C35.2936 66.4882 35.4574 66.3461 35.4574 66.1707V65.757C35.6772 65.7053 35.8878 65.6287 36.0803 65.5329L36.4174 65.8256C36.562 65.9497 36.7929 65.9497 36.9375 65.8256L37.3821 65.4383C37.5251 65.3142 37.5251 65.1124 37.3821 64.9882L37.0449 64.6956C37.1573 64.5271 37.244 64.3459 37.3034 64.1551H37.7802C37.9823 64.1551 38.1461 64.0115 38.1461 63.8361V63.2899C38.1461 63.1144 37.9823 62.9723 37.7802 62.9723ZM35.5261 64.2149C35.3335 64.3819 35.067 64.4853 34.7747 64.4853C34.1902 64.4853 33.7119 64.0701 33.7119 63.5633C33.7119 63.3098 33.8308 63.0784 34.0233 62.9114C34.2159 62.7444 34.4824 62.641 34.7747 62.641C35.067 62.641 35.3335 62.744 35.5261 62.9114C35.7186 63.0784 35.8375 63.3098 35.8375 63.5633C35.8375 63.8169 35.7186 64.0483 35.5261 64.2153V64.2149Z" fill="white"/>
<g opacity="0.2">
<path d="M22.3947 55.3283H23.7924C24.9304 55.3283 25.8858 56.1844 26.0085 57.3143L26.7741 64.363C26.9172 65.6799 25.8843 66.8294 24.5579 66.8294H23.1683C22.0311 66.8294 21.0761 65.9744 20.9522 64.8456L20.1786 57.7969C20.034 56.4793 21.0673 55.3279 22.3947 55.3279V55.3283Z" fill="white"/>
</g>
<path d="M96.9242 22.9736H84.0872V32.1972H96.9242V22.9736Z" fill="#02BAF3"/>
<path d="M96.9243 32.7583H84.0872C83.7765 32.7583 83.5249 32.507 83.5249 32.1967V22.9732C83.5249 22.6629 83.7765 22.4116 84.0872 22.4116H96.9243C97.2349 22.4116 97.4865 22.6629 97.4865 22.9732V32.1967C97.4865 32.507 97.2349 32.7583 96.9243 32.7583ZM84.6495 31.6352H96.362V23.5347H84.6495V31.6352Z" fill="#371A45"/>
<path d="M83.4156 50.2509C83.0532 50.2509 82.7598 49.9575 82.7598 49.5959V22.9736C82.7598 22.6116 83.0536 22.3186 83.4156 22.3186C83.7777 22.3186 84.0715 22.612 84.0715 22.9736V49.5959C84.0715 49.9575 83.7777 50.2509 83.4156 50.2509Z" fill="#371A45"/>
<path d="M83.4153 33.5941C82.453 33.5941 81.6702 32.8123 81.6702 31.8513V23.4528C81.6702 22.4917 82.453 21.71 83.4153 21.71C84.3777 21.71 85.1605 22.4917 85.1605 23.4528V31.8513C85.1605 32.8123 84.3777 33.5941 83.4153 33.5941ZM83.4153 23.0203C83.1764 23.0203 82.9819 23.2145 82.9819 23.4532V31.8517C82.9819 32.0903 83.1764 32.2845 83.4153 32.2845C83.6543 32.2845 83.8487 32.0903 83.8487 31.8517V23.4532C83.8487 23.2145 83.6543 23.0203 83.4153 23.0203Z" fill="#371A45"/>
<path d="M88.0434 47.91C87.9966 47.91 87.9498 47.9073 87.9022 47.9019C87.2341 47.8249 86.7547 47.2213 86.8321 46.554C87.2579 42.8719 84.1415 39.4812 80.843 38.0349C77.3933 36.5226 74.0925 37.0543 72.0133 39.4582C71.5737 39.9669 70.8043 40.0228 70.2953 39.5835C69.7864 39.1442 69.73 38.3762 70.1699 37.8679C72.9438 34.6615 77.4094 33.872 81.823 35.8075C86.7006 37.9464 89.7559 42.4804 89.2527 46.8333C89.181 47.4534 88.6544 47.9104 88.0442 47.9104L88.0434 47.91Z" fill="#B0B9BB"/>
<g opacity="0.6">
<path d="M84.4582 37.4078C85.0738 38.637 83.9895 39.3694 82.8688 39.1901C81.9586 38.095 79.1874 37.4078 79.1874 37.4078C78.2036 36.8697 77.9459 36.0745 78.3674 35.4428C78.7889 34.8112 80.3116 35.4428 80.3116 35.4428C80.3116 35.4428 82.4668 35.981 84.4578 37.4078H84.4582Z" fill="#FFFDF9"/>
</g>
<path d="M88.0436 48.4714C87.975 48.4714 87.9063 48.4676 87.8365 48.4592C87.3655 48.4052 86.9428 48.1704 86.6471 47.7977C86.3518 47.4257 86.2191 46.9607 86.2735 46.4888C86.6678 43.0775 83.7264 39.9121 80.6169 38.5484C77.4051 37.14 74.3478 37.6173 72.4385 39.8247C72.1278 40.184 71.6955 40.4012 71.2211 40.4357C70.7478 40.4705 70.2875 40.3185 69.9274 40.0078C69.5676 39.6972 69.3501 39.2655 69.3156 38.7921C69.2811 38.3182 69.433 37.8597 69.744 37.5001C72.6855 34.0998 77.4001 33.2541 82.0487 35.2926C87.1503 37.5296 90.3422 42.3015 89.811 46.8968C89.7071 47.7942 88.9473 48.4711 88.044 48.4711L88.0436 48.4714ZM77.0637 36.621C78.339 36.621 79.6937 36.9175 81.0688 37.5204C84.556 39.0498 87.8472 42.6657 87.3904 46.6179C87.3705 46.7918 87.4192 46.963 87.5281 47.1002C87.6371 47.2373 87.7928 47.3239 87.9665 47.3438C87.9934 47.3468 88.0187 47.3484 88.0436 47.3484C88.3758 47.3484 88.6554 47.099 88.6937 46.7681C89.169 42.6577 86.2505 38.3615 81.5965 36.3211C77.4173 34.4882 73.2017 35.2214 70.5951 38.2344C70.4805 38.3669 70.4245 38.5358 70.4375 38.7101C70.4502 38.8848 70.5303 39.0437 70.6626 39.1579C70.7953 39.2724 70.9653 39.3279 71.1394 39.3157C71.3143 39.303 71.4735 39.223 71.5878 39.0908C72.9985 37.4602 74.9189 36.621 77.0641 36.621H77.0637Z" fill="#371A45"/>
<path d="M74.1637 38.1887C73.9777 38.1887 73.8162 38.0504 73.7925 37.8612C73.6509 36.7442 72.5923 36.3493 72.5475 36.3332C72.3534 36.2631 72.2517 36.0494 72.3212 35.8552C72.3906 35.661 72.6031 35.5595 72.7975 35.6277C72.8604 35.6499 74.3356 36.185 74.5362 37.7673C74.5622 37.9722 74.4169 38.1595 74.2113 38.1856C74.1952 38.1875 74.1795 38.1887 74.1637 38.1887Z" fill="#371A45"/>
<path d="M76.4924 37.2717C76.4576 37.2717 76.4224 37.2667 76.3871 37.2564C76.1888 37.1981 76.0751 36.9901 76.1333 36.7921C76.3833 35.9379 76.041 35.2577 75.9284 35.0343C75.9062 34.9903 75.8905 34.9574 75.8825 34.9371C75.8059 34.7452 75.8993 34.5272 76.0912 34.4506C76.2818 34.374 76.4978 34.4659 76.5759 34.6555C76.5805 34.6659 76.5878 34.68 76.597 34.6977C76.9868 35.4722 77.0726 36.2474 76.8516 37.0024C76.8037 37.1656 76.6548 37.2717 76.4928 37.2717H76.4924Z" fill="#371A45"/>
<path d="M79.5885 37.7821C79.5387 37.7821 79.4882 37.7721 79.4396 37.7507C79.25 37.6683 79.1631 37.4477 79.2454 37.2581C79.6777 36.2637 79.2791 35.5157 79.2619 35.4843C79.1631 35.3038 79.2274 35.0763 79.407 34.9763C79.5866 34.8756 79.8125 34.938 79.914 35.1169C79.9389 35.161 80.5182 36.2078 79.932 37.5569C79.8707 37.6978 79.7329 37.7821 79.5885 37.7821Z" fill="#371A45"/>
<path d="M82.3261 39.0368C82.2352 39.0368 82.1443 39.0042 82.0722 38.9375C81.9199 38.7974 81.9103 38.5606 82.0507 38.4086C82.8378 37.5567 82.6 36.6504 82.5973 36.6412C82.5424 36.4417 82.6598 36.2356 82.8592 36.1808C83.0591 36.1264 83.265 36.2433 83.3199 36.4424C83.3345 36.4961 83.6674 37.762 82.6015 38.9161C82.5275 38.9962 82.427 39.0364 82.3257 39.0364L82.3261 39.0368Z" fill="#371A45"/>
<path d="M84.7629 40.94C84.6562 40.94 84.5504 40.8948 84.4763 40.8071C84.3429 40.6493 84.3628 40.413 84.5208 40.2797C85.4107 39.5293 85.2009 38.5479 85.1986 38.5384C85.1334 38.3423 85.2419 38.1385 85.4383 38.0734C85.6347 38.0094 85.8495 38.1224 85.9147 38.3189C86.0117 38.61 86.1413 39.8932 85.0041 40.8519C84.9339 40.9113 84.848 40.94 84.7625 40.94H84.7629Z" fill="#371A45"/>
<path d="M86.5192 43.5604C86.365 43.5604 86.2208 43.4646 86.1664 43.3118C86.0969 43.1172 86.1986 42.9031 86.3934 42.8334C87.3527 42.4917 87.6277 42.1424 87.7059 41.9643C87.7692 41.8206 87.7332 41.7268 87.7289 41.7165L88.0657 41.5521L88.3956 41.374C88.4159 41.4119 88.59 41.7555 88.4155 42.2098C88.2091 42.7468 87.6139 43.1938 86.6458 43.5386C86.6044 43.5535 86.5618 43.5604 86.52 43.5604H86.5192Z" fill="#371A45"/>
<path d="M89.26 76.0635C91.8347 76.0635 93.922 73.8639 93.922 71.1506C93.922 68.4374 91.8347 66.2378 89.26 66.2378C86.6852 66.2378 84.5979 68.4374 84.5979 71.1506C84.5979 73.8639 86.6852 76.0635 89.26 76.0635Z" fill="#6D6C80"/>
<g opacity="0.25">
<path d="M94.0557 71.0815C94.0557 73.7954 91.968 75.9944 89.3932 75.9944C87.4011 75.9944 85.7016 74.6767 85.0342 72.824C85.8757 74.1003 87.2756 74.9349 88.8628 74.9349C91.4376 74.9349 93.5252 72.734 93.5252 70.0221C93.5252 69.41 93.4182 68.8243 93.2234 68.2834C93.75 69.0771 94.0553 70.0427 94.0553 71.0815H94.0557Z" fill="#371A45"/>
</g>
<g opacity="0.3">
<path d="M85.651 68.0412C85.651 68.0412 87.7901 67.1177 88.1928 68.9663C88.1928 68.9663 88.6297 70.6164 87.4012 71.4698C87.2987 71.5411 85.0116 72.4289 84.8245 70.7681" fill="white"/>
</g>
<path d="M89.2605 76.6251C86.38 76.6251 84.0361 74.1695 84.0361 71.1511C84.0361 68.1328 86.3796 65.6768 89.2605 65.6768C92.1413 65.6768 94.4848 68.1324 94.4848 71.1511C94.4848 74.1699 92.1413 76.6251 89.2605 76.6251ZM89.2605 66.7998C86.9998 66.7998 85.1607 68.7518 85.1607 71.1511C85.1607 73.5505 86.9998 75.5025 89.2605 75.5025C91.5211 75.5025 93.3602 73.5505 93.3602 71.1511C93.3602 68.7518 91.5211 66.7998 89.2605 66.7998Z" fill="#371A45"/>
<path d="M89.8812 74.0183C91.321 74.0183 92.4882 72.7345 92.4882 71.1509C92.4882 69.5672 91.321 68.2834 89.8812 68.2834C88.4414 68.2834 87.2742 69.5672 87.2742 71.1509C87.2742 72.7345 88.4414 74.0183 89.8812 74.0183Z" fill="#02BAF3"/>
<path d="M89.8809 74.3925C88.2366 74.3925 86.8992 72.9385 86.8992 71.1508C86.8992 69.3632 88.237 67.9092 89.8809 67.9092C91.5248 67.9092 92.8626 69.3632 92.8626 71.1508C92.8626 72.9385 91.5248 74.3925 89.8809 74.3925ZM89.8809 68.6576C88.6501 68.6576 87.6486 69.7761 87.6486 71.1508C87.6486 72.5256 88.6501 73.644 89.8809 73.644C91.1117 73.644 92.1132 72.5256 92.1132 71.1508C92.1132 69.7761 91.1117 68.6576 89.8809 68.6576Z" fill="#371A45"/>
<path d="M79.6498 76.0635C82.2246 76.0635 84.3119 73.8639 84.3119 71.1506C84.3119 68.4374 82.2246 66.2378 79.6498 66.2378C77.0751 66.2378 74.9878 68.4374 74.9878 71.1506C74.9878 73.8639 77.0751 76.0635 79.6498 76.0635Z" fill="#6D6C80"/>
<g opacity="0.25">
<path d="M84.4451 71.0815C84.4451 73.7954 82.3574 75.9944 79.7826 75.9944C77.7905 75.9944 76.091 74.6767 75.4236 72.824C76.2651 74.1003 77.6651 74.9349 79.2522 74.9349C81.827 74.9349 83.9146 72.734 83.9146 70.0221C83.9146 69.41 83.8076 68.8243 83.6128 68.2834C84.1394 69.0771 84.4447 70.0427 84.4447 71.0815H84.4451Z" fill="#371A45"/>
</g>
<g opacity="0.3">
<path d="M76.0402 68.0412C76.0402 68.0412 78.1792 67.1177 78.582 68.9663C78.582 68.9663 79.0188 70.6164 77.7903 71.4698C77.6879 71.5411 75.4008 72.4289 75.2136 70.7681" fill="white"/>
</g>
<path d="M79.6496 76.6251C76.7692 76.6251 74.4253 74.1695 74.4253 71.1511C74.4253 68.1328 76.7688 65.6768 79.6496 65.6768C82.5305 65.6768 84.874 68.1324 84.874 71.1511C84.874 74.1699 82.5305 76.6251 79.6496 76.6251ZM79.6496 66.7998C77.389 66.7998 75.5499 68.7518 75.5499 71.1511C75.5499 73.5505 77.389 75.5025 79.6496 75.5025C81.9103 75.5025 83.7494 73.5505 83.7494 71.1511C83.7494 68.7518 81.9103 66.7998 79.6496 66.7998Z" fill="#371A45"/>
<path d="M80.2706 74.0183C81.7104 74.0183 82.8776 72.7345 82.8776 71.1509C82.8776 69.5672 81.7104 68.2834 80.2706 68.2834C78.8308 68.2834 77.6636 69.5672 77.6636 71.1509C77.6636 72.7345 78.8308 74.0183 80.2706 74.0183Z" fill="#02BAF3"/>
<path d="M80.2703 74.3925C78.626 74.3925 77.2886 72.9385 77.2886 71.1508C77.2886 69.3632 78.6264 67.9092 80.2703 67.9092C81.9142 67.9092 83.252 69.3632 83.252 71.1508C83.252 72.9385 81.9142 74.3925 80.2703 74.3925ZM80.2703 68.6576C79.0395 68.6576 78.038 69.7761 78.038 71.1508C78.038 72.5256 79.0395 73.644 80.2703 73.644C81.5011 73.644 82.5026 72.5256 82.5026 71.1508C82.5026 69.7761 81.5011 68.6576 80.2703 68.6576Z" fill="#371A45"/>
<path d="M120.088 50.7658V72.6625H82.5611C80.6364 72.5541 79.2176 71.9325 78.5618 70.5271C78.2806 69.928 78.1383 69.1872 78.1571 68.2833V61.6207C78.0635 58.8601 78.5786 55.0198 78.5786 55.0198C79.984 46.0402 88.1363 46.2743 88.1363 46.2743H116.762C118.43 46.6037 119.266 47.6088 119.681 48.5874L119.683 48.5893C120.154 49.6971 120.088 50.7658 120.088 50.7658H120.088Z" fill="#B7C6D7"/>
<g opacity="0.25">
<path d="M96.7821 72.6625H82.5601C80.6354 72.5541 79.2167 71.9325 78.5608 70.5271C93.7498 74.2403 96.5608 64.2725 96.5608 64.2725L96.486 66.6737C96.486 66.6737 96.9003 69.7936 96.7821 72.6625Z" fill="#371A45"/>
</g>
<path d="M101.472 46.2735C101.472 46.2735 101.878 42.7495 105.626 42.7495H100.535C100.535 42.7495 97.1619 42.9667 96.2249 46.2735" fill="#B7C6D7"/>
<path d="M94.8239 69.0181C92.3451 69.0181 91.0471 66.9746 90.6689 66.2583H80.7622C80.0185 68.1026 78.2415 68.2022 78.1625 68.2057C77.942 68.2126 77.759 68.0459 77.7494 67.8276C77.7398 67.61 77.9082 67.4254 78.1257 67.4151C78.1874 67.4116 79.6073 67.3147 80.1056 65.7427C80.1577 65.5784 80.3104 65.4666 80.4834 65.4666H90.9156C91.0755 65.4666 91.2201 65.5627 91.2815 65.7105C91.3283 65.822 92.4689 68.4577 95.1768 68.2099C95.3958 68.1911 95.5876 68.3504 95.6075 68.568C95.6275 68.7856 95.4668 68.9782 95.2489 68.9982C95.1035 69.0116 94.9616 69.0177 94.8236 69.0177L94.8239 69.0181Z" fill="#371A45"/>
<path d="M90.1033 72.9591C89.9924 72.9591 89.8858 72.8967 89.8348 72.7902L88.9116 70.8605C88.6868 70.3905 88.2047 70.0867 87.6827 70.0867H82.9451C82.4576 70.0867 82.0042 70.3495 81.7626 70.7724L80.8137 72.4321C80.7324 72.5746 80.551 72.624 80.4083 72.5428C80.2656 72.4616 80.2161 72.28 80.2974 72.1379L81.2463 70.4782C81.5938 69.8707 82.2447 69.4934 82.9451 69.4934H87.6827C88.4321 69.4934 89.1248 69.9297 89.4478 70.6046L90.371 72.5343C90.442 72.6822 90.3791 72.8595 90.231 72.93C90.1896 72.9496 90.1462 72.9591 90.1033 72.9591Z" fill="#371A45"/>
<path d="M112.155 46.274C111.342 47.8966 108.641 47.818 108.641 47.818L98.2089 48.0988C94.742 48.3796 93.7582 53.1518 93.5706 56.3334C93.5031 57.4844 93.2933 58.4293 93.0551 59.1632C92.6336 60.4545 91.5221 61.3998 90.1823 61.6319C88.0759 61.997 85.0642 62.0923 82.7875 61.6748C81.0745 61.3623 79.8134 59.9136 79.7367 58.1769C79.538 53.6498 80.8743 49.6072 80.8743 49.6072V49.6053C83.7659 46.1488 88.1361 46.274 88.1361 46.274H112.156H112.155Z" fill="#371A45"/>
<path d="M116.761 46.2738C117.035 44.6003 116.37 43.7101 115.687 43.2432C115.196 42.9085 114.607 42.7491 114.013 42.7491H108.235C108.235 42.7491 112.629 42.6242 112.345 46.0555" fill="#B7C6D7"/>
<path d="M95.9086 67.2231C96.1019 64.2515 96.4014 61.3037 96.8598 58.3631C97.0937 56.8957 97.368 55.4313 97.7531 53.9876C98.053 52.9052 98.3867 51.8062 98.9789 50.8341C99.1147 50.618 99.7774 49.657 100.034 50.0052C100.093 50.0914 100.069 50.2082 99.9838 50.2656C99.4361 50.6801 99.1289 51.383 98.8746 52.0188C97.6668 55.4857 97.3987 59.2138 97.0792 62.8519C96.9718 64.3216 96.8897 65.7998 96.8444 67.2664C96.8114 67.885 95.8871 67.8555 95.9086 67.2227V67.2231Z" fill="#371A45"/>
<g opacity="0.6">
<path d="M120.088 50.7658V51.5893C120.058 50.6796 119.712 47.9772 116.762 47.3969H88.1362C88.1362 47.3969 79.9842 47.1629 78.5785 56.1425C78.5785 56.1425 78.2057 58.9218 78.1532 61.4521C78.0837 58.7065 78.5785 55.0198 78.5785 55.0198C79.9838 46.0402 88.1362 46.2743 88.1362 46.2743H116.762C120.322 46.976 120.088 50.7658 120.088 50.7658Z" fill="#FFFDF9"/>
</g>
<g opacity="0.6">
<path d="M78.1529 61.4521C78.1529 61.5085 78.1547 61.5644 78.1566 61.6207V62.7438C78.1439 62.332 78.142 61.8961 78.1529 61.4525V61.4521Z" fill="#FFFDF9"/>
</g>
<g opacity="0.6">
<path d="M120.088 51.8884V51.5889C120.096 51.7762 120.088 51.8884 120.088 51.8884Z" fill="#FFFDF9"/>
</g>
<path d="M86.1849 62.5098C84.992 62.5098 83.7746 62.4275 82.6861 62.2283C80.7078 61.8659 79.2641 60.2097 79.1755 58.201C78.9733 53.6237 80.2839 49.5999 80.3395 49.431C80.4366 49.1364 80.7545 48.9767 81.0495 49.074C81.3444 49.1709 81.5048 49.4884 81.4073 49.783C81.3943 49.8224 80.106 53.7876 80.2985 58.152C80.3637 59.6347 81.4288 60.857 82.8886 61.124C85.2164 61.5503 88.1809 61.4082 90.0863 61.0788C91.2328 60.8804 92.1652 60.0802 92.52 58.9905C92.7881 58.1662 92.953 57.2614 93.0094 56.3011C93.1578 53.7804 93.9571 47.8804 98.1639 47.5399C98.1739 47.5391 98.1839 47.5388 98.1942 47.5384L108.627 47.2576C108.638 47.2576 108.648 47.2576 108.659 47.2576C109.313 47.2791 111.121 47.0852 111.652 46.0238C111.848 45.6328 111.824 45.2233 111.582 44.8073C111.1 43.9819 109.932 43.382 108.673 43.3115H100.214C99.9413 43.3341 96.9561 43.6425 96.5879 46.3506C96.5461 46.6581 96.2627 46.8719 95.955 46.8313C95.6474 46.7895 95.4319 46.5065 95.4737 46.1993C95.8753 43.2445 98.7116 42.2846 100.155 42.1896C100.168 42.1889 100.18 42.1885 100.192 42.1885H108.688C108.698 42.1885 108.707 42.1885 108.717 42.1892C110.371 42.2762 111.877 43.0821 112.553 44.2419C112.986 44.9843 113.023 45.7952 112.658 46.5256C111.724 48.391 108.918 48.3853 108.643 48.3803L98.2399 48.6603C94.9252 48.9437 94.2624 54.1423 94.1316 56.367C94.0695 57.4231 93.8869 58.4224 93.5889 59.3379C93.1049 60.8244 91.8365 61.9157 90.2781 62.1854C89.1597 62.3788 87.6914 62.5106 86.1845 62.5106L86.1849 62.5098Z" fill="#371A45"/>
<path d="M116.762 46.8355C116.732 46.8355 116.702 46.8332 116.671 46.8283C116.364 46.7781 116.157 46.4896 116.207 46.1836C116.393 45.0467 116.111 44.2133 115.37 43.7069C114.99 43.4476 114.521 43.3108 114.013 43.3108H108.235C107.924 43.3108 107.673 43.0595 107.673 42.7493C107.673 42.439 107.924 42.1877 108.235 42.1877H114.013C114.749 42.1877 115.437 42.3927 116.004 42.7799C116.783 43.312 117.644 44.3657 117.317 46.3644C117.272 46.6398 117.033 46.8355 116.763 46.8355H116.762Z" fill="#371A45"/>
<path d="M92.3289 70.6972H91.1265C90.7859 70.6972 90.5098 70.4214 90.5098 70.0813C90.5098 69.7411 90.7859 69.4653 91.1265 69.4653H92.3289C92.6695 69.4653 92.9457 69.7411 92.9457 70.0813C92.9457 70.4214 92.6695 70.6972 92.3289 70.6972Z" fill="#02BAF3"/>
<path d="M103.909 42.7492H108.329V42.1214C108.329 41.1458 107.537 40.3552 106.56 40.3552H105.678C104.701 40.3552 103.909 41.1458 103.909 42.1214V42.7492H103.909Z" fill="#02BAF3"/>
<path d="M78.6458 70.6971H79.6391C79.8079 70.6971 79.9632 70.6278 80.0741 70.5175C80.1865 70.4053 80.2559 70.2517 80.2559 70.0816C80.2559 69.7411 79.9786 69.4661 79.6395 69.4661H78.4363C78.3688 69.4661 78.3032 69.4772 78.2434 69.4979" fill="#02BAF3"/>
<path d="M108.329 43.3108H103.909C103.598 43.3108 103.347 43.0595 103.347 42.7492V42.1214C103.347 40.8379 104.392 39.7937 105.678 39.7937H106.56C107.845 39.7937 108.891 40.8379 108.891 42.1214V42.7492C108.891 43.0595 108.639 43.3108 108.329 43.3108ZM104.471 42.1877H107.766V42.1214C107.766 41.4572 107.225 40.9164 106.56 40.9164H105.678C105.012 40.9164 104.471 41.4569 104.471 42.1214V42.1877Z" fill="#371A45"/>
<path d="M101.474 46.8336C101.451 46.8336 101.429 46.8325 101.407 46.8298C101.099 46.7934 100.879 46.5165 100.915 46.2093C101.075 44.8185 102.266 42.1877 105.627 42.1877C105.938 42.1877 106.19 42.439 106.19 42.7493C106.19 43.0595 105.938 43.3108 105.627 43.3108C102.441 43.3108 102.047 46.2158 102.032 46.3395C101.997 46.6241 101.754 46.8336 101.474 46.8336H101.474Z" fill="#371A45"/>
<path d="M90.5075 55.7389C90.7511 55.691 90.9233 55.4719 90.9233 55.224V53.7838C90.9233 51.3117 87.9059 51.5201 87.7609 53.4954C87.7609 53.4954 87.586 55.5673 88.0747 56.8301C88.1452 57.0128 88.3896 57.0442 88.5134 56.8926C88.8187 56.5191 89.4409 55.9491 90.5079 55.7392L90.5075 55.7389Z" fill="#02BAF3"/>
<path d="M82.0186 55.1919C81.8131 55.1405 81.6681 54.9555 81.6615 54.7441C81.6359 53.8991 81.7383 51.9606 83.2007 51.8265C84.9655 51.6649 85.0268 54.4764 84.1807 56.4069C84.1128 56.5616 83.9034 56.5831 83.7998 56.4498C83.4976 56.0594 82.8828 55.4087 82.0186 55.1923V55.1919Z" fill="#02BAF3"/>
<path d="M120.079 50.2947H108.973C107.934 50.2947 106.985 50.8907 106.543 51.8299C105.816 53.3774 104.841 55.9016 104.728 58.4936C104.661 60.0261 105.88 61.3082 107.416 61.3082H120.079" fill="#02BAF3"/>
<path d="M120.091 64.2717H106.825C106.191 64.2717 105.612 64.6237 105.315 65.1834C104.902 65.9628 104.43 67.2499 104.417 69.0746H120.091" fill="#02BAF3"/>
<path d="M120.079 61.7766H107.416C106.547 61.7766 105.738 61.4314 105.138 60.8048C104.534 60.1747 104.222 59.3469 104.26 58.4736C104.374 55.8456 105.334 53.3022 106.119 51.6314C106.634 50.5351 107.754 49.8269 108.973 49.8269H120.079C120.338 49.8269 120.547 50.0364 120.547 50.295C120.547 50.5535 120.338 50.7631 120.079 50.7631H108.973C108.116 50.7631 107.329 51.2599 106.967 52.0294C106.219 53.6228 105.304 56.0417 105.196 58.515C105.169 59.1309 105.389 59.7147 105.814 60.1586C106.237 60.5991 106.805 60.8416 107.415 60.8416H120.079C120.338 60.8416 120.547 61.0511 120.547 61.3096C120.547 61.5682 120.337 61.7777 120.079 61.7777L120.079 61.7766Z" fill="#371A45"/>
<path d="M104.416 69.6367H104.412C104.101 69.6344 103.852 69.3816 103.854 69.0713C103.868 67.1171 104.386 65.7358 104.818 64.9211C105.214 64.1746 105.983 63.7107 106.825 63.7107H120.091C120.402 63.7107 120.654 63.962 120.654 64.2722C120.654 64.5825 120.402 64.8338 120.091 64.8338H106.825C106.401 64.8338 106.013 65.0686 105.812 65.4466C105.438 66.1506 104.991 67.3526 104.979 69.0794C104.976 69.3881 104.725 69.6371 104.416 69.6371V69.6367Z" fill="#371A45"/>
<path d="M92.329 70.8952H91.1266C90.677 70.8952 90.3115 70.5302 90.3115 70.0813C90.3115 69.6324 90.677 69.2673 91.1266 69.2673H92.329C92.7785 69.2673 93.1441 69.6324 93.1441 70.0813C93.1441 70.5302 92.7785 70.8952 92.329 70.8952ZM91.1266 69.6634C90.8957 69.6634 90.7077 69.8511 90.7077 70.0817C90.7077 70.3123 90.8957 70.4996 91.1266 70.4996H92.329C92.5599 70.4996 92.7478 70.3119 92.7478 70.0817C92.7478 69.8515 92.5599 69.6634 92.329 69.6634H91.1266Z" fill="#371A45"/>
<path d="M79.6387 70.8954H78.6453C78.536 70.8954 78.447 70.8069 78.447 70.6973C78.447 70.5878 78.5356 70.4993 78.6453 70.4993H79.6387C79.7484 70.4993 79.8558 70.4549 79.9333 70.3779C80.0131 70.2982 80.0572 70.1929 80.0572 70.0818C80.0572 69.8512 79.8696 69.6639 79.6387 69.6639H78.4355C78.3914 69.6639 78.3469 69.6712 78.307 69.685C78.2035 69.7202 78.0911 69.6654 78.055 69.562C78.0194 69.4586 78.0746 69.346 78.1782 69.3103C78.2602 69.2824 78.3469 69.2678 78.4355 69.2678H79.6387C80.0878 69.2678 80.4534 69.6329 80.4534 70.0814C80.4534 70.2982 80.3682 70.5031 80.2137 70.6575C80.0622 70.8084 79.8527 70.895 79.6387 70.895V70.8954Z" fill="#371A45"/>
<path d="M120.088 73.2237H82.5608C82.5505 73.2237 82.5397 73.2237 82.5294 73.2229C79.1929 73.0356 77.5325 71.3702 77.595 68.2722V61.6207C77.501 58.864 78.0004 55.1037 78.0215 54.9447C79.4886 45.5725 88.0686 45.7131 88.1526 45.7127H116.762C116.799 45.7127 116.835 45.7162 116.871 45.7231C120.057 46.3509 120.736 49.2957 120.651 50.7822V72.6625C120.651 72.9728 120.4 73.2241 120.089 73.2241L120.088 73.2237ZM82.5766 72.1006H119.526V50.7654C119.526 50.7539 119.526 50.7424 119.527 50.7309C119.534 50.5984 119.676 47.4575 116.705 46.8354H88.1361C87.8086 46.827 80.4436 46.7393 79.1342 55.106C79.1307 55.1316 78.6279 58.9207 78.7188 61.6015V68.2833C78.6693 70.7699 79.8591 71.9443 82.577 72.101L82.5766 72.1006Z" fill="#371A45"/>
<g opacity="0.25">
<path d="M120.088 50.7657V72.6625H96.4871V64.4858C123.483 69.4687 116.825 54.1782 119.682 48.5874L119.684 48.5893C120.154 49.6971 120.088 50.7657 120.088 50.7657Z" fill="#371A45"/>
</g>
<path d="M108.642 76.0635C111.217 76.0635 113.304 73.8639 113.304 71.1506C113.304 68.4374 111.217 66.2378 108.642 66.2378C106.067 66.2378 103.98 68.4374 103.98 71.1506C103.98 73.8639 106.067 76.0635 108.642 76.0635Z" fill="#6D6C80"/>
<g opacity="0.25">
<path d="M113.438 71.0815C113.438 73.7954 111.35 75.9944 108.775 75.9944C106.783 75.9944 105.083 74.6767 104.416 72.824C105.258 74.1003 106.657 74.9349 108.245 74.9349C110.819 74.9349 112.907 72.734 112.907 70.0221C112.907 69.41 112.8 68.8243 112.605 68.2834C113.132 69.0771 113.437 70.0427 113.437 71.0815H113.438Z" fill="#371A45"/>
</g>
<g opacity="0.3">
<path d="M105.033 68.0412C105.033 68.0412 107.172 67.1177 107.575 68.9663C107.575 68.9663 108.012 70.6164 106.783 71.4698C106.681 71.5411 104.394 72.4289 104.207 70.7681" fill="white"/>
</g>
<path d="M108.642 76.6251C105.762 76.6251 103.418 74.1695 103.418 71.1511C103.418 68.1328 105.761 65.6768 108.642 65.6768C111.523 65.6768 113.866 68.1324 113.866 71.1511C113.866 74.1699 111.523 76.6251 108.642 76.6251ZM108.642 66.7998C106.381 66.7998 104.542 68.7518 104.542 71.1511C104.542 73.5505 106.381 75.5025 108.642 75.5025C110.903 75.5025 112.742 73.5505 112.742 71.1511C112.742 68.7518 110.903 66.7998 108.642 66.7998Z" fill="#371A45"/>
<path d="M109.263 74.0183C110.703 74.0183 111.87 72.7345 111.87 71.1509C111.87 69.5672 110.703 68.2834 109.263 68.2834C107.823 68.2834 106.656 69.5672 106.656 71.1509C106.656 72.7345 107.823 74.0183 109.263 74.0183Z" fill="#02BAF3"/>
<path d="M109.263 74.3925C107.619 74.3925 106.281 72.9385 106.281 71.1508C106.281 69.3632 107.619 67.9092 109.263 67.9092C110.907 67.9092 112.245 69.3632 112.245 71.1508C112.245 72.9385 110.907 74.3925 109.263 74.3925ZM109.263 68.6576C108.032 68.6576 107.031 69.7761 107.031 71.1508C107.031 72.5256 108.032 73.644 109.263 73.644C110.494 73.644 111.495 72.5256 111.495 71.1508C111.495 69.7761 110.494 68.6576 109.263 68.6576Z" fill="#371A45"/>
<path d="M118.31 76.0635C120.885 76.0635 122.972 73.8639 122.972 71.1506C122.972 68.4374 120.885 66.2378 118.31 66.2378C115.735 66.2378 113.648 68.4374 113.648 71.1506C113.648 73.8639 115.735 76.0635 118.31 76.0635Z" fill="#6D6C80"/>
<g opacity="0.25">
<path d="M123.105 71.0815C123.105 73.7954 121.018 75.9944 118.443 75.9944C116.451 75.9944 114.751 74.6767 114.084 72.824C114.925 74.1003 116.325 74.9349 117.913 74.9349C120.487 74.9349 122.575 72.734 122.575 70.0221C122.575 69.41 122.468 68.8243 122.273 68.2834C122.8 69.0771 123.105 70.0427 123.105 71.0815H123.105Z" fill="#371A45"/>
</g>
<g opacity="0.3">
<path d="M114.701 68.0412C114.701 68.0412 116.84 67.1177 117.242 68.9663C117.242 68.9663 117.679 70.6164 116.451 71.4698C116.348 71.5411 114.061 72.4289 113.874 70.7681" fill="white"/>
</g>
<path d="M118.31 76.6251C115.43 76.6251 113.086 74.1695 113.086 71.1511C113.086 68.1328 115.429 65.6768 118.31 65.6768C121.191 65.6768 123.534 68.1324 123.534 71.1511C123.534 74.1699 121.191 76.6251 118.31 76.6251ZM118.31 66.7998C116.049 66.7998 114.21 68.7518 114.21 71.1511C114.21 73.5505 116.049 75.5025 118.31 75.5025C120.571 75.5025 122.41 73.5505 122.41 71.1511C122.41 68.7518 120.571 66.7998 118.31 66.7998Z" fill="#371A45"/>
<path d="M118.931 74.0183C120.371 74.0183 121.538 72.7345 121.538 71.1509C121.538 69.5672 120.371 68.2834 118.931 68.2834C117.491 68.2834 116.324 69.5672 116.324 71.1509C116.324 72.7345 117.491 74.0183 118.931 74.0183Z" fill="#02BAF3"/>
<path d="M118.931 74.3925C117.286 74.3925 115.949 72.9385 115.949 71.1508C115.949 69.3632 117.287 67.9092 118.931 67.9092C120.575 67.9092 121.912 69.3632 121.912 71.1508C121.912 72.9385 120.575 74.3925 118.931 74.3925ZM118.931 68.6576C117.7 68.6576 116.698 69.7761 116.698 71.1508C116.698 72.5256 117.7 73.644 118.931 73.644C120.162 73.644 121.163 72.5256 121.163 71.1508C121.163 69.7761 120.162 68.6576 118.931 68.6576Z" fill="#371A45"/>
<path d="M99.2001 76.0635C101.775 76.0635 103.862 73.8639 103.862 71.1506C103.862 68.4374 101.775 66.2378 99.2001 66.2378C96.6254 66.2378 94.5381 68.4374 94.5381 71.1506C94.5381 73.8639 96.6254 76.0635 99.2001 76.0635Z" fill="#6D6C80"/>
<g opacity="0.25">
<path d="M103.997 71.0815C103.997 73.7954 101.909 75.9944 99.3344 75.9944C97.3422 75.9944 95.6427 74.6767 94.9753 72.824C95.8169 74.1003 97.2168 74.9349 98.8039 74.9349C101.379 74.9349 103.466 72.734 103.466 70.0221C103.466 69.41 103.359 68.8243 103.165 68.2834C103.691 69.0771 103.996 70.0427 103.996 71.0815H103.997Z" fill="#371A45"/>
</g>
<g opacity="0.3">
<path d="M95.5919 68.0412C95.5919 68.0412 97.731 67.1177 98.1337 68.9663C98.1337 68.9663 98.5706 70.6164 97.3421 71.4698C97.2397 71.5411 94.9526 72.4289 94.7654 70.7681" fill="white"/>
</g>
<path d="M99.2007 76.6251C96.3202 76.6251 93.9763 74.1695 93.9763 71.1511C93.9763 68.1328 96.3198 65.6768 99.2007 65.6768C102.082 65.6768 104.425 68.1324 104.425 71.1511C104.425 74.1699 102.082 76.6251 99.2007 76.6251ZM99.2007 66.7998C96.94 66.7998 95.1009 68.7518 95.1009 71.1511C95.1009 73.5505 96.94 75.5025 99.2007 75.5025C101.461 75.5025 103.3 73.5505 103.3 71.1511C103.3 68.7518 101.461 66.7998 99.2007 66.7998Z" fill="#371A45"/>
<path d="M99.8214 74.0183C101.261 74.0183 102.428 72.7345 102.428 71.1509C102.428 69.5672 101.261 68.2834 99.8214 68.2834C98.3816 68.2834 97.2144 69.5672 97.2144 71.1509C97.2144 72.7345 98.3816 74.0183 99.8214 74.0183Z" fill="#02BAF3"/>
<path d="M99.8213 74.3925C98.1771 74.3925 96.8396 72.9385 96.8396 71.1508C96.8396 69.3632 98.1774 67.9092 99.8213 67.9092C101.465 67.9092 102.803 69.3632 102.803 71.1508C102.803 72.9385 101.465 74.3925 99.8213 74.3925ZM99.8213 68.6576C98.5905 68.6576 97.5891 69.7761 97.5891 71.1508C97.5891 72.5256 98.5905 73.644 99.8213 73.644C101.052 73.644 102.054 72.5256 102.054 71.1508C102.054 69.7761 101.052 68.6576 99.8213 68.6576Z" fill="#371A45"/>
<path opacity="0.6" d="M83.4157 59.7489C85.158 59.7489 86.5704 57.2168 86.5704 54.0933C86.5704 50.9698 85.158 48.4377 83.4157 48.4377C81.6734 48.4377 80.261 50.9698 80.261 54.0933C80.261 57.2168 81.6734 59.7489 83.4157 59.7489Z" fill="url(#paint0_radial_47_359)"/>
<path opacity="0.6" d="M89.3268 59.8338C91.0691 59.8338 92.4815 57.3017 92.4815 54.1783C92.4815 51.0548 91.0691 48.5227 89.3268 48.5227C87.5845 48.5227 86.1721 51.0548 86.1721 54.1783C86.1721 57.3017 87.5845 59.8338 89.3268 59.8338Z" fill="url(#paint1_radial_47_359)"/>
<path d="M64.7416 39.0683L73.5809 44.5109C73.5809 44.5109 75.4626 42.7175 76.7747 43.6066C78.0864 44.4956 78.7189 45.9263 78.6487 46.6027C78.5785 47.2792 76.3064 45.829 76.3064 45.829C76.3064 45.829 74.7603 46.5307 75.0414 48.3321L76.6178 49.3889C76.7429 49.4728 76.8345 49.5977 76.8767 49.7417C76.9937 50.1404 76.7083 50.5396 76.2933 50.5672C74.1378 50.7119 71.6217 49.9417 72.4567 46.6027L63.7501 41.3604C63.7501 41.3604 61.7357 42.7643 60.33 41.4773C58.9246 40.1906 58.5027 38.9741 58.9714 38.7167C59.2729 38.5512 60.0208 38.9377 60.5156 39.2346C60.8612 39.4418 61.3007 39.4223 61.6168 39.1729C61.8227 39.0105 62.0418 38.786 62.2105 38.485C62.4222 38.1069 62.3336 37.6304 62.0218 37.3294L60.6414 35.996C60.4205 35.7826 60.4926 35.4184 60.7734 35.2943C62.935 34.3394 66.023 36.1339 64.7419 39.0672L64.7416 39.0683Z" fill="#BFCBCD"/>
<path d="M75.8095 51.1456C74.7674 51.1456 73.3049 50.9307 72.4193 49.8735C71.7922 49.1247 71.592 48.1177 71.8221 46.877L63.751 42.017C63.0426 42.4077 61.3116 43.1382 59.9504 41.8921C58.8001 40.8392 58.1431 39.7104 58.2348 38.9466C58.2735 38.6256 58.4388 38.3697 58.7004 38.2261C59.148 37.9802 59.7774 38.1384 60.805 38.7543C60.9534 38.8435 61.1398 38.8347 61.2683 38.7332C61.4578 38.5838 61.6097 38.4084 61.7197 38.2119C61.8026 38.0644 61.765 37.8633 61.6308 37.7339L60.2504 36.4009C60.0137 36.1726 59.9071 35.8432 59.9646 35.5203C60.0229 35.1932 60.2404 34.9174 60.5461 34.7822C61.9226 34.1743 63.626 34.4861 64.6877 35.5406C65.5595 36.4066 65.8195 37.5868 65.4298 38.8324L73.5285 43.8192C74.2097 43.2826 75.7926 42.2629 77.0905 43.1424C78.5235 44.1134 79.3052 45.7248 79.2081 46.6613C79.1801 46.9291 79.029 47.1482 78.7927 47.2616C78.6205 47.3447 78.1135 47.5891 76.2993 46.4867C75.9959 46.7069 75.5306 47.183 75.5728 48.0123L76.9314 48.9228C77.1649 49.0795 77.3372 49.3139 77.4166 49.5839C77.5201 49.9359 77.4591 50.3102 77.2489 50.6112C77.0372 50.9146 76.7028 51.1031 76.3315 51.1283C76.1758 51.1387 75.9997 51.146 75.8099 51.146L75.8095 51.1456ZM63.7503 40.7997C63.8504 40.7997 63.9509 40.8265 64.0406 40.8802L72.7472 46.1224C72.9589 46.25 73.0621 46.5001 73.0023 46.7391C72.7365 47.802 72.8304 48.6141 73.2819 49.1526C73.8131 49.7869 74.8966 50.0984 76.2559 50.0072C76.2935 50.0045 76.3154 49.9846 76.3265 49.9681C76.3484 49.9367 76.3403 49.9087 76.3376 49.8996C76.3323 49.8815 76.3207 49.8655 76.3046 49.8547L74.7282 48.7983C74.5978 48.711 74.5104 48.5735 74.4862 48.4183C74.212 46.6602 75.4048 45.6214 76.0741 45.3176C76.2475 45.2387 76.4492 45.2533 76.6096 45.3556C77.1063 45.6723 77.6563 45.9619 78.0276 46.1125C77.8561 45.5375 77.3441 44.6703 76.4596 44.0709C75.5548 43.4584 73.9845 44.9024 73.9692 44.9174C73.7843 45.0924 73.5036 45.1223 73.2865 44.9886L64.4476 39.546C64.2094 39.3993 64.1154 39.0998 64.2274 38.8439C64.6551 37.8645 64.5373 36.9739 63.8956 36.3366C63.2121 35.6578 62.0998 35.4203 61.1824 35.7379L62.4132 36.9268C62.916 37.4125 63.0345 38.1663 62.7016 38.7604C62.5194 39.086 62.2717 39.3733 61.966 39.6146C61.4727 40.0038 60.7739 40.0447 60.227 39.7172C59.8235 39.4752 59.555 39.3557 59.3878 39.2971C59.4955 39.6337 59.8538 40.2803 60.7106 41.0648C61.7719 42.0362 63.4127 40.9127 63.4292 40.9012C63.5255 40.8342 63.6383 40.8001 63.751 40.8001L63.7503 40.7997Z" fill="#371A45"/>
<path d="M72.1934 43.6577L71.2039 43.0475C71.2039 43.0475 69.6935 43.4665 70.044 45.1511L70.6738 45.5292C69.8453 47.8872 65.8556 46.3248 64.8343 43.845H64.8323C64.583 43.2463 64.5102 42.5947 64.6954 41.9305C64.6954 41.9305 65.6792 38.8819 68.2713 38.6628L69.9972 39.6511L71.8636 40.7217C71.8636 40.7217 72.7876 41.2269 72.1934 43.658V43.6577Z" fill="white"/>
<path d="M68.9177 47.2528C68.543 47.2528 68.1398 47.1888 67.7183 47.0559C65.4811 46.3527 63.515 44.0644 64.1547 41.7796C64.1567 41.7723 64.1586 41.7654 64.1609 41.7585C64.2058 41.6194 65.292 38.3506 68.2238 38.1035C68.3381 38.094 68.4517 38.1192 68.551 38.1759L72.143 40.2348C72.3505 40.3478 73.4022 41.0782 72.739 43.7897C72.6964 43.9644 72.5725 44.1081 72.4061 44.1759C72.2396 44.2444 72.0505 44.2287 71.8975 44.1345L71.1492 43.6737C70.8876 43.812 70.5048 44.1318 70.5604 44.8063L70.9632 45.0488C71.1914 45.1859 71.2915 45.4644 71.2033 45.7153C70.855 46.7073 70.0077 47.2528 68.9169 47.2528H68.9177ZM65.2341 42.0948C64.747 43.8755 66.5903 45.5241 68.0558 45.9849C68.4847 46.1202 69.4251 46.3243 69.9249 45.7344L69.7542 45.6318C69.6203 45.551 69.526 45.418 69.4942 45.2652C69.1321 43.5258 70.3556 42.7 71.0533 42.5066C71.2044 42.4644 71.3655 42.4874 71.499 42.5698L71.7939 42.7513C71.942 41.5919 71.6075 41.2383 71.5634 41.1973L68.1517 39.2419C66.1531 39.5342 65.2916 41.9293 65.2344 42.0952L65.2341 42.0948ZM71.5673 41.1993C71.5834 41.2107 71.5937 41.2146 71.5937 41.2146L71.5673 41.1993Z" fill="#371A45"/>
<path d="M65.4548 45.4943C65.4782 44.2326 65.8449 42.9513 66.6285 41.9516C66.8797 41.6183 67.2023 41.3479 67.5295 41.1055C67.6123 41.0438 67.7297 41.0614 67.7914 41.1441C67.8467 41.2185 67.8382 41.3207 67.7761 41.3851C67.5137 41.6563 67.2663 41.937 67.0941 42.2668C66.574 43.2064 66.431 44.3402 66.5752 45.3936C66.6968 46.2071 65.4825 46.3182 65.4552 45.4939L65.4548 45.4943Z" fill="#371A45"/>
<path d="M67.4596 46.4197C67.5416 45.3024 67.7852 44.2333 68.2823 43.234C68.4545 42.9084 68.6605 42.5997 68.9032 42.3235C68.9715 42.2458 69.0904 42.2381 69.1683 42.3063C69.24 42.3691 69.2519 42.4744 69.2009 42.551C68.5335 43.6864 68.4595 45.1055 68.5837 46.3818C68.6505 47.1915 67.448 47.2344 67.4596 46.4193V46.4197Z" fill="#371A45"/>
<g opacity="0.25">
<path d="M72.1932 43.6575L71.2036 43.0473C71.2036 43.0473 69.6932 43.4663 70.0438 45.1509L70.6735 45.529C69.8451 47.887 65.8554 46.3246 64.834 43.8448C70.132 46.3395 70.1074 41.1555 69.997 39.6509L71.8633 40.7215C71.8633 40.7215 72.7873 41.2267 72.1932 43.6578V43.6575Z" fill="#371A45"/>
</g>
<path d="M71.8634 40.7209L69.4516 39.3397L68.271 38.6621C68.271 38.6621 68.138 37.2678 69.2549 37.2678C69.877 37.2678 70.6755 37.6064 71.3387 38.0163C71.8691 38.3419 72.3114 38.7142 72.51 38.993C72.958 39.6254 72.7145 40.5949 71.8634 40.7205V40.7209Z" fill="white"/>
<path d="M71.8635 41.2822C71.7657 41.2822 71.6694 41.257 71.5839 41.2079L67.9915 39.1499C67.8331 39.0591 67.7288 38.8974 67.7115 38.7159C67.7023 38.6174 67.6352 37.7376 68.1576 37.1638C68.4307 36.8639 68.81 36.7053 69.255 36.7053C70.5824 36.7053 72.4242 37.8973 72.9704 38.6699C73.3198 39.1644 73.3919 39.8102 73.158 40.3549C72.9416 40.8586 72.4998 41.1945 71.9456 41.2761C71.9183 41.2799 71.8907 41.2822 71.8635 41.2822ZM68.8392 38.3409L71.939 40.1167C72.023 40.0734 72.0852 40.0052 72.1247 39.9129C72.2045 39.7267 72.1761 39.4935 72.0518 39.3176C71.7143 38.84 70.1739 37.8284 69.255 37.8284C69.072 37.8284 69.0141 37.892 68.9892 37.9196C68.9002 38.0168 68.8572 38.1888 68.8392 38.3409Z" fill="#371A45"/>
<g opacity="0.25">
<path d="M71.8634 40.7209L69.4517 39.3396C69.6089 39.3396 69.7719 39.3565 69.9353 39.3959C71.8542 39.8395 71.3391 38.0166 71.3391 38.0166C71.8696 38.3422 72.3118 38.7145 72.5105 38.9933C72.9585 39.6257 72.7149 40.5952 71.8638 40.7209H71.8634Z" fill="#371A45"/>
</g>
<defs>
<radialGradient id="paint0_radial_47_359" cx="0" cy="0" r="1" gradientUnits="userSpaceOnUse" gradientTransform="translate(83.0942 54.323) scale(3.3271 5.385)">
<stop stop-color="#02BAF3"/>
<stop offset="0.93" stop-color="#02BAF3"/>
</radialGradient>
<radialGradient id="paint1_radial_47_359" cx="0" cy="0" r="1" gradientUnits="userSpaceOnUse" gradientTransform="translate(88.9669 54.4086) scale(3.3271 5.385)">
<stop stop-color="#02BAF3"/>
<stop offset="0.93" stop-color="#02BAF3"/>
</radialGradient>
</defs>
</svg>
